<?xml version="1.0" standalone="no"?>
<!DOCTYPE svg PUBLIC "-//W3C//DTD SVG 1.1//EN" "http://www.w3.org/Graphics/SVG/1.1/DTD/svg11.dtd" >
<svg xmlns="http://www.w3.org/2000/svg" xmlns:xlink="http://www.w3.org/1999/xlink" version="1.1">
<metadata>
Created by FontForge 20141024 at Thu Sep 17 14:58:00 2015
 By Jimmy Warting
Copyright \(c\) 2014 by Andriy Konstantynov. All rights reserved.
</metadata>
<defs>
<font id="AngleciaProTitle-Bold" horiz-adv-x="585" >
  <font-face 
    font-family="Anglecia Pro Title"
    font-weight="700"
    font-stretch="normal"
    units-per-em="1000"
    panose-1="2 5 0 3 7 0 0 0 0 0"
    ascent="762"
    descent="-238"
    x-height="480"
    cap-height="700"
    bbox="-169.537 -250 1316 1024"
    underline-thickness="50"
    underline-position="-50"
    unicode-range="U+0020-FB04"
  />
<missing-glyph horiz-adv-x="209" 
 />
    <glyph glyph-name="ff" unicode="ff" horiz-adv-x="751" 
d="M17 468l60 20v42c0 58 28 104 83 139c56 35 128 52 215 52c45 0 82 -7 113 -21c36 26 84 39 144 39c93 0 166 -37 166 -106c0 -41 -27 -67 -64 -67c-40 0 -72 32 -72 77v56c-7 5 -16 8 -27 8c-35 0 -53 -49 -53 -147v-80h156v-39h-156v-389l92 -24v-28h-312v29l57 25v387
h-179v-389l86 -24v-28h-309v29l60 25v387h-60v27zM393 480l26 8v70c0 43 11 80 34 109c-22 15 -49 22 -81 22c-89 0 -132 -58 -132 -158v-51h153z" />
    <glyph glyph-name="fi" unicode="fi" horiz-adv-x="659" 
d="M642 0h-280v29l57 25v366l-52 21h-127v-389l89 -24v-28h-312v29l60 25v387h-60v27l60 20v65c0 113 108 186 293 186c125 0 209 -42 209 -122c0 -51 -35 -79 -80 -79c-51 0 -88 36 -88 91v62c-15 11 -33 16 -56 16c-77 0 -115 -51 -115 -153v-74h123l202 9l17 -18v-421
l60 -22v-28z" />
    <glyph glyph-name="fl" unicode="fl" horiz-adv-x="664" 
d="M649 0h-285v29l62 25v618c-18 23 -43 35 -75 35c-74 0 -111 -49 -111 -147v-80h136v-39h-136v-389l92 -24v-28h-315v29l60 25v387h-60v27l60 20v70c0 112 98 181 286 181c38 0 73 -3 105 -9l104 14l17 -18v-676l60 -22v-28z" />
    <glyph glyph-name="ffi" unicode="ffi" horiz-adv-x="1001" 
d="M984 0h-280v29l57 25v366l-52 21h-127v-389l88 -24v-28h-309v29l58 25v387h-179v-389l86 -24v-28h-309v29l60 25v387h-60v27l60 20v42c0 58 27 104 82 139s125 52 211 52c55 0 100 -9 135 -28c47 31 116 46 207 46c125 0 209 -42 209 -122c0 -51 -35 -79 -80 -79
c-51 0 -89 36 -89 91v62c-13 11 -32 16 -55 16c-77 0 -115 -51 -115 -153v-74h123l202 9l17 -18v-421l60 -22v-28zM393 480l28 8v65c0 41 14 77 43 107c-24 19 -54 29 -91 29c-89 0 -133 -59 -133 -158v-51h153z" />
    <glyph glyph-name="ffl" unicode="ffl" horiz-adv-x="1008" 
d="M991 0h-285v29l62 25v618c-18 23 -43 35 -75 35c-74 0 -111 -49 -111 -147v-80h136v-39h-136v-389l92 -24v-28h-315v29l60 25v387h-179v-389l86 -24v-28h-309v29l60 25v387h-60v27l60 20v42c0 58 27 104 81 139c55 35 124 52 209 52c52 0 96 -9 131 -28
c49 31 117 46 206 46c39 0 74 -3 106 -9l104 14l17 -18v-676l60 -22v-28zM393 480l26 8v70c0 43 13 77 40 104c-23 18 -52 27 -88 27c-88 0 -131 -59 -131 -158v-51h153z" />
    <glyph glyph-name="f_f_j" unicode="ffj" horiz-adv-x="998" 
d="M758 16v404l-52 21h-124v-389l92 -24v-28h-313v29l58 25v387h-179v-389l86 -24v-28h-309v29l60 25v387h-60v27l60 20v42c0 58 27 104 82 139s125 52 211 52c55 0 100 -9 135 -28c47 31 115 46 205 46c124 0 208 -42 208 -122c0 -51 -35 -79 -80 -79c-51 0 -88 36 -88 91
v62c-13 11 -32 16 -55 16c-75 0 -113 -51 -113 -153v-74h120l202 9l17 -18v-455c0 -100 -68 -183 -205 -248l-22 22c43 59 64 135 64 226zM393 480l28 8v65c0 41 14 77 43 107c-24 19 -54 29 -91 29c-89 0 -133 -59 -133 -158v-51h153z" />
    <glyph glyph-name="f_j" unicode="fj" horiz-adv-x="659" 
d="M419 16v404l-52 21h-127v-389l92 -24v-28h-315v29l60 25v387h-60v27l60 20v65c0 113 108 186 293 186c125 0 209 -42 209 -122c0 -51 -35 -79 -80 -79c-51 0 -88 36 -88 91v62c-15 11 -33 16 -56 16c-77 0 -115 -51 -115 -153v-74h123l202 9l17 -18v-455
c0 -100 -68 -183 -205 -248l-22 22c43 59 64 135 64 226z" />
    <glyph glyph-name=".notdef" horiz-adv-x="209" 
 />
    <glyph glyph-name="NULL" horiz-adv-x="0" 
 />
    <glyph glyph-name="CR" horiz-adv-x="333" 
 />
    <glyph glyph-name="space" unicode=" " horiz-adv-x="209" 
 />
    <glyph glyph-name="exclam" unicode="!" horiz-adv-x="231" 
d="M136 212h-40c-11 98 -22 179 -33 242c-11 64 -19 106 -24 126s-7 34 -7 41c0 49 35 84 83 84c49 0 84 -35 84 -84c0 -7 -3 -21 -8 -41c-9 -40 -34 -172 -55 -368zM41 68c0 44 31 75 74 75c45 0 75 -31 75 -75c0 -43 -31 -73 -75 -73c-43 0 -74 30 -74 73z" />
    <glyph glyph-name="quotedbl" unicode="&#x22;" horiz-adv-x="323" 
d="M105 475h-32c-5 41 -14 77 -25 110s-16 54 -16 61c0 35 24 58 57 58s57 -25 57 -58c0 -7 -6 -28 -17 -61s-19 -69 -24 -110zM251 475h-32c-5 41 -14 77 -25 110s-16 54 -16 61c-6 76 120 76 114 0c0 -7 -6 -28 -17 -61s-19 -69 -24 -110z" />
    <glyph glyph-name="numbersign" unicode="#" horiz-adv-x="587" 
d="M184 450h-102v47h116l60 203h51l-61 -203h177l60 203h51l-61 -203h79v-47h-93l-59 -200h103v-48h-117l-60 -202h-51l60 202h-176l-60 -202h-51l60 202h-77v48h91zM411 450h-177l-59 -200h176z" />
    <glyph glyph-name="dollar" unicode="$" horiz-adv-x="599" 
d="M290 -7l-3 -43h-41l3 44c-55 4 -105 16 -148 37h-52l-8 144h36c25 -96 97 -141 174 -148l18 251c-1 0 -4 1 -5 2l-48 16c-10 3 -25 9 -44 17s-33 15 -42 21c-19 13 -52 38 -64 62c-12 25 -24 61 -24 101c0 125 80 209 249 209h8l3 44h41l-4 -47c43 -5 85 -16 126 -35h53
l8 -144h-37c-23 95 -85 139 -152 147l-16 -234l2 -1h3c33 -11 59 -21 76 -28c18 -7 39 -17 62 -30c24 -13 42 -27 53 -41c23 -28 43 -72 43 -128c0 -132 -85 -215 -270 -216zM416 157c0 28 -8 49 -23 64s-43 29 -84 44l-17 -239c75 7 124 51 124 131zM187 553
c0 -53 26 -77 94 -102l15 221c-68 -7 -109 -54 -109 -119z" />
    <glyph glyph-name="percent" unicode="%" horiz-adv-x="735" 
d="M38 525c0 111 62 182 153 182s153 -71 153 -182c0 -112 -62 -182 -153 -182s-153 70 -153 182zM192 376c33 0 55 49 55 149s-22 149 -55 149c-37 0 -56 -50 -56 -149s19 -149 56 -149zM608 700l-422 -700h-58l421 700h59zM391 175c0 111 61 182 153 182
c91 0 153 -71 153 -182c0 -112 -62 -182 -153 -182c-92 0 -153 70 -153 182zM600 175c0 100 -23 149 -56 149c-37 0 -56 -50 -56 -149s19 -149 56 -149s56 50 56 149z" />
    <glyph glyph-name="ampersand" unicode="&#x26;" horiz-adv-x="743" 
d="M699 389l-64 -26c0 -76 -15 -143 -44 -201l87 -113l58 -21v-28h-228l-40 50c-48 -37 -108 -55 -179 -55c-75 0 -137 18 -184 53s-71 82 -71 141c0 52 19 93 56 124c39 32 68 49 124 73c-45 61 -67 115 -67 164c0 93 67 155 196 155c111 0 162 -46 162 -123
c0 -71 -44 -117 -117 -162l175 -223c21 48 32 104 32 168l-64 24v17h168v-17zM328 40c45 0 84 14 116 42l-184 239c-44 -38 -66 -84 -66 -138c0 -95 45 -143 134 -143zM299 593c0 -38 20 -84 61 -137c63 37 95 79 95 126c0 53 -34 86 -85 86c-47 0 -71 -25 -71 -75z" />
    <glyph glyph-name="quotesingle" unicode="'" horiz-adv-x="178" 
d="M105 475h-32c-5 41 -14 77 -25 110s-16 54 -16 61c0 35 24 58 57 58s57 -25 57 -58c0 -7 -6 -28 -17 -61s-19 -69 -24 -110z" />
    <glyph glyph-name="parenleft" unicode="(" horiz-adv-x="301" 
d="M37 275c0 193 72 354 215 481l22 -21c-61 -121 -92 -274 -92 -460c0 -187 31 -340 92 -460l-22 -22c-143 127 -215 288 -215 482z" />
    <glyph glyph-name="parenright" unicode=")" horiz-adv-x="301" 
d="M263 275c0 -195 -72 -356 -215 -482l-21 22c61 119 91 272 91 460c0 187 -30 341 -91 460l21 21c143 -126 215 -286 215 -481z" />
    <glyph glyph-name="asterisk" unicode="*" horiz-adv-x="422" 
d="M218 492c-17 -28 -29 -55 -38 -81c-8 -26 -14 -41 -17 -45c-13 -20 -39 -25 -59 -10c-19 15 -23 40 -8 59c3 5 16 16 37 32c22 16 44 36 65 59c-32 6 -62 9 -89 9c-27 1 -43 2 -48 3c-23 8 -35 30 -27 53c7 23 30 35 53 27c5 -1 19 -10 41 -26s48 -30 77 -43
c-4 32 -10 61 -18 86c-8 26 -12 42 -12 47c-6 55 90 55 84 0c0 -5 -4 -21 -12 -47c-8 -25 -14 -54 -18 -86c29 13 55 28 76 43c22 16 36 25 41 26c24 8 46 -3 54 -27c8 -23 -4 -45 -27 -52c-5 -2 -22 -3 -49 -3s-57 -3 -88 -10c22 -24 44 -44 65 -60c22 -15 35 -25 38 -30
c17 -24 14 -44 -8 -59c-20 -15 -44 -11 -59 9c-4 5 -10 21 -19 46c-8 25 -20 52 -35 80z" />
    <glyph glyph-name="plus" unicode="+" horiz-adv-x="452" 
d="M202 276h-167v47h167v168h47v-168h168v-47h-168v-168h-47v168z" />
    <glyph glyph-name="comma" unicode="," horiz-adv-x="210" 
d="M66 -122l-18 18c14 15 27 32 40 51s19 34 19 44c0 4 -1 7 -3 9c-44 0 -74 28 -74 72c0 43 30 71 74 71s75 -28 75 -79c0 -22 -7 -46 -21 -71c-27 -51 -49 -72 -92 -115z" />
    <glyph glyph-name="hyphen" unicode="-" horiz-adv-x="303" 
d="M269 248h-234v47h234v-47z" />
    <glyph glyph-name="period" unicode="." horiz-adv-x="210" 
d="M30 68c0 44 31 75 74 75c44 0 75 -31 75 -75c0 -43 -31 -73 -75 -73c-43 0 -74 30 -74 73z" />
    <glyph glyph-name="slash" unicode="/" horiz-adv-x="361" 
d="M360 750l-308 -850h-51l308 850h51z" />
    <glyph glyph-name="zero" unicode="0" horiz-adv-x="656" 
d="M328 706c85 0 155 -32 208 -97s80 -151 80 -260c0 -108 -27 -194 -80 -259s-123 -97 -208 -97c-86 0 -156 32 -209 96c-53 65 -79 151 -79 260s26 195 79 260s123 97 209 97zM211 349c0 -217 45 -323 117 -323s116 106 116 323c0 219 -44 324 -116 324
s-117 -105 -117 -324z" />
    <glyph glyph-name="one" unicode="1" horiz-adv-x="408" 
d="M377 0h-337v29l87 25v576h-93v34l239 45l17 -18v-641l87 -22v-28z" />
    <glyph glyph-name="two" unicode="2" horiz-adv-x="544" 
d="M505 0h-475v63c45 41 79 74 103 98c25 24 52 54 83 90s55 68 70 95c31 55 57 130 57 203c0 81 -31 121 -93 121c-27 0 -50 -9 -71 -26v-82c0 -48 -32 -80 -76 -80c-41 0 -74 27 -74 78c0 45 22 80 65 105c43 26 98 39 165 39c152 0 241 -64 241 -180
c0 -64 -33 -131 -72 -182c-19 -25 -47 -53 -82 -84s-66 -56 -93 -75c-26 -19 -61 -45 -106 -76h285l42 96h36z" />
    <glyph glyph-name="three" unicode="3" horiz-adv-x="600" 
d="M205 647v-81c0 -48 -32 -80 -76 -80c-43 0 -75 29 -75 78c0 46 24 81 73 105c49 25 104 37 167 37c73 0 132 -16 175 -49c43 -32 65 -75 65 -130c0 -83 -57 -139 -149 -162c111 -24 175 -89 175 -180c0 -58 -24 -105 -73 -140s-113 -52 -192 -52c-41 0 -80 5 -116 14
c-71 19 -130 65 -130 128c0 49 32 78 75 78c44 0 75 -32 75 -80v-81c19 -13 43 -19 70 -19c75 0 127 51 127 156c0 103 -53 155 -160 155h-46v39h42c91 0 138 40 138 141c0 96 -41 142 -101 142c-25 0 -46 -6 -64 -19z" />
    <glyph glyph-name="four" unicode="4" horiz-adv-x="596" 
d="M551 0h-280v29l60 25v96h-293v24c57 106 100 198 128 277s42 162 42 249h163c0 -99 -28 -189 -84 -276c-28 -43 -57 -82 -87 -117c-29 -35 -66 -74 -110 -119h241v158l143 143l17 -18v-283h69v-38h-69v-100l60 -22v-28z" />
    <glyph glyph-name="five" unicode="5" horiz-adv-x="548" 
d="M188 121v-76c17 -11 36 -16 57 -16c71 0 107 58 107 175c0 124 -44 188 -144 188c-41 0 -76 -11 -105 -33l-23 23l29 317c148 0 264 6 349 18v-126h-303l-43 -194c41 25 91 38 149 38c161 0 255 -84 255 -220s-96 -220 -263 -220c-60 0 -111 11 -153 33s-63 54 -63 96
c0 49 32 77 75 77c44 0 76 -32 76 -80z" />
    <glyph glyph-name="six" unicode="6" horiz-adv-x="592" 
d="M199 392c31 23 73 35 124 35c70 0 127 -20 170 -59s65 -90 65 -154c0 -67 -23 -121 -70 -160c-46 -39 -105 -59 -178 -59c-89 0 -157 29 -205 88s-72 136 -72 232c0 123 39 217 117 282s183 101 316 109l23 -22c-187 -35 -279 -128 -290 -292zM198 333
c0 -203 34 -304 102 -304c57 0 94 66 94 181c0 112 -40 175 -107 175c-39 0 -69 -17 -89 -52z" />
    <glyph glyph-name="seven" unicode="7" horiz-adv-x="557" 
d="M332 0h-163c0 58 10 114 29 168c19 55 41 100 66 136l93 138c37 55 67 105 89 148h-325l-46 -95h-36l7 205h472v-25c-13 -43 -38 -114 -75 -212c-37 -97 -64 -182 -83 -254c-19 -71 -28 -141 -28 -209z" />
    <glyph glyph-name="eight" unicode="8" horiz-adv-x="604" 
d="M533 551c0 -69 -39 -123 -118 -160c53 -23 91 -49 115 -76s36 -65 36 -114c0 -139 -93 -208 -280 -208c-169 0 -249 60 -249 163c0 88 56 137 149 176c-79 37 -121 85 -121 176c0 59 19 106 58 143s102 55 190 55c148 0 220 -60 220 -155zM275 295l-40 15
c-37 -39 -56 -88 -56 -146c0 -91 40 -136 119 -136c80 0 130 43 130 124c0 37 -11 64 -33 82c-21 18 -61 38 -120 61zM339 422l16 -7c29 36 43 79 43 130c0 85 -33 127 -98 127c-64 0 -102 -44 -102 -111c0 -35 10 -62 31 -81c21 -18 57 -37 110 -58z" />
    <glyph glyph-name="nine" unicode="9" horiz-adv-x="591" 
d="M391 307c-33 -23 -74 -35 -123 -35c-71 0 -128 19 -171 58s-64 90 -64 154c0 67 23 121 70 160c47 40 108 60 182 60c176 0 272 -124 272 -321c0 -245 -149 -375 -446 -390l-23 23c200 33 292 124 303 291zM393 366c0 203 -34 305 -101 305c-60 0 -98 -69 -98 -185
c0 -111 40 -171 107 -171c40 0 71 17 92 51z" />
    <glyph glyph-name="colon" unicode=":" horiz-adv-x="210" 
d="M30 68c0 44 31 75 74 75c44 0 75 -31 75 -75c0 -43 -31 -73 -75 -73c-43 0 -74 30 -74 73zM30 410c0 44 31 75 74 75c44 0 75 -31 75 -75c0 -43 -31 -74 -75 -74c-43 0 -74 31 -74 74z" />
    <glyph glyph-name="semicolon" unicode=";" horiz-adv-x="210" 
d="M66 -122l-18 18c14 15 27 32 40 51s19 34 19 44c0 4 -1 7 -3 9c-44 0 -74 28 -74 72c0 43 30 71 74 71s75 -28 75 -79c0 -22 -7 -46 -21 -71c-27 -51 -49 -72 -92 -115zM30 410c0 44 31 75 74 75c44 0 75 -31 75 -75c0 -43 -31 -74 -75 -74c-43 0 -74 31 -74 74z" />
    <glyph glyph-name="less" unicode="&#x3c;" horiz-adv-x="452" 
d="M42 293l347 161l20 -43l-291 -136l291 -136l-20 -42l-347 161v35z" />
    <glyph glyph-name="equal" unicode="=" horiz-adv-x="452" 
d="M417 353h-382v48h382v-48zM417 199h-382v47h382v-47z" />
    <glyph glyph-name="greater" unicode="&#x3e;" horiz-adv-x="452" 
d="M334 275l-292 136l20 43l347 -161v-35l-347 -161l-20 42z" />
    <glyph glyph-name="question" unicode="?" horiz-adv-x="508" 
d="M264 212h-40c-19 83 -11 123 12 167c12 23 24 41 37 56c25 29 49 80 49 133c0 63 -30 102 -83 102c-22 0 -42 -7 -60 -20v-81c0 -48 -32 -80 -76 -80c-41 0 -74 28 -74 79c0 43 20 76 61 100s93 36 155 36c147 0 234 -64 234 -165c0 -159 -215 -175 -215 -327zM171 69
c0 43 32 74 75 74s74 -31 74 -74s-30 -74 -74 -74s-75 30 -75 74z" />
    <glyph glyph-name="at" unicode="@" horiz-adv-x="927" 
d="M794 -31l17 -16c-71 -71 -187 -117 -339 -117c-131 0 -233 32 -307 96s-111 152 -111 265c0 109 36 195 109 258s179 95 318 95c264 0 392 -121 392 -325c0 -153 -73 -230 -219 -230c-71 0 -113 18 -127 53l-3 2c-35 -37 -76 -55 -125 -55c-97 0 -151 81 -151 200
c0 145 78 217 233 217c40 0 77 -6 112 -17l57 19l16 -15v-332c0 -25 9 -38 28 -38c41 0 63 71 63 179c0 105 -21 182 -63 231c-42 50 -114 75 -215 75c-203 0 -305 -103 -305 -310c0 -216 114 -324 343 -324c125 0 218 30 277 89zM524 79v288c-15 10 -32 15 -51 15
c-54 0 -81 -58 -81 -173c0 -109 24 -163 71 -163c25 0 45 11 61 33z" />
    <glyph glyph-name="A" unicode="A" horiz-adv-x="774" 
d="M360 700h60l284 -649l65 -23v-28h-302v28l64 23l-69 163h-276l-71 -163l87 -23v-28h-197v28l67 23zM445 253l-120 281l-122 -281h242z" />
    <glyph glyph-name="B" unicode="B" horiz-adv-x="691" 
d="M17 676v24h348c77 0 140 -16 187 -48c48 -32 72 -75 72 -129c0 -81 -58 -139 -154 -163c112 -24 181 -87 181 -175c0 -57 -26 -102 -79 -135s-122 -50 -207 -50h-348v24l65 19v613zM252 339v-301h88c85 0 136 48 136 151c0 100 -45 150 -136 150h-88zM340 661h-88v-283
h88c73 0 110 47 110 141c0 95 -37 142 -110 142z" />
    <glyph glyph-name="C" unicode="C" horiz-adv-x="698" 
d="M638 124l23 -23c-72 -72 -162 -108 -269 -108c-108 0 -194 32 -257 95c-63 64 -95 150 -95 259c0 110 32 197 96 262s149 97 255 97c73 0 135 -14 187 -43l55 24l14 -13l8 -155h-36c-36 96 -102 144 -198 144c-135 0 -203 -102 -203 -306c0 -203 77 -305 232 -305
c77 0 140 24 188 72z" />
    <glyph glyph-name="D" unicode="D" horiz-adv-x="751" 
d="M17 676v24h343c105 0 190 -31 254 -94c65 -63 97 -148 97 -257c0 -108 -32 -193 -97 -256c-64 -62 -149 -93 -254 -93h-343v24l65 19v613zM360 661h-108v-623h108c107 0 172 99 172 312s-65 311 -172 311z" />
    <glyph glyph-name="E" unicode="E" horiz-adv-x="633" 
d="M252 340v-302h253l55 107h36l-7 -145h-572v24l65 19v613l-65 20v24h562l7 -145h-36l-55 106h-243v-282h188l25 81h34v-202h-34l-25 82h-188z" />
    <glyph glyph-name="F" unicode="F" horiz-adv-x="609" 
d="M450 257l-25 81h-173v-284l95 -26v-28h-330v29l65 26v601l-65 20v24h548l7 -145h-36l-54 106h-230v-284h173l25 81h33v-201h-33z" />
    <glyph glyph-name="G" unicode="G" horiz-adv-x="753" 
d="M735 317l-64 -26v-264l-17 -17l-75 27c-51 -29 -113 -44 -186 -44c-109 0 -195 32 -258 95c-63 64 -95 150 -95 259c0 110 32 197 97 262s150 97 257 97c73 0 135 -14 187 -43l56 24l13 -13l9 -155h-36c-37 96 -103 144 -200 144c-137 0 -205 -104 -205 -311
c0 -61 6 -113 18 -157c25 -88 87 -150 182 -150c33 0 61 7 83 20v228l-65 24v28h299v-28z" />
    <glyph glyph-name="H" unicode="H" horiz-adv-x="786" 
d="M17 0v29l65 26v593l-65 24v28h300v-28l-65 -25v-273h282v274l-65 24v28h300v-28l-65 -25v-596l65 -23v-28h-300v29l65 26v280h-282v-284l65 -23v-28h-300z" />
    <glyph glyph-name="I" unicode="I" horiz-adv-x="335" 
d="M315 672l-64 -25v-596l64 -23v-28h-297v29l65 26v593l-65 24v28h297v-28z" />
    <glyph glyph-name="J" unicode="J" horiz-adv-x="335" 
d="M84 16v632l-65 24v28h295v-28l-64 -25v-631c0 -100 -70 -183 -210 -248l-22 22c44 61 66 137 66 226z" />
    <glyph glyph-name="K" unicode="K" horiz-adv-x="732" 
d="M316 672l-65 -25v-296l288 297l-85 24v28h214v-28l-73 -24l-178 -185l244 -413l63 -22v-28h-221l-203 349l-49 -51v-247l65 -23v-28h-301v29l65 26v593l-65 24v28h301v-28z" />
    <glyph glyph-name="L" unicode="L" horiz-adv-x="603" 
d="M252 647v-609h222l53 107h37l-7 -145h-540v24l65 19v605l-65 24v28h300v-28z" />
    <glyph glyph-name="M" unicode="M" horiz-adv-x="966" 
d="M913 672l-64 -25l43 -596l64 -23v-28h-299v29l65 26l-35 486l-237 -541h-60l-240 542l-36 -501l64 -24v-17h-168v19l65 26l42 603l-64 24v28h201l230 -534l231 534h198v-28z" />
    <glyph glyph-name="N" unicode="N" horiz-adv-x="705" 
d="M17 0v19l65 26v603l-65 24v28h232l335 -467v426l-65 24v17h169v-17l-65 -26v-657h-61l-441 616v-575l65 -24v-17h-169z" />
    <glyph glyph-name="O" unicode="O" horiz-adv-x="767" 
d="M727 349c0 -109 -32 -195 -95 -260c-63 -64 -146 -96 -249 -96s-186 32 -249 96c-63 65 -94 151 -94 260s31 195 94 260s146 97 249 97s186 -32 249 -97c63 -64 95 -151 95 -260zM218 349c0 -217 64 -323 165 -323c103 0 166 106 166 323c0 219 -63 324 -166 324
c-101 0 -165 -105 -165 -324z" />
    <glyph glyph-name="P" unicode="P" horiz-adv-x="658" 
d="M323 661h-71v-607l101 -26v-28h-336v29l65 26v601l-65 20v24h323c83 0 151 -19 202 -56s77 -86 77 -149s-26 -112 -77 -149s-119 -55 -202 -55h-47l-17 17v21h47c75 0 121 53 121 166c0 111 -40 166 -121 166z" />
    <glyph glyph-name="Q" unicode="Q" horiz-adv-x="767" 
d="M765 -54l13 -13c-44 -44 -101 -66 -172 -66c-24 0 -47 2 -70 7c-22 4 -40 8 -54 13c-14 4 -31 12 -52 25c-21 12 -34 20 -41 25l-43 34c-23 17 -36 27 -39 30c-82 15 -147 53 -195 114c-48 62 -72 140 -72 234c0 109 31 195 94 260s146 97 249 97s186 -32 249 -97
c63 -64 95 -151 95 -260c0 -168 -85 -291 -221 -335c14 -7 35 -20 62 -37c56 -36 90 -52 133 -52c29 0 50 7 64 21zM218 349c0 -217 63 -318 166 -318c101 0 165 102 165 318c0 217 -64 324 -165 324c-103 0 -166 -105 -166 -324z" />
    <glyph glyph-name="R" unicode="R" horiz-adv-x="707" 
d="M620 507c0 -89 -61 -155 -166 -179c30 -11 57 -39 82 -86l100 -192l64 -22v-28h-216l-165 316h-67v-265l65 -23v-28h-300v29l65 26v601l-65 20v24h331c82 0 148 -17 197 -52c50 -35 75 -82 75 -141zM331 661h-79v-305h79c76 0 114 51 114 152c0 102 -38 153 -114 153z
" />
    <glyph glyph-name="S" unicode="S" horiz-adv-x="599" 
d="M64 5l-13 14l-9 156h37c9 -36 26 -66 49 -90c47 -47 94 -59 146 -59c84 0 142 44 142 131c0 33 -10 56 -31 71c-20 15 -60 33 -121 52l-48 16c-10 3 -25 9 -44 17s-33 15 -42 21c-19 13 -52 38 -64 62c-12 25 -24 61 -24 101c0 125 80 209 249 209c63 0 119 -13 170 -38
l41 26l13 -14l9 -156h-37c-13 53 -37 91 -70 114s-67 35 -104 35c-77 0 -126 -49 -126 -120c0 -33 7 -54 36 -73c15 -9 28 -17 41 -22l62 -22c34 -12 59 -21 76 -28s38 -17 62 -30s42 -27 53 -41c23 -27 43 -72 43 -128c0 -133 -86 -216 -274 -216c-68 0 -128 13 -181 38z
" />
    <glyph glyph-name="T" unicode="T" horiz-adv-x="684" 
d="M626 555l-54 106h-144v-610l65 -23v-28h-300v29l65 26v606h-145l-54 -109h-37l8 148h626l6 -145h-36z" />
    <glyph glyph-name="U" unicode="U" horiz-adv-x="737" 
d="M720 683l-65 -26v-395c0 -83 -26 -148 -79 -197c-52 -48 -121 -72 -207 -72s-155 24 -208 73s-79 114 -79 196v386l-65 24v28h300v-28l-65 -25v-385c0 -133 73 -200 182 -200c112 0 186 71 186 200v397l-65 24v17h165v-17z" />
    <glyph glyph-name="V" unicode="V" horiz-adv-x="774" 
d="M416 0h-61l-286 648l-64 24v28h303v-28l-66 -24l207 -482l209 482l-86 24v28h197v-28l-68 -24z" />
    <glyph glyph-name="W" unicode="W" horiz-adv-x="1208" 
d="M858 0h-60l-198 463l-192 -463h-60l-279 648l-64 24v28h303v-28l-66 -24l200 -482l137 345l-60 137l-64 24v28h302v-28l-65 -24l201 -482l199 482l-86 24v28h197v-28l-68 -24z" />
    <glyph glyph-name="X" unicode="X" horiz-adv-x="748" 
d="M432 28l65 22l-178 257l-188 -257l78 -22v-28h-198v28l73 22l213 288l-217 312l-61 22v28h305v-28l-65 -22l163 -238l167 238l-79 22v28h199v-28l-73 -22l-192 -268l232 -332l61 -22v-28h-305v28z" />
    <glyph glyph-name="Y" unicode="Y" horiz-adv-x="720" 
d="M311 672l-65 -22l174 -304l177 304l-78 22v28h197v-28l-74 -22l-205 -349v-250l65 -23v-28h-300v29l65 26v245l-202 350l-60 22v28h306v-28z" />
    <glyph glyph-name="Z" unicode="Z" horiz-adv-x="625" 
d="M590 0h-555v24l370 637h-271l-56 -109h-36l6 148h541v-25l-371 -637h287l56 112h36z" />
    <glyph glyph-name="bracketleft" unicode="[" horiz-adv-x="328" 
d="M306 722l-104 -24v-847l104 -23v-28h-249v950h249v-28z" />
    <glyph glyph-name="backslash" unicode="\" horiz-adv-x="361" 
d="M52 750l308 -850h-51l-308 850h51z" />
    <glyph glyph-name="bracketright" unicode="]" horiz-adv-x="328" 
d="M22 -172l104 23v847l-104 24v28h249v-950h-249v28z" />
    <glyph glyph-name="asciicircum" unicode="^" horiz-adv-x="405" 
d="M26 494l166 211h21l165 -211l-18 -18l-158 118l-157 -118z" />
    <glyph glyph-name="underscore" unicode="_" horiz-adv-x="635" 
d="M634 -98h-633v48h633v-48z" />
    <glyph glyph-name="grave" unicode="`" horiz-adv-x="293" 
d="M30 616l89 91l145 -170l-19 -18z" />
    <glyph glyph-name="a" unicode="a" horiz-adv-x="566" 
d="M328 55l-3 3c-46 -43 -102 -64 -167 -64c-81 0 -122 37 -122 112c0 41 16 71 43 91c13 11 32 20 57 28c49 17 98 29 183 46c3 1 5 1 6 1v88c0 60 -24 90 -73 90c-15 0 -33 -5 -53 -14v-67c0 -48 -30 -79 -73 -79c-41 0 -74 28 -74 73c0 39 20 68 60 89
c41 21 91 32 151 32c143 0 225 -57 225 -144v-279c0 -14 6 -21 19 -21c11 0 21 4 30 12l12 -12c-29 -29 -75 -43 -138 -43c-49 0 -75 13 -83 58zM325 93v146c-19 -4 -32 -7 -38 -9c-12 -3 -47 -11 -55 -18c-7 -5 -27 -17 -31 -32c-4 -13 -9 -33 -9 -58c0 -47 17 -70 52 -70
c30 0 57 14 81 41z" />
    <glyph glyph-name="b" unicode="b" horiz-adv-x="598" 
d="M77 29v643l-60 20v28l206 24l17 -18v-246l-3 -56l3 -3c40 42 90 63 149 63c113 0 176 -95 176 -236c0 -169 -94 -253 -281 -253c-83 0 -152 11 -207 34zM240 386v-343c21 -11 42 -16 62 -16c66 0 99 69 99 206c0 61 -8 108 -23 142s-36 51 -64 51s-53 -13 -74 -40z" />
    <glyph glyph-name="c" unicode="c" horiz-adv-x="541" 
d="M352 359v77c-17 9 -35 14 -54 14c-68 0 -102 -63 -102 -190c0 -141 45 -212 146 -212c51 0 94 17 129 52l22 -21c-55 -56 -124 -84 -208 -84c-157 0 -253 93 -253 245s93 244 261 244c57 0 106 -11 147 -33c41 -21 62 -53 62 -95c0 -48 -32 -76 -75 -76
c-44 0 -75 31 -75 79z" />
    <glyph glyph-name="d" unicode="d" horiz-adv-x="598" 
d="M520 726v-662l56 -23v-31l-202 -17l-17 17l3 45l-3 3c-40 -42 -89 -63 -148 -63c-115 0 -177 95 -177 235c0 163 87 254 239 254c33 0 61 -6 86 -17v205l-60 20v28l206 24zM357 93v338c-19 13 -40 19 -63 19c-65 0 -98 -69 -98 -206c0 -119 31 -191 87 -191
c29 0 53 13 74 40z" />
    <glyph glyph-name="e" unicode="e" horiz-adv-x="543" 
d="M502 259l-18 -17h-288c3 -132 46 -193 150 -193c53 0 96 17 130 51l22 -21c-56 -56 -126 -84 -209 -84c-80 0 -143 22 -189 66c-45 44 -68 103 -68 176c0 76 23 136 70 180c47 45 108 67 181 67c65 0 119 -17 161 -52s63 -79 63 -133c0 -17 -2 -30 -5 -40zM289 450
c-51 0 -89 -62 -93 -177l166 15c0 108 -24 162 -73 162z" />
    <glyph glyph-name="f" unicode="f" horiz-adv-x="409" 
d="M17 468l60 20v70c0 112 72 181 212 181c47 0 87 -9 119 -27s48 -44 48 -79c0 -41 -27 -67 -64 -67c-40 0 -72 32 -72 77v56c-7 5 -16 8 -27 8c-35 0 -53 -49 -53 -147v-80h156v-39h-156v-389l92 -24v-28h-315v29l60 25v387h-60v27z" />
    <glyph glyph-name="g" unicode="g" horiz-adv-x="572" 
d="M536 452l-62 -22h-29c32 -27 48 -61 48 -103c0 -47 -21 -85 -62 -113c-41 -27 -94 -41 -161 -41c-48 0 -90 7 -127 22c-12 -15 -18 -30 -18 -44c0 -29 19 -43 57 -43h150c137 0 205 -51 205 -153c0 -123 -100 -184 -300 -184c-143 0 -214 30 -214 89c0 43 38 83 102 106
c-51 17 -76 53 -76 110c0 53 22 89 67 133c-47 27 -70 66 -70 118c0 95 89 156 224 156c16 0 32 -1 47 -3h219v-28zM355 -43h-176c-16 -21 -24 -43 -24 -68c0 -55 39 -83 116 -83c97 0 163 37 163 90c0 35 -26 61 -79 61zM270 203c45 0 68 42 68 125s-23 125 -68 125
c-47 0 -70 -42 -70 -125s23 -125 70 -125z" />
    <glyph glyph-name="h" unicode="h" horiz-adv-x="643" 
d="M240 383v-333l49 -22v-28h-272v29l60 25v618l-60 20v28l206 24l17 -18v-246l-3 -59l3 -3c41 40 106 66 166 66c51 0 90 -17 117 -50c28 -33 42 -74 42 -123v-261l60 -22v-28h-272v29l49 25v241c0 79 -23 131 -71 131c-34 0 -64 -14 -91 -43z" />
    <glyph glyph-name="i" unicode="i" horiz-adv-x="318" 
d="M300 0h-283v29l60 25v359l-56 20v32l202 24l17 -18v-421l60 -22v-28zM85 555c-17 17 -26 40 -26 67s9 50 26 67c18 17 41 26 68 26s50 -9 67 -26s26 -40 26 -67s-9 -50 -26 -67s-40 -26 -67 -26s-50 9 -68 26z" />
    <glyph glyph-name="j" unicode="j" horiz-adv-x="318" 
d="M77 16v397l-56 20v32l202 24l17 -18v-455c0 -100 -68 -183 -205 -248l-22 22c43 59 64 135 64 226zM85 555c-17 17 -26 40 -26 67s9 50 26 67c18 17 41 26 68 26s50 -9 67 -26s26 -40 26 -67s-9 -50 -26 -67s-40 -26 -67 -26s-50 9 -68 26z" />
    <glyph glyph-name="k" unicode="k" horiz-adv-x="605" 
d="M599 0h-198l-124 226l-37 -37v-139l60 -22v-28h-283v29l60 25v618l-60 20v28l206 24l17 -18v-484l195 188l-80 22v28h204v-28l-67 -22l-103 -99l152 -282l58 -21v-28z" />
    <glyph glyph-name="l" unicode="l" horiz-adv-x="318" 
d="M300 0h-283v29l60 25v618l-60 20v28l206 24l17 -18v-676l60 -22v-28z" />
    <glyph glyph-name="m" unicode="m" horiz-adv-x="921" 
d="M240 382v-332l44 -22v-28h-267v29l60 25v359l-56 20v32l202 24l17 -18l-3 -50l3 -3c40 41 105 66 158 66c55 0 95 -24 120 -72c47 44 120 72 180 72c96 0 145 -74 145 -173v-261l60 -22v-28h-267v29l44 25v241c0 87 -22 131 -66 131c-31 0 -59 -13 -85 -39
c9 -23 13 -49 13 -76v-261l44 -22v-28h-251v29l43 25v241c0 87 -21 131 -62 131c-29 0 -54 -15 -76 -44z" />
    <glyph glyph-name="n" unicode="n" horiz-adv-x="643" 
d="M240 383v-333l49 -22v-28h-272v29l60 25v359l-56 20v32l202 24l17 -18l-3 -50l3 -3c43 41 112 66 172 66c49 0 87 -17 113 -50c27 -33 40 -74 40 -123v-261l60 -22v-28h-272v29l49 25v241c0 79 -24 131 -72 131c-33 0 -63 -14 -90 -43z" />
    <glyph glyph-name="o" unicode="o" horiz-adv-x="570" 
d="M101 61c-46 44 -69 103 -69 178s23 134 69 178c47 45 108 67 184 67s137 -22 183 -67c47 -44 70 -103 70 -178s-23 -134 -70 -178c-46 -44 -107 -66 -183 -66s-137 22 -184 66zM285 29c59 0 88 70 88 210c0 141 -29 211 -88 211c-55 0 -89 -68 -89 -211s34 -210 89 -210z
" />
    <glyph glyph-name="p" unicode="p" horiz-adv-x="598" 
d="M332 -225h-315v29l60 25v584l-56 20v32l202 24l17 -18l-3 -47l3 -3c40 42 90 63 149 63c113 0 176 -95 176 -235c0 -163 -86 -254 -237 -254c-34 0 -63 6 -88 17v-185l92 -24v-28zM240 386v-339c19 -13 40 -20 63 -20c65 0 98 69 98 207c0 60 -8 107 -23 141
s-36 51 -64 51s-53 -13 -74 -40z" />
    <glyph glyph-name="q" unicode="q" horiz-adv-x="584" 
d="M520 471v-642l60 -25v-29h-283v28l60 22v175l3 55l-3 3c-40 -42 -89 -63 -148 -63c-115 0 -177 95 -177 235c0 169 92 254 277 254c45 0 88 -6 128 -19l66 24zM357 93v339c-21 12 -41 18 -62 18c-66 0 -99 -68 -99 -205c0 -120 31 -192 87 -192c29 0 53 13 74 40z" />
    <glyph glyph-name="r" unicode="r" horiz-adv-x="511" 
d="M17 29l60 25v359l-56 20v32l202 24l17 -19l-3 -66l3 -3c1 1 37 82 124 83c65 0 121 -44 121 -115c0 -55 -31 -81 -74 -81c-47 0 -77 31 -77 80v70c-3 2 -8 3 -13 3c-28 0 -58 -38 -71 -69l-10 -23v-297l92 -24v-28h-315v29z" />
    <glyph glyph-name="s" unicode="s" horiz-adv-x="449" 
d="M51 3l-12 12v118h40c19 -69 61 -104 127 -104c56 0 93 26 93 74c0 20 -7 34 -21 42c-13 8 -39 17 -78 28l-31 9l-28 9c-15 5 -24 9 -29 12l-24 14c-21 13 -26 25 -38 44s-15 41 -15 69c0 95 59 154 188 154c50 0 94 -8 133 -25l21 16l12 -12v-114h-40
c-20 67 -58 101 -114 101c-51 0 -81 -28 -81 -69c0 -37 22 -48 87 -68l55 -18c12 -4 27 -11 46 -21c51 -26 69 -58 75 -125c0 -103 -69 -154 -208 -154c-52 0 -98 8 -138 24z" />
    <glyph glyph-name="t" unicode="t" horiz-adv-x="412" 
d="M77 441h-59v19c79 27 148 74 205 141l17 -17v-104h139v-39h-139v-302c0 -61 24 -91 71 -91c27 0 49 8 65 25l18 -18c-39 -40 -90 -60 -153 -60c-103 0 -164 57 -164 144v302z" />
    <glyph glyph-name="u" unicode="u" horiz-adv-x="637" 
d="M560 471v-407l56 -23v-31l-202 -17l-17 17l3 52l-3 3c-45 -47 -102 -70 -169 -70c-96 0 -151 64 -151 145v273l-56 20v32l202 24l17 -18v-318c0 -60 23 -100 67 -100c35 0 65 16 90 48v312l-56 20v32l202 24z" />
    <glyph glyph-name="v" unicode="v" horiz-adv-x="588" 
d="M319 0h-53l-200 430l-60 22v28h285v-28l-59 -22l122 -266l122 266l-81 22v28h187v-28l-63 -22z" />
    <glyph glyph-name="w" unicode="w" horiz-adv-x="898" 
d="M642 0h-61l-126 295l-134 -295h-60l-195 430l-60 22v28h276v-28l-54 -22l121 -281l86 192l-38 89l-54 22v28h275v-28l-59 -22l109 -281l117 281l-81 22v28h187v-28l-62 -22z" />
    <glyph glyph-name="x" unicode="x" horiz-adv-x="590" 
d="M290 28l59 22l-107 146l-112 -146l75 -22v-28h-189v28l68 22l136 175l-150 205l-51 22v28h282v-28l-58 -22l99 -137l106 137l-76 22v28h189v-28l-67 -22l-130 -167l157 -213l51 -22v-28h-282v28z" />
    <glyph glyph-name="y" unicode="y" horiz-adv-x="589" 
d="M272 -13l-206 443l-60 22v28h285v-28l-59 -22l122 -266l122 266l-81 22v28h188v-28l-63 -22l-199 -430c-19 -40 -32 -69 -41 -86l-33 -61c-13 -23 -25 -39 -35 -48c-19 -19 -46 -34 -78 -34c-53 0 -98 27 -98 86c0 45 28 70 67 70c41 0 68 -26 68 -67v-29c2 -1 5 -1 8 -1
c10 0 21 11 34 33s32 63 59 124z" />
    <glyph glyph-name="z" unicode="z" horiz-adv-x="493" 
d="M458 0h-426v24l253 420h-169l-38 -95h-36v131h413v-25l-253 -420h182l38 96h36v-131z" />
    <glyph glyph-name="braceleft" unicode="{" horiz-adv-x="357" 
d="M120 276c83 -32 134 -115 134 -230c0 -143 25 -214 74 -214v-33c-67 0 -121 23 -162 68s-62 105 -62 181c0 141 -25 212 -74 212v33c49 0 74 71 74 213c0 76 21 136 62 181s95 68 162 68v-34c-49 0 -74 -71 -74 -213c0 -115 -51 -200 -134 -232z" />
    <glyph glyph-name="bar" unicode="|" horiz-adv-x="201" 
d="M124 750v-975h-47v975h47z" />
    <glyph glyph-name="braceright" unicode="}" horiz-adv-x="357" 
d="M239 276c-84 32 -135 116 -135 232c0 142 -25 213 -74 213v34c67 0 121 -23 162 -68s62 -105 62 -181c0 -144 29 -213 74 -213v-33c-49 0 -74 -71 -74 -212c0 -76 -21 -136 -62 -181s-95 -68 -162 -68v33c49 0 74 71 74 214c0 115 51 198 135 230z" />
    <glyph glyph-name="asciitilde" unicode="~" horiz-adv-x="517" 
d="M51 225l-20 21c85 86 144 129 177 129c15 0 38 -9 70 -27s57 -27 74 -27c32 0 81 22 113 54l21 -21c-87 -87 -148 -131 -183 -131c-13 0 -37 9 -70 27s-58 27 -76 27c-36 0 -71 -17 -106 -52z" />
    <glyph glyph-name="exclamdown" unicode="&#xa1;" horiz-adv-x="231" 
d="M96 480h40c11 -119 21 -217 32 -295c11 -77 18 -129 23 -154s8 -43 8 -52c0 -48 -35 -83 -84 -83c-48 0 -83 35 -83 84c0 9 2 27 7 52c11 51 34 212 57 448zM41 614c0 43 31 74 74 74c44 0 75 -31 75 -74c0 -44 -30 -75 -75 -75c-43 0 -74 31 -74 75z" />
    <glyph glyph-name="cent" unicode="&#xa2;" horiz-adv-x="541" 
d="M303 -4v-46h-35v45c-148 5 -236 98 -236 245c0 143 84 234 236 243v47h35v-46c55 -1 102 -13 141 -35c39 -21 58 -52 58 -93c0 -48 -32 -76 -75 -76c-44 0 -75 31 -75 79v77c-15 8 -32 13 -49 14v-398c11 -3 24 -4 39 -4c51 0 94 17 129 52l22 -21
c-51 -51 -114 -79 -190 -83zM196 260c0 -101 24 -166 72 -194v378c-48 -18 -72 -79 -72 -184z" />
    <glyph glyph-name="sterling" unicode="&#xa3;" horiz-adv-x="598" 
d="M77 334h-59v23l59 15v101c0 143 90 231 250 231c57 0 105 -11 145 -33c40 -21 60 -53 60 -94c0 -49 -31 -77 -74 -77c-44 0 -76 31 -76 79v77c-15 9 -31 14 -49 14c-62 0 -93 -59 -93 -177v-121h178v-38h-178c0 -68 -20 -140 -61 -216c23 11 42 17 59 17
c18 0 47 -9 86 -27c39 -17 70 -26 91 -26c39 0 100 22 139 54l21 -21c-107 -87 -182 -131 -223 -131c-17 0 -46 9 -87 27c-40 19 -71 28 -93 28c-43 0 -86 -18 -129 -53l-21 20l55 44v284z" />
    <glyph glyph-name="currency" unicode="&#xa4;" horiz-adv-x="500" 
d="M80 300c0 42 10 77 30 105l-66 66l34 34l65 -66c29 23 64 34 107 34c41 0 76 -11 107 -33l64 65l34 -34l-65 -64c21 -29 32 -65 32 -107c0 -43 -11 -78 -33 -107l66 -65l-34 -34l-66 67c-29 -22 -64 -33 -105 -33s-77 11 -106 33l-66 -67l-34 34l67 67
c-21 29 -31 64 -31 105zM129 300c0 -73 49 -122 121 -122c73 0 121 49 121 122c0 75 -48 125 -121 125c-72 0 -121 -50 -121 -125z" />
    <glyph glyph-name="yen" unicode="&#xa5;" horiz-adv-x="720" 
d="M267 232h-106v48h106v20l-202 350l-60 22v28h306v-28l-65 -22l174 -304l177 304l-78 22v28h197v-28l-74 -22l-205 -349v-21h107v-48h-107v-70h107v-47h-107v-64l65 -23v-28h-300v29l65 26v60h-106v47h106v70z" />
    <glyph glyph-name="brokenbar" unicode="&#xa6;" horiz-adv-x="201" 
d="M77 750h47v-438h-47v438zM124 212v-437h-47v437h47z" />
    <glyph glyph-name="section" unicode="&#xa7;" horiz-adv-x="508" 
d="M97 430c-43 29 -65 66 -65 112c0 99 86 162 231 162c61 0 112 -12 152 -36c41 -24 61 -57 61 -100c0 -51 -32 -79 -75 -79c-44 0 -76 32 -76 80v81c-17 13 -36 20 -57 20c-55 0 -86 -42 -86 -95c0 -60 45 -103 101 -128c83 -35 186 -69 186 -157c0 -43 -19 -83 -57 -120
c45 -30 67 -68 67 -113c0 -99 -88 -162 -235 -162c-62 0 -113 12 -154 36s-61 57 -61 100c0 51 33 79 74 79c44 0 76 -32 76 -80v-81c19 -14 39 -21 60 -21c56 0 90 43 90 98c0 59 -46 100 -103 124c-81 37 -187 68 -187 156c0 45 19 86 58 124zM367 191c10 17 15 34 15 51
c0 41 -41 76 -84 95c-21 9 -48 21 -81 34c-33 14 -59 26 -77 36c-10 -17 -15 -35 -15 -52c0 -41 42 -76 85 -95c22 -9 49 -21 82 -34s58 -25 75 -35z" />
    <glyph glyph-name="dieresis" unicode="&#xa8;" horiz-adv-x="344" 
d="M1 553c-15 15 -22 35 -22 58s7 42 22 57s35 22 58 22s42 -7 57 -22s22 -34 22 -57s-7 -43 -22 -58s-34 -22 -57 -22s-43 7 -58 22zM229 553c-15 15 -22 35 -22 58s7 42 22 57s35 22 58 22s42 -7 57 -22s22 -34 22 -57s-7 -43 -22 -58s-34 -22 -57 -22s-43 7 -58 22z" />
    <glyph glyph-name="copyright" unicode="&#xa9;" horiz-adv-x="782" 
d="M140 99c-69 69 -104 153 -104 251s35 182 104 251s153 104 251 104s182 -35 251 -104s104 -153 104 -251s-35 -182 -104 -251s-153 -104 -251 -104s-182 35 -251 104zM177 564c-59 -59 -89 -131 -89 -214s30 -155 89 -214s131 -89 214 -89s155 30 214 89s89 131 89 214
s-30 155 -89 214s-131 89 -214 89s-155 -30 -214 -89zM520 240l12 -12c-38 -37 -83 -55 -136 -55c-108 0 -177 68 -177 177s72 180 177 180c35 0 65 -7 92 -20l29 12l7 -8l5 -79h-20c-18 47 -50 71 -97 71c-64 0 -96 -50 -96 -151s37 -151 112 -151c38 0 69 12 92 36z" />
    <glyph glyph-name="ordfeminine" unicode="&#xaa;" horiz-adv-x="296" 
d="M167 488l-2 2c-23 -22 -51 -33 -82 -33c-41 0 -61 19 -61 56c0 28 13 40 34 53c5 3 15 7 29 11l34 9l46 10v44c0 29 -11 44 -34 44c-5 0 -12 -2 -23 -6v-33c0 -55 -78 -54 -78 -4c0 40 47 61 107 61c75 0 117 -28 117 -72v-139c0 -7 3 -10 9 -10c4 0 9 2 14 6l7 -6
c-15 -15 -40 -22 -74 -22c-25 0 -39 6 -43 29zM165 508v71c-27 -7 -33 -8 -45 -16s-14 -20 -14 -41c0 -23 8 -34 23 -34c13 0 25 7 36 20z" />
    <glyph glyph-name="guillemotleft" unicode="&#xab;" horiz-adv-x="429" 
d="M211 96l-189 163v21l189 163l19 -19l-97 -155l97 -154zM378 96l-188 163v21l188 163l19 -19l-97 -155l97 -154z" />
    <glyph glyph-name="logicalnot" unicode="&#xac;" horiz-adv-x="502" 
d="M420 326h-385v47h432v-147h-47v100z" />
    <glyph glyph-name="uni00AD" unicode="&#xad;" horiz-adv-x="303" 
d="M269 276h-234v47h234v-47z" />
    <glyph glyph-name="registered" unicode="&#xae;" horiz-adv-x="782" 
d="M140 99c-69 69 -104 153 -104 251s35 182 104 251s153 104 251 104s182 -35 251 -104s104 -153 104 -251s-35 -182 -104 -251s-153 -104 -251 -104s-182 35 -251 104zM177 564c-59 -59 -89 -131 -89 -214s30 -155 89 -214s131 -89 214 -89s155 30 214 89s89 131 89 214
s-30 155 -89 214s-131 89 -214 89s-155 -30 -214 -89zM539 438c0 -46 -27 -75 -82 -88c16 -5 30 -20 42 -45l47 -94l33 -11v-15h-115l-80 158h-28v-131l32 -12v-15h-158v16l33 13v298l-33 10v13h170c83 0 139 -37 139 -97zM391 514h-35v-151h35c35 0 53 25 53 76
c0 50 -18 75 -53 75z" />
    <glyph glyph-name="overscore" unicode="&#xaf;" horiz-adv-x="303" 
d="M290 570h-277v50h277v-50z" />
    <glyph glyph-name="degree" unicode="&#xb0;" horiz-adv-x="255" 
d="M126 705c60 0 100 -40 100 -99s-40 -99 -100 -99c-57 0 -97 40 -97 99s40 99 97 99zM92 646c-17 -20 -17 -60 0 -81c17 -20 53 -20 70 0c17 21 17 61 0 81c-17 21 -53 21 -70 0z" />
    <glyph glyph-name="plusminus" unicode="&#xb1;" horiz-adv-x="452" 
d="M202 326h-167v47h167v168h47v-168h168v-47h-168v-168h-47v168zM417 51h-382v48h382v-48z" />
    <glyph glyph-name="twosuperior" unicode="&#xb2;" horiz-adv-x="283" 
d="M259 350h-239v34c53 51 92 93 116 127s36 72 36 115c0 39 -14 59 -41 59c-10 0 -21 -4 -33 -12v-42c0 -25 -16 -42 -40 -42c-23 0 -39 14 -39 41c0 45 48 72 116 72c77 0 122 -31 122 -90c0 -25 -9 -51 -28 -77s-39 -47 -60 -64s-51 -38 -88 -63h140l22 49h19z" />
    <glyph glyph-name="threesuperior" unicode="&#xb3;" horiz-adv-x="312" 
d="M111 673v-41c0 -25 -17 -42 -41 -42c-23 0 -40 14 -40 41c0 48 58 72 122 72c75 0 123 -34 123 -89c0 -42 -25 -69 -75 -81c59 -14 88 -44 88 -90c0 -59 -54 -97 -135 -97c-67 0 -125 25 -125 73c0 25 16 41 39 41c24 0 41 -17 41 -42v-43c9 -5 19 -7 30 -7
c36 0 61 24 61 77c0 51 -26 77 -77 77h-23v20h21c44 0 66 18 66 69c0 47 -16 71 -47 71c-12 0 -21 -3 -28 -9z" />
    <glyph glyph-name="acute" unicode="&#xb4;" horiz-adv-x="293" 
d="M48 519l-18 18l144 170l90 -91z" />
    <glyph glyph-name="mu" unicode="&#xb5;" horiz-adv-x="637" 
d="M77 -88v501l-56 20v32l202 24l17 -18v-318c0 -60 23 -100 67 -100c35 0 65 16 90 48v312l-56 20v32l202 24l17 -18v-407l56 -23v-31l-202 -17l-17 17l3 52l-3 3c-37 -44 -96 -70 -151 -70c-28 0 -52 8 -72 25c18 -55 39 -99 36 -109c0 -39 -27 -67 -66 -67s-67 28 -67 68
z" />
    <glyph glyph-name="paragraph" unicode="&#xb6;" horiz-adv-x="522" 
d="M332 51v155c-87 0 -158 22 -212 66c-53 45 -80 105 -80 181c0 75 27 135 80 180c54 45 125 67 212 67h173v-28l-60 -24v-597c0 -115 -68 -209 -205 -283l-22 22c76 68 114 155 114 261z" />
    <glyph glyph-name="middot" unicode="&#xb7;" horiz-adv-x="210" 
d="M30 290c0 44 31 75 74 75c44 0 75 -31 75 -75c0 -43 -31 -74 -75 -74c-43 0 -74 31 -74 74z" />
    <glyph glyph-name="cedilla" unicode="&#xb8;" horiz-adv-x="183" 
d="M17 -120l66 120h27l-21 -41c48 0 83 -17 83 -52c0 -31 -36 -79 -107 -145l-11 11c29 29 43 53 43 73c0 23 -27 34 -80 34z" />
    <glyph glyph-name="onesuperior" unicode="&#xb9;" horiz-adv-x="218" 
d="M199 350h-176v16l44 12v285h-46v18l126 23l9 -8v-320l43 -11v-15z" />
    <glyph glyph-name="ordmasculine" unicode="&#xba;" horiz-adv-x="295" 
d="M148 458c-76 0 -128 47 -128 122s52 122 128 122s127 -47 127 -122s-50 -122 -127 -122zM148 475c25 0 38 35 38 105s-13 105 -38 105c-26 0 -39 -35 -39 -105s13 -105 39 -105z" />
    <glyph glyph-name="guillemotright" unicode="&#xbb;" horiz-adv-x="429" 
d="M218 443l189 -163v-21l-189 -163l-18 19l96 155l-96 154zM51 443l189 -163v-21l-189 -163l-19 19l97 155l-97 154z" />
    <glyph glyph-name="onequarter" unicode="&#xbc;" horiz-adv-x="613" 
d="M585 0h-146v16l30 12v47h-145v13c57 104 84 175 84 262h89c0 -92 -50 -163 -145 -255h117v72l77 77l9 -8v-141h34v-20h-34v-49l30 -11v-15zM483 700l-308 -700h-51l308 700h51zM199 350h-176v16l44 12v285h-46v18l126 23l9 -8v-320l43 -11v-15z" />
    <glyph glyph-name="onehalf" unicode="&#xbd;" horiz-adv-x="657" 
d="M199 350h-176v16l44 12v285h-46v18l126 23l9 -8v-320l43 -11v-15zM483 700l-308 -700h-51l308 700h51zM623 0h-240v34c54 50 93 92 117 126c24 35 36 73 36 116c0 39 -14 59 -41 59c-11 0 -22 -4 -33 -12v-42c0 -25 -16 -42 -40 -42c-23 0 -40 14 -40 41
c0 45 49 72 117 72c77 0 122 -31 122 -90c0 -25 -9 -51 -28 -77s-39 -47 -60 -64s-51 -38 -88 -63h139l23 49h19z" />
    <glyph glyph-name="threequarters" unicode="&#xbe;" horiz-adv-x="670" 
d="M111 673v-41c0 -25 -17 -42 -41 -42c-23 0 -40 14 -40 41c0 48 58 72 122 72c75 0 123 -34 123 -89c0 -42 -25 -69 -75 -81c59 -14 88 -44 88 -90c0 -59 -54 -97 -135 -97c-67 0 -125 25 -125 73c0 25 16 41 39 41c24 0 41 -17 41 -42v-43c9 -5 19 -7 30 -7
c36 0 61 24 61 77c0 51 -26 77 -77 77h-23v20h21c44 0 66 18 66 69c0 47 -16 71 -47 71c-12 0 -21 -3 -28 -9zM641 0h-147v16l30 12v47h-144v13c57 104 84 175 84 262h88c0 -92 -51 -163 -144 -255h116v72l78 77l9 -8v-141h34v-20h-34v-49l30 -11v-15zM539 700l-308 -700
h-51l308 700h51z" />
    <glyph glyph-name="questiondown" unicode="&#xbf;" horiz-adv-x="508" 
d="M243 480h40c9 -50 13 -89 10 -118s-10 -56 -22 -83c-11 -26 -23 -48 -36 -66c-25 -36 -49 -96 -49 -160c0 -75 30 -122 83 -122c23 0 42 7 59 20v81c0 48 32 80 76 80s75 -27 75 -78c0 -43 -21 -76 -62 -100c-41 -25 -92 -37 -154 -37c-147 0 -234 75 -234 196
c0 94 53 146 107 195l51 52c32 32 56 83 56 140zM262 539c-43 0 -74 31 -74 75c0 21 7 39 20 53c28 28 80 28 108 0c14 -13 21 -31 21 -53c0 -44 -31 -75 -75 -75z" />
    <glyph glyph-name="Agrave" unicode="&#xc0;" horiz-adv-x="774" 
d="M360 700h60l284 -649l65 -23v-28h-302v28l64 23l-69 163h-276l-71 -163l87 -23v-28h-197v28l67 23zM445 253l-120 281l-122 -281h242zM251 832l89 90l145 -169l-19 -18z" />
    <glyph glyph-name="Aacute" unicode="&#xc1;" horiz-adv-x="774" 
d="M360 700h60l284 -649l65 -23v-28h-302v28l64 23l-69 163h-276l-71 -163l87 -23v-28h-197v28l67 23zM445 253l-120 281l-122 -281h242zM309 735l-18 18l144 169l90 -90z" />
    <glyph glyph-name="Acircumflex" unicode="&#xc2;" horiz-adv-x="774" 
d="M360 700h60l284 -649l65 -23v-28h-302v28l64 23l-69 163h-276l-71 -163l87 -23v-28h-197v28l67 23zM445 253l-120 281l-122 -281h242zM234 753l143 169h21l143 -169l-19 -18l-134 76l-135 -76z" />
    <glyph glyph-name="Atilde" unicode="&#xc3;" horiz-adv-x="774" 
d="M360 700h60l284 -649l65 -23v-28h-302v28l64 23l-69 163h-276l-71 -163l87 -23v-28h-197v28l67 23zM445 253l-120 281l-122 -281h242zM216 762l-18 20c70 71 120 107 149 107c13 0 33 -8 58 -23s46 -23 62 -23c27 0 67 18 94 45l19 -18c-73 -73 -125 -110 -154 -110
c-13 0 -33 8 -59 23c-25 16 -46 24 -63 24c-29 0 -58 -15 -88 -45z" />
    <glyph glyph-name="Adieresis" unicode="&#xc4;" horiz-adv-x="774" 
d="M360 700h60l284 -649l65 -23v-28h-302v28l64 23l-69 163h-276l-71 -163l87 -23v-28h-197v28l67 23zM445 253l-120 281l-122 -281h242zM216 769c-29 29 -29 85 0 114c15 15 35 22 58 22s42 -7 57 -22c29 -29 29 -85 0 -114c-15 -15 -34 -22 -57 -22s-43 7 -58 22zM444 769
c-29 29 -29 85 0 114c15 15 35 22 58 22s42 -7 57 -22c29 -29 29 -85 0 -114c-15 -15 -34 -22 -57 -22s-43 7 -58 22z" />
    <glyph glyph-name="Aring" unicode="&#xc5;" horiz-adv-x="774" 
d="M360 700h60l284 -649l65 -23v-28h-302v28l64 23l-69 163h-276l-71 -163l87 -23v-28h-197v28l67 23zM445 253l-120 281l-122 -281h242zM300 818c0 51 35 84 87 84c53 0 89 -33 89 -84c0 -52 -36 -84 -89 -84c-52 0 -87 32 -87 84zM387 764c20 0 33 21 33 54
c0 32 -13 53 -33 53c-19 0 -33 -21 -33 -53s14 -54 33 -54z" />
    <glyph glyph-name="AE" unicode="&#xc6;" horiz-adv-x="835" 
d="M331 24l64 19l-25 171h-184l-71 -163l87 -23v-28h-197v28l67 23l286 649h423l7 -145h-37l-54 106h-234l42 -282h138l25 81h33v-202h-33l-25 82h-134l45 -302h154l54 107h36l-7 -145h-460v24zM365 253l-41 281l-121 -281h162z" />
    <glyph glyph-name="Ccedilla" unicode="&#xc7;" horiz-adv-x="698" 
d="M317 -120l62 114c-104 3 -187 36 -248 99s-91 148 -91 254c0 110 32 197 96 262s149 97 255 97c73 0 135 -14 187 -43l55 24l14 -13l8 -155h-36c-36 96 -102 144 -198 144c-135 0 -203 -102 -203 -306c0 -203 77 -305 232 -305c77 0 140 24 188 72l23 -23
c-69 -69 -154 -104 -255 -107l-17 -35c48 0 84 -17 84 -52c0 -31 -36 -79 -108 -145l-10 11c28 28 42 52 42 73c0 23 -27 34 -80 34z" />
    <glyph glyph-name="Egrave" unicode="&#xc8;" horiz-adv-x="633" 
d="M252 340v-302h253l55 107h36l-7 -145h-572v24l65 19v613l-65 20v24h562l7 -145h-36l-55 106h-243v-282h188l25 81h34v-202h-34l-25 82h-188zM179 832l90 90l144 -169l-19 -18z" />
    <glyph glyph-name="Eacute" unicode="&#xc9;" horiz-adv-x="633" 
d="M252 340v-302h253l55 107h36l-7 -145h-572v24l65 19v613l-65 20v24h562l7 -145h-36l-55 106h-243v-282h188l25 81h34v-202h-34l-25 82h-188zM237 735l-18 18l145 169l89 -90z" />
    <glyph glyph-name="Ecircumflex" unicode="&#xca;" horiz-adv-x="633" 
d="M252 340v-302h253l55 107h36l-7 -145h-572v24l65 19v613l-65 20v24h562l7 -145h-36l-55 106h-243v-282h188l25 81h34v-202h-34l-25 82h-188zM163 753l143 169h21l142 -169l-19 -18l-134 76l-135 -76z" />
    <glyph glyph-name="Edieresis" unicode="&#xcb;" horiz-adv-x="633" 
d="M252 340v-302h253l55 107h36l-7 -145h-572v24l65 19v613l-65 20v24h562l7 -145h-36l-55 106h-243v-282h188l25 81h34v-202h-34l-25 82h-188zM144 769c-29 29 -29 85 0 114c15 15 35 22 58 22s42 -7 57 -22c29 -29 29 -85 0 -114c-15 -15 -34 -22 -57 -22s-43 7 -58 22z
M372 769c-29 29 -29 85 0 114c15 15 35 22 58 22s42 -7 57 -22c29 -29 29 -85 0 -114c-15 -15 -34 -22 -57 -22s-43 7 -58 22z" />
    <glyph glyph-name="Igrave" unicode="&#xcc;" horiz-adv-x="335" 
d="M315 672l-64 -25v-596l64 -23v-28h-297v29l65 26v593l-65 24v28h297v-28zM37 832l90 90l144 -169l-19 -18z" />
    <glyph glyph-name="Iacute" unicode="&#xcd;" horiz-adv-x="335" 
d="M315 672l-64 -25v-596l64 -23v-28h-297v29l65 26v593l-65 24v28h297v-28zM88 735l-18 18l144 169l90 -90z" />
    <glyph glyph-name="Icircumflex" unicode="&#xce;" horiz-adv-x="335" 
d="M315 672l-64 -25v-596l64 -23v-28h-297v29l65 26v593l-65 24v28h297v-28zM14 753l142 169h21l143 -169l-19 -18l-134 76l-135 -76z" />
    <glyph glyph-name="Idieresis" unicode="&#xcf;" horiz-adv-x="335" 
d="M315 672l-64 -25v-596l64 -23v-28h-297v29l65 26v593l-65 24v28h297v-28zM7 769c-29 29 -29 85 0 114c15 15 35 22 58 22s42 -7 57 -22c29 -29 29 -85 0 -114c-15 -15 -34 -22 -57 -22s-43 7 -58 22zM212 769c-29 29 -29 85 0 114c15 15 35 22 58 22s42 -7 57 -22
c29 -29 29 -85 0 -114c-15 -15 -34 -22 -57 -22s-43 7 -58 22z" />
    <glyph glyph-name="Eth" unicode="&#xd0;" horiz-adv-x="751" 
d="M82 336h-63v23l63 16v281l-65 20v24h343c105 0 190 -31 254 -94c65 -63 97 -148 97 -257c0 -108 -32 -193 -97 -256c-64 -62 -149 -93 -254 -93h-343v24l65 19v293zM360 661h-108v-286h135v-39h-135v-298h108c107 0 172 99 172 312s-65 311 -172 311z" />
    <glyph glyph-name="Ntilde" unicode="&#xd1;" horiz-adv-x="705" 
d="M17 0v19l65 26v603l-65 24v28h232l335 -467v426l-65 24v17h169v-17l-65 -26v-657h-61l-441 616v-575l65 -24v-17h-169zM181 762l-19 20c71 71 121 107 150 107c13 0 33 -8 58 -23s46 -23 62 -23c25 0 66 18 93 45l19 -18c-72 -73 -123 -110 -154 -110c-13 0 -32 8 -58 23
c-26 16 -47 24 -64 24c-28 0 -57 -15 -87 -45z" />
    <glyph glyph-name="Ograve" unicode="&#xd2;" horiz-adv-x="767" 
d="M727 349c0 -109 -32 -195 -95 -260c-63 -64 -146 -96 -249 -96s-186 32 -249 96c-63 65 -94 151 -94 260s31 195 94 260s146 97 249 97s186 -32 249 -97c63 -64 95 -151 95 -260zM218 349c0 -217 64 -323 165 -323c103 0 166 106 166 323c0 219 -63 324 -166 324
c-101 0 -165 -105 -165 -324zM246 832l90 90l144 -169l-19 -18z" />
    <glyph glyph-name="Oacute" unicode="&#xd3;" horiz-adv-x="767" 
d="M727 349c0 -109 -32 -195 -95 -260c-63 -64 -146 -96 -249 -96s-186 32 -249 96c-63 65 -94 151 -94 260s31 195 94 260s146 97 249 97s186 -32 249 -97c63 -64 95 -151 95 -260zM218 349c0 -217 64 -323 165 -323c103 0 166 106 166 323c0 219 -63 324 -166 324
c-101 0 -165 -105 -165 -324zM304 735l-18 18l145 169l89 -90z" />
    <glyph glyph-name="Ocircumflex" unicode="&#xd4;" horiz-adv-x="767" 
d="M727 349c0 -109 -32 -195 -95 -260c-63 -64 -146 -96 -249 -96s-186 32 -249 96c-63 65 -94 151 -94 260s31 195 94 260s146 97 249 97s186 -32 249 -97c63 -64 95 -151 95 -260zM218 349c0 -217 64 -323 165 -323c103 0 166 106 166 323c0 219 -63 324 -166 324
c-101 0 -165 -105 -165 -324zM230 753l143 169h21l142 -169l-19 -18l-134 76l-135 -76z" />
    <glyph glyph-name="Otilde" unicode="&#xd5;" horiz-adv-x="767" 
d="M727 349c0 -109 -32 -195 -95 -260c-63 -64 -146 -96 -249 -96s-186 32 -249 96c-63 65 -94 151 -94 260s31 195 94 260s146 97 249 97s186 -32 249 -97c63 -64 95 -151 95 -260zM218 349c0 -217 64 -323 165 -323c103 0 166 106 166 323c0 219 -63 324 -166 324
c-101 0 -165 -105 -165 -324zM213 762l-19 20c70 71 120 107 149 107c13 0 33 -8 58 -23s46 -23 62 -23c27 0 67 18 94 45l19 -18c-73 -73 -125 -110 -154 -110c-13 0 -33 8 -59 23c-25 16 -46 24 -63 24c-29 0 -58 -15 -87 -45z" />
    <glyph glyph-name="Odieresis" unicode="&#xd6;" horiz-adv-x="767" 
d="M727 349c0 -109 -32 -195 -95 -260c-63 -64 -146 -96 -249 -96s-186 32 -249 96c-63 65 -94 151 -94 260s31 195 94 260s146 97 249 97s186 -32 249 -97c63 -64 95 -151 95 -260zM218 349c0 -217 64 -323 165 -323c103 0 166 106 166 323c0 219 -63 324 -166 324
c-101 0 -165 -105 -165 -324zM211 769c-29 29 -29 85 0 114c15 15 35 22 58 22s42 -7 57 -22c29 -29 29 -85 0 -114c-15 -15 -34 -22 -57 -22s-43 7 -58 22zM439 769c-29 29 -29 85 0 114c15 15 35 22 58 22s42 -7 57 -22c29 -29 29 -85 0 -114c-15 -15 -34 -22 -57 -22
s-43 7 -58 22z" />
    <glyph glyph-name="multiply" unicode="&#xd7;" horiz-adv-x="452" 
d="M192 300l-149 148l35 34l148 -148l148 148l34 -34l-148 -148l148 -149l-34 -34l-148 149l-149 -149l-34 34z" />
    <glyph glyph-name="Oslash" unicode="&#xd8;" horiz-adv-x="767" 
d="M155 70l-63 -70h-52l88 97c-59 64 -88 148 -88 252c0 109 31 195 94 260s146 97 249 97c91 0 166 -26 227 -77l65 71h52l-89 -98c59 -65 89 -149 89 -253c0 -109 -32 -195 -95 -260c-63 -64 -146 -96 -249 -96c-91 0 -167 26 -228 77zM549 349c0 55 -4 102 -12 142
l-297 -328c26 -91 74 -137 143 -137c103 0 166 106 166 323zM218 349c0 -52 4 -99 11 -141l298 328c-27 91 -75 137 -144 137c-101 0 -165 -105 -165 -324z" />
    <glyph glyph-name="Ugrave" unicode="&#xd9;" horiz-adv-x="737" 
d="M720 683l-65 -26v-395c0 -83 -26 -148 -79 -197c-52 -48 -121 -72 -207 -72s-155 24 -208 73s-79 114 -79 196v386l-65 24v28h300v-28l-65 -25v-385c0 -133 73 -200 182 -200c112 0 186 71 186 200v397l-65 24v17h165v-17zM252 832l90 90l145 -169l-20 -18z" />
    <glyph glyph-name="Uacute" unicode="&#xda;" horiz-adv-x="737" 
d="M720 683l-65 -26v-395c0 -83 -26 -148 -79 -197c-52 -48 -121 -72 -207 -72s-155 24 -208 73s-79 114 -79 196v386l-65 24v28h300v-28l-65 -25v-385c0 -133 73 -200 182 -200c112 0 186 71 186 200v397l-65 24v17h165v-17zM311 735l-18 18l145 169l89 -90z" />
    <glyph glyph-name="Ucircumflex" unicode="&#xdb;" horiz-adv-x="737" 
d="M720 683l-65 -26v-395c0 -83 -26 -148 -79 -197c-52 -48 -121 -72 -207 -72s-155 24 -208 73s-79 114 -79 196v386l-65 24v28h300v-28l-65 -25v-385c0 -133 73 -200 182 -200c112 0 186 71 186 200v397l-65 24v17h165v-17zM236 753l143 169h21l142 -169l-19 -18l-134 76
l-135 -76z" />
    <glyph glyph-name="Udieresis" unicode="&#xdc;" horiz-adv-x="737" 
d="M720 683l-65 -26v-395c0 -83 -26 -148 -79 -197c-52 -48 -121 -72 -207 -72s-155 24 -208 73s-79 114 -79 196v386l-65 24v28h300v-28l-65 -25v-385c0 -133 73 -200 182 -200c112 0 186 71 186 200v397l-65 24v17h165v-17zM218 769c-29 29 -29 85 0 114
c15 15 35 22 58 22s42 -7 57 -22c29 -29 29 -85 0 -114c-15 -15 -34 -22 -57 -22s-43 7 -58 22zM446 769c-29 29 -29 85 0 114c15 15 35 22 58 22s42 -7 57 -22c29 -29 29 -85 0 -114c-15 -15 -34 -22 -57 -22s-43 7 -58 22z" />
    <glyph glyph-name="Yacute" unicode="&#xdd;" horiz-adv-x="720" 
d="M311 672l-65 -22l174 -304l177 304l-78 22v28h197v-28l-74 -22l-205 -349v-250l65 -23v-28h-300v29l65 26v245l-202 350l-60 22v28h306v-28zM299 735l-19 18l145 169l90 -90z" />
    <glyph glyph-name="Thorn" unicode="&#xde;" horiz-adv-x="658" 
d="M316 672l-64 -25v-87h88c83 0 151 -18 202 -55c51 -36 77 -85 77 -147c0 -61 -26 -110 -77 -146s-119 -54 -202 -54h-47l-17 17v21h47c75 0 121 51 121 162s-46 163 -121 163h-71v-467l101 -26v-28h-336v29l65 26v593l-65 24v28h299v-28z" />
    <glyph glyph-name="germandbls" unicode="&#xdf;" horiz-adv-x="704" 
d="M340 3l-12 12v118h40c16 -69 52 -104 108 -104c45 0 77 25 77 72c0 39 -21 55 -86 80c-21 9 -36 15 -46 20s-22 13 -37 23c-41 27 -55 59 -59 125c0 140 109 161 109 263c0 56 -34 95 -102 95c-65 0 -92 -36 -92 -147v-510l60 -22v-28h-283v29l60 25v387h-60v27l60 20v70
c0 121 81 181 243 181c134 0 201 -38 201 -115c0 -28 -14 -63 -41 -105s-40 -77 -40 -105c0 -44 21 -63 77 -86c51 -21 75 -33 107 -61c33 -27 48 -65 48 -117c0 -103 -63 -155 -188 -155c-47 0 -88 8 -124 24z" />
    <glyph glyph-name="agrave" unicode="&#xe0;" horiz-adv-x="566" 
d="M328 55l-3 3c-46 -43 -102 -64 -167 -64c-81 0 -122 37 -122 112c0 41 16 71 43 91c13 11 32 20 57 28c49 17 98 29 183 46c3 1 5 1 6 1v88c0 60 -24 90 -73 90c-15 0 -33 -5 -53 -14v-67c0 -48 -30 -79 -73 -79c-41 0 -74 28 -74 73c0 39 20 68 60 89
c41 21 91 32 151 32c143 0 225 -57 225 -144v-279c0 -14 6 -21 19 -21c11 0 21 4 30 12l12 -12c-29 -29 -75 -43 -138 -43c-49 0 -75 13 -83 58zM325 93v146c-19 -4 -32 -7 -38 -9c-12 -3 -47 -11 -55 -18c-7 -5 -27 -17 -31 -32c-4 -13 -9 -33 -9 -58c0 -47 17 -70 52 -70
c30 0 57 14 81 41zM127 616l89 91l145 -170l-19 -18z" />
    <glyph glyph-name="aacute" unicode="&#xe1;" horiz-adv-x="566" 
d="M328 55l-3 3c-46 -43 -102 -64 -167 -64c-81 0 -122 37 -122 112c0 41 16 71 43 91c13 11 32 20 57 28c49 17 98 29 183 46c3 1 5 1 6 1v88c0 60 -24 90 -73 90c-15 0 -33 -5 -53 -14v-67c0 -48 -30 -79 -73 -79c-41 0 -74 28 -74 73c0 39 20 68 60 89
c41 21 91 32 151 32c143 0 225 -57 225 -144v-279c0 -14 6 -21 19 -21c11 0 21 4 30 12l12 -12c-29 -29 -75 -43 -138 -43c-49 0 -75 13 -83 58zM325 93v146c-19 -4 -32 -7 -38 -9c-12 -3 -47 -11 -55 -18c-7 -5 -27 -17 -31 -32c-4 -13 -9 -33 -9 -58c0 -47 17 -70 52 -70
c30 0 57 14 81 41zM185 519l-19 18l145 170l90 -91z" />
    <glyph glyph-name="acircumflex" unicode="&#xe2;" horiz-adv-x="566" 
d="M328 55l-3 3c-46 -43 -102 -64 -167 -64c-81 0 -122 37 -122 112c0 41 16 71 43 91c13 11 32 20 57 28c49 17 98 29 183 46c3 1 5 1 6 1v88c0 60 -24 90 -73 90c-15 0 -33 -5 -53 -14v-67c0 -48 -30 -79 -73 -79c-41 0 -74 28 -74 73c0 39 20 68 60 89
c41 21 91 32 151 32c143 0 225 -57 225 -144v-279c0 -14 6 -21 19 -21c11 0 21 4 30 12l12 -12c-29 -29 -75 -43 -138 -43c-49 0 -75 13 -83 58zM325 93v146c-19 -4 -32 -7 -38 -9c-12 -3 -47 -11 -55 -18c-7 -5 -27 -17 -31 -32c-4 -13 -9 -33 -9 -58c0 -47 17 -70 52 -70
c30 0 57 14 81 41zM110 537l143 170h21l142 -170l-19 -18l-134 76l-135 -76z" />
    <glyph glyph-name="atilde" unicode="&#xe3;" horiz-adv-x="566" 
d="M328 55l-3 3c-46 -43 -102 -64 -167 -64c-81 0 -122 37 -122 112c0 41 16 71 43 91c13 11 32 20 57 28c49 17 98 29 183 46c3 1 5 1 6 1v88c0 60 -24 90 -73 90c-15 0 -33 -5 -53 -14v-67c0 -48 -30 -79 -73 -79c-41 0 -74 28 -74 73c0 39 20 68 60 89
c41 21 91 32 151 32c143 0 225 -57 225 -144v-279c0 -14 6 -21 19 -21c11 0 21 4 30 12l12 -12c-29 -29 -75 -43 -138 -43c-49 0 -75 13 -83 58zM325 93v146c-19 -4 -32 -7 -38 -9c-12 -3 -47 -11 -55 -18c-7 -5 -27 -17 -31 -32c-4 -13 -9 -33 -9 -58c0 -47 17 -70 52 -70
c30 0 57 14 81 41zM93 547l-19 19c71 72 120 108 149 108c13 0 33 -8 58 -24c25 -15 46 -23 62 -23c25 0 67 18 94 45l19 -18c-73 -73 -124 -109 -154 -109c-13 0 -33 8 -59 23c-25 15 -46 23 -63 23c-29 0 -58 -15 -87 -44z" />
    <glyph glyph-name="adieresis" unicode="&#xe4;" horiz-adv-x="566" 
d="M329 55l-3 3c-46 -43 -102 -64 -167 -64c-81 0 -122 37 -122 112c0 46 20 80 61 102c31 17 99 37 204 59h1h1h1l1 1h1h1h1v1h1h1h1h1l1 1h1h1h1h1l1 1h1h2h1l1 1h2v88c0 57 -25 90 -73 90c-15 0 -33 -5 -53 -14v-67c0 -48 -30 -79 -74 -79c-41 0 -73 28 -73 73
c0 39 20 68 60 89c41 21 91 32 151 32c143 0 225 -57 225 -144v-279c0 -14 6 -21 19 -21c11 0 21 4 29 12l12 -12c-29 -29 -74 -43 -137 -43c-49 0 -76 13 -83 58zM326 93v146c-19 -4 -32 -7 -38 -9c-12 -3 -47 -11 -55 -18c-7 -5 -27 -17 -31 -32c-4 -13 -9 -33 -9 -58
c0 -47 17 -70 51 -70c29 0 57 14 82 41zM97 553c-15 15 -22 35 -22 58s7 42 22 57c29 29 85 29 114 0c15 -15 22 -34 22 -57s-7 -43 -22 -58c-29 -29 -85 -29 -114 0zM382 690c47 0 79 -32 79 -79s-32 -80 -79 -80s-79 33 -79 80s34 79 79 79z" />
    <glyph glyph-name="aring" unicode="&#xe5;" horiz-adv-x="566" 
d="M328 55l-3 3c-46 -43 -102 -64 -167 -64c-81 0 -122 37 -122 112c0 41 16 71 43 91c13 11 32 20 57 28c49 17 98 29 183 46c3 1 5 1 6 1v88c0 60 -24 90 -73 90c-15 0 -33 -5 -53 -14v-67c0 -48 -30 -79 -73 -79c-41 0 -74 28 -74 73c0 39 20 68 60 89
c41 21 91 32 151 32c143 0 225 -57 225 -144v-279c0 -14 6 -21 19 -21c11 0 21 4 30 12l12 -12c-29 -29 -75 -43 -138 -43c-49 0 -75 13 -83 58zM325 93v146c-19 -4 -32 -7 -38 -9c-12 -3 -47 -11 -55 -18c-7 -5 -27 -17 -31 -32c-4 -13 -9 -33 -9 -58c0 -47 17 -70 52 -70
c30 0 57 14 81 41zM262 686c53 0 89 -32 89 -84s-36 -84 -89 -84c-52 0 -87 32 -87 84s35 84 87 84zM262 549c20 0 33 21 33 53c0 33 -13 54 -33 54c-19 0 -33 -22 -33 -54s14 -53 33 -53z" />
    <glyph glyph-name="ae" unicode="&#xe6;" horiz-adv-x="790" 
d="M324 58c-45 -43 -100 -64 -166 -64c-81 0 -122 36 -122 108c0 25 4 46 17 63c15 17 22 29 53 41c15 7 28 12 38 15c11 4 28 9 51 15c24 6 43 10 58 13l71 15v96c0 60 -24 90 -72 90c-15 0 -33 -5 -53 -14v-67c0 -48 -30 -79 -73 -79c-41 0 -74 28 -74 73
c0 39 20 68 60 89c41 21 90 32 149 32c57 0 103 -11 139 -33c37 22 80 33 130 33c65 0 119 -17 160 -52c42 -34 63 -78 63 -133c0 -16 -1 -29 -4 -40l-18 -17l-258 -6v-125c21 -41 61 -62 119 -62c53 0 97 17 131 51l22 -21c-56 -56 -126 -84 -210 -84
c-91 0 -162 21 -211 63zM325 92v139c-30 -6 -51 -11 -63 -14s-25 -9 -38 -17c-27 -16 -32 -38 -32 -81c0 -45 17 -67 51 -67c31 0 59 13 82 40zM473 340v-71l135 19c0 108 -24 162 -72 162c-31 0 -54 -23 -71 -68c5 -14 8 -28 8 -42z" />
    <glyph glyph-name="ccedilla" unicode="&#xe7;" horiz-adv-x="541" 
d="M208 -120l63 115c-149 5 -239 98 -239 245c0 152 93 244 261 244c57 0 106 -11 147 -33c41 -21 62 -53 62 -95c0 -48 -32 -76 -75 -76c-44 0 -75 31 -75 79v77c-17 9 -35 14 -54 14c-68 0 -102 -63 -102 -190c0 -141 45 -212 146 -212c51 0 94 17 129 52l22 -21
c-52 -53 -117 -81 -195 -84l-18 -36c49 0 84 -17 84 -52c0 -31 -36 -79 -107 -145l-11 11c28 28 42 52 42 73c0 23 -27 34 -80 34z" />
    <glyph glyph-name="egrave" unicode="&#xe8;" horiz-adv-x="543" 
d="M502 259l-18 -17h-288c3 -132 46 -193 150 -193c53 0 96 17 130 51l22 -21c-56 -56 -126 -84 -209 -84c-80 0 -143 22 -189 66c-45 44 -68 103 -68 176c0 76 23 136 70 180c47 45 108 67 181 67c65 0 119 -17 161 -52s63 -79 63 -133c0 -17 -2 -30 -5 -40zM289 450
c-51 0 -89 -62 -93 -177l166 15c0 108 -24 162 -73 162zM148 616l90 91l144 -170l-19 -18z" />
    <glyph glyph-name="eacute" unicode="&#xe9;" horiz-adv-x="543" 
d="M502 259l-18 -17h-288c3 -132 46 -193 150 -193c53 0 96 17 130 51l22 -21c-56 -56 -126 -84 -209 -84c-80 0 -143 22 -189 66c-45 44 -68 103 -68 176c0 76 23 136 70 180c47 45 108 67 181 67c65 0 119 -17 161 -52s63 -79 63 -133c0 -17 -2 -30 -5 -40zM289 450
c-51 0 -89 -62 -93 -177l166 15c0 108 -24 162 -73 162zM205 519l-19 18l145 170l90 -91z" />
    <glyph glyph-name="ecircumflex" unicode="&#xea;" horiz-adv-x="543" 
d="M502 259l-18 -17h-288c3 -132 46 -193 150 -193c53 0 96 17 130 51l22 -21c-56 -56 -126 -84 -209 -84c-80 0 -143 22 -189 66c-45 44 -68 103 -68 176c0 76 23 136 70 180c47 45 108 67 181 67c65 0 119 -17 161 -52s63 -79 63 -133c0 -17 -2 -30 -5 -40zM289 450
c-51 0 -89 -62 -93 -177l166 15c0 108 -24 162 -73 162zM131 537l143 170h21l142 -170l-19 -18l-134 76l-135 -76z" />
    <glyph glyph-name="edieresis" unicode="&#xeb;" horiz-adv-x="543" 
d="M502 259l-18 -17h-288c1 -131 45 -193 149 -193c53 0 96 17 131 51l21 -21c-55 -56 -124 -84 -209 -84c-79 0 -142 22 -188 66c-45 45 -68 103 -68 176c0 76 23 136 70 180c47 45 108 67 181 67c65 0 119 -17 160 -52c42 -34 63 -78 63 -133c0 -16 -1 -29 -4 -40z
M288 450c-51 0 -88 -62 -92 -177l165 15c0 108 -24 162 -73 162zM106 553c-15 15 -22 35 -22 58s7 42 22 57c29 29 85 29 114 0c15 -15 23 -34 23 -57s-8 -43 -23 -58c-29 -29 -85 -29 -114 0zM392 690c45 0 79 -32 79 -79s-32 -80 -79 -80s-80 33 -80 80s33 79 80 79z" />
    <glyph glyph-name="igrave" unicode="&#xec;" horiz-adv-x="318" 
d="M21 616l90 91l145 -170l-20 -18zM300 0h-283v29l60 25v359l-56 20v32l202 24l17 -18v-421l60 -22v-28z" />
    <glyph glyph-name="iacute" unicode="&#xed;" horiz-adv-x="318" 
d="M80 519l-19 18l145 170l90 -91zM300 0h-283v29l60 25v359l-56 20v32l202 24l17 -18v-421l60 -22v-28z" />
    <glyph glyph-name="icircumflex" unicode="&#xee;" horiz-adv-x="318" 
d="M300 0h-283v29l60 25v359l-56 20v32l202 24l17 -18v-421l60 -22v-28zM6 537l143 170h21l142 -170l-19 -18l-134 76l-135 -76z" />
    <glyph glyph-name="idieresis" unicode="&#xef;" horiz-adv-x="318" 
d="M300 0h-283v29l60 25v359l-56 20v32l202 24l17 -18v-421l60 -22v-28zM5 553c-15 15 -22 35 -22 58s7 42 22 57s35 22 58 22s42 -7 57 -22s22 -34 22 -57s-7 -43 -22 -58s-34 -22 -57 -22s-43 7 -58 22zM250 690c45 0 79 -32 79 -79s-32 -80 -79 -80s-80 33 -80 80
s33 79 80 79z" />
    <glyph glyph-name="eth" unicode="&#xf0;" horiz-adv-x="574" 
d="M301 533l-33 34l63 64c-62 44 -140 72 -234 84l28 28c107 -11 190 -34 249 -69l69 70l35 -35l-63 -63c85 -67 127 -176 127 -326c0 -217 -83 -325 -250 -325c-78 0 -140 22 -186 65c-46 44 -69 104 -69 179s23 134 68 178c45 45 105 67 180 67c68 0 120 -22 157 -65h4
c0 71 -26 131 -78 181zM289 450c-58 0 -87 -70 -87 -211c0 -140 29 -210 87 -210c53 0 87 67 87 210s-34 211 -87 211z" />
    <glyph glyph-name="ntilde" unicode="&#xf1;" horiz-adv-x="643" 
d="M240 383v-333l49 -22v-28h-272v29l60 25v359l-56 20v32l202 24l17 -18l-3 -50l3 -3c43 41 112 66 172 66c49 0 87 -17 113 -50c27 -33 40 -74 40 -123v-261l60 -22v-28h-272v29l49 25v241c0 79 -24 131 -72 131c-33 0 -63 -14 -90 -43zM150 547l-18 19
c71 72 120 108 149 108c13 0 33 -8 58 -24c25 -15 46 -23 62 -23c25 0 66 18 93 45l20 -18c-73 -73 -124 -109 -154 -109c-13 0 -33 8 -59 23c-25 15 -46 23 -63 23c-28 0 -57 -15 -88 -44z" />
    <glyph glyph-name="ograve" unicode="&#xf2;" horiz-adv-x="570" 
d="M101 61c-46 44 -69 103 -69 178s23 134 69 178c47 45 108 67 184 67s137 -22 183 -67c47 -44 70 -103 70 -178s-23 -134 -70 -178c-46 -44 -107 -66 -183 -66s-137 22 -184 66zM285 29c59 0 88 70 88 210c0 141 -29 211 -88 211c-55 0 -89 -68 -89 -211s34 -210 89 -210z
M147 616l90 91l144 -170l-19 -18z" />
    <glyph glyph-name="oacute" unicode="&#xf3;" horiz-adv-x="570" 
d="M101 61c-46 44 -69 103 -69 178s23 134 69 178c47 45 108 67 184 67s137 -22 183 -67c47 -44 70 -103 70 -178s-23 -134 -70 -178c-46 -44 -107 -66 -183 -66s-137 22 -184 66zM285 29c59 0 88 70 88 210c0 141 -29 211 -88 211c-55 0 -89 -68 -89 -211s34 -210 89 -210z
M205 519l-18 18l145 170l89 -91z" />
    <glyph glyph-name="ocircumflex" unicode="&#xf4;" horiz-adv-x="570" 
d="M101 61c-46 44 -69 103 -69 178s23 134 69 178c47 45 108 67 184 67s137 -22 183 -67c47 -44 70 -103 70 -178s-23 -134 -70 -178c-46 -44 -107 -66 -183 -66s-137 22 -184 66zM285 29c59 0 88 70 88 210c0 141 -29 211 -88 211c-55 0 -89 -68 -89 -211s34 -210 89 -210z
M131 537l143 170h21l142 -170l-19 -18l-134 76l-135 -76z" />
    <glyph glyph-name="otilde" unicode="&#xf5;" horiz-adv-x="570" 
d="M101 61c-46 44 -69 103 -69 178s23 134 69 178c47 45 108 67 184 67s137 -22 183 -67c47 -44 70 -103 70 -178s-23 -134 -70 -178c-46 -44 -107 -66 -183 -66s-137 22 -184 66zM285 29c59 0 88 70 88 210c0 141 -29 211 -88 211c-55 0 -89 -68 -89 -211s34 -210 89 -210z
M114 547l-19 19c71 72 120 108 149 108c13 0 33 -8 58 -24c25 -15 46 -23 62 -23c25 0 67 18 94 45l19 -18c-73 -73 -124 -109 -154 -109c-13 0 -33 8 -59 23c-25 15 -46 23 -63 23c-29 0 -58 -15 -87 -44z" />
    <glyph glyph-name="odieresis" unicode="&#xf6;" horiz-adv-x="570" 
d="M101 61c-46 44 -69 103 -69 178s23 134 69 178c47 45 108 67 184 67s137 -22 183 -67c47 -44 70 -103 70 -178s-23 -134 -70 -178c-46 -44 -107 -66 -183 -66s-137 22 -184 66zM285 29c59 0 88 70 88 210c0 141 -29 211 -88 211c-55 0 -89 -68 -89 -211s34 -210 89 -210z
M113 553c-15 15 -22 35 -22 58s7 42 22 57s35 22 58 22s42 -7 57 -22s22 -34 22 -57s-7 -43 -22 -58s-34 -22 -57 -22s-43 7 -58 22zM341 553c-15 15 -22 35 -22 58s7 42 22 57s35 22 58 22s42 -7 57 -22s22 -34 22 -57s-7 -43 -22 -58s-34 -22 -57 -22s-43 7 -58 22z" />
    <glyph glyph-name="divide" unicode="&#xf7;" horiz-adv-x="452" 
d="M417 261h-382v47h382v-47zM163 147c0 37 26 64 62 64c37 0 64 -27 64 -64c0 -36 -27 -64 -64 -64c-36 0 -62 28 -62 64zM225 485c39 0 64 -25 64 -64c0 -37 -27 -63 -64 -63c-36 0 -62 26 -62 63s26 64 62 64z" />
    <glyph glyph-name="oslash" unicode="&#xf8;" horiz-adv-x="570" 
d="M124 42l-39 -42h-53l63 67c-42 44 -63 101 -63 172c0 75 23 134 69 178c47 45 108 67 184 67c62 0 115 -16 159 -47l41 43h53l-64 -68c43 -44 64 -102 64 -173c0 -75 -23 -134 -70 -178c-46 -44 -107 -66 -183 -66c-64 0 -118 16 -161 47zM373 239c0 23 -1 44 -3 63
l-165 -174c13 -66 40 -99 80 -99c59 0 88 70 88 210zM196 239c0 -17 1 -38 2 -63l166 175c-13 66 -40 99 -79 99c-55 0 -89 -68 -89 -211z" />
    <glyph glyph-name="ugrave" unicode="&#xf9;" horiz-adv-x="637" 
d="M560 471v-407l56 -23v-31l-202 -17l-17 17l3 52l-3 3c-45 -47 -102 -70 -169 -70c-96 0 -151 64 -151 145v273l-56 20v32l202 24l17 -18v-318c0 -60 23 -100 67 -100c35 0 65 16 90 48v312l-56 20v32l202 24zM179 616l89 91l145 -170l-19 -18z" />
    <glyph glyph-name="uacute" unicode="&#xfa;" horiz-adv-x="637" 
d="M560 471v-407l56 -23v-31l-202 -17l-17 17l3 52l-3 3c-45 -47 -102 -70 -169 -70c-96 0 -151 64 -151 145v273l-56 20v32l202 24l17 -18v-318c0 -60 23 -100 67 -100c35 0 65 16 90 48v312l-56 20v32l202 24zM237 519l-18 18l144 170l90 -91z" />
    <glyph glyph-name="ucircumflex" unicode="&#xfb;" horiz-adv-x="637" 
d="M560 471v-407l56 -23v-31l-202 -17l-17 17l3 52l-3 3c-45 -47 -102 -70 -169 -70c-96 0 -151 64 -151 145v273l-56 20v32l202 24l17 -18v-318c0 -60 23 -100 67 -100c35 0 65 16 90 48v312l-56 20v32l202 24zM163 537l143 170h20l143 -170l-19 -18l-134 76l-135 -76z" />
    <glyph glyph-name="udieresis" unicode="&#xfc;" horiz-adv-x="637" 
d="M560 471v-407l56 -23v-31l-202 -17l-17 17l3 52l-3 3c-45 -47 -102 -70 -169 -70c-96 0 -151 64 -151 145v273l-56 20v32l202 24l17 -18v-318c0 -60 23 -100 67 -100c35 0 65 16 90 48v312l-56 20v32l202 24zM139 553c-15 15 -22 35 -22 58s7 42 22 57s35 22 58 22
s42 -7 57 -22s22 -34 22 -57s-7 -43 -22 -58s-34 -22 -57 -22s-43 7 -58 22zM367 553c-15 15 -22 35 -22 58s7 42 22 57s35 22 58 22s42 -7 57 -22s22 -34 22 -57s-7 -43 -22 -58s-34 -22 -57 -22s-43 7 -58 22z" />
    <glyph glyph-name="yacute" unicode="&#xfd;" horiz-adv-x="589" 
d="M272 -13l-206 443l-60 22v28h285v-28l-59 -22l122 -266l122 266l-81 22v28h188v-28l-63 -22l-199 -430c-19 -40 -32 -69 -41 -86l-33 -61c-13 -23 -25 -39 -35 -48c-19 -19 -46 -34 -78 -34c-53 0 -98 27 -98 86c0 45 28 70 67 70c41 0 68 -26 68 -67v-29c2 -1 5 -1 8 -1
c10 0 21 11 34 33s32 63 59 124zM236 519l-19 18l145 170l89 -91z" />
    <glyph glyph-name="thorn" unicode="&#xfe;" horiz-adv-x="598" 
d="M332 -225h-315v29l60 25v838l-56 20v32l202 24l17 -18v-245l-3 -56l3 -3c40 42 90 63 149 63c113 0 176 -95 176 -235c0 -163 -86 -254 -237 -254c-34 0 -63 6 -88 17v-185l92 -24v-28zM240 386v-339c19 -13 40 -20 63 -20c65 0 98 69 98 207c0 60 -8 107 -23 141
s-36 51 -64 51s-53 -13 -74 -40z" />
    <glyph glyph-name="ydieresis" unicode="&#xff;" horiz-adv-x="589" 
d="M272 -13l-206 443l-60 22v28h285v-28l-59 -22l122 -266l122 266l-81 22v28h188v-28l-63 -22l-199 -430c-19 -40 -32 -69 -41 -86l-33 -61c-13 -23 -25 -39 -35 -48c-19 -19 -46 -34 -78 -34c-53 0 -98 27 -98 86c0 45 28 70 67 70c41 0 68 -26 68 -67v-29c2 -1 5 -1 8 -1
c10 0 21 11 34 33s32 63 59 124zM128 553c-15 15 -22 35 -22 58s7 42 22 57s35 22 58 22s42 -7 57 -22s22 -34 22 -57s-7 -43 -22 -58s-34 -22 -57 -22s-43 7 -58 22zM356 553c-15 15 -22 35 -22 58s7 42 22 57s35 22 58 22s42 -7 57 -22s22 -34 22 -57s-7 -43 -22 -58
s-34 -22 -57 -22s-43 7 -58 22z" />
    <glyph glyph-name="Amacron" unicode="&#x100;" horiz-adv-x="774" 
d="M360 700h60l284 -649l65 -23v-28h-302v28l64 23l-69 163h-276l-71 -163l87 -23v-28h-197v28l67 23zM445 253l-120 281l-122 -281h242zM526 790h-277v50h277v-50z" />
    <glyph glyph-name="amacron" unicode="&#x101;" horiz-adv-x="566" 
d="M328 55l-3 3c-46 -43 -102 -64 -167 -64c-81 0 -122 37 -122 112c0 41 16 71 43 91c13 11 32 20 57 28c49 17 98 29 183 46c3 1 5 1 6 1v88c0 60 -24 90 -73 90c-15 0 -33 -5 -53 -14v-67c0 -48 -30 -79 -73 -79c-41 0 -74 28 -74 73c0 39 20 68 60 89
c41 21 91 32 151 32c143 0 225 -57 225 -144v-279c0 -14 6 -21 19 -21c11 0 21 4 30 12l12 -12c-29 -29 -75 -43 -138 -43c-49 0 -75 13 -83 58zM325 93v146c-19 -4 -32 -7 -38 -9c-12 -3 -47 -11 -55 -18c-7 -5 -27 -17 -31 -32c-4 -13 -9 -33 -9 -58c0 -47 17 -70 52 -70
c30 0 57 14 81 41zM400 570h-276v50h276v-50z" />
    <glyph glyph-name="Abreve" unicode="&#x102;" horiz-adv-x="774" 
d="M360 700h60l284 -649l65 -23v-28h-302v28l64 23l-69 163h-276l-71 -163l87 -23v-28h-197v28l67 23zM445 253l-120 281l-122 -281h242zM436 845c0 40 27 67 63 67s65 -26 65 -65c0 -33 -18 -58 -54 -75c-35 -17 -76 -25 -123 -25s-88 8 -123 25s-53 43 -53 76
c0 39 28 64 64 64s63 -27 63 -67c0 -66 33 -67 49 -67s49 1 49 67z" />
    <glyph glyph-name="abreve" unicode="&#x103;" horiz-adv-x="566" 
d="M329 55l-3 3c-46 -43 -102 -64 -167 -64c-81 0 -122 37 -122 112c0 46 20 80 61 102c31 17 99 37 204 59h1h1h1l1 1h1h1h1v1h1h1h1h1l1 1h1h1h1h1l1 1h1h2h1l1 1h2v88c0 57 -25 90 -73 90c-15 0 -33 -5 -53 -14v-67c0 -48 -30 -79 -74 -79c-41 0 -73 28 -73 73
c0 39 20 68 60 89c41 21 91 32 151 32c143 0 225 -57 225 -144v-279c0 -14 6 -21 19 -21c11 0 21 4 29 12l12 -12c-29 -29 -74 -43 -137 -43c-49 0 -76 13 -83 58zM326 93v146c-19 -4 -32 -7 -38 -9c-12 -3 -47 -11 -55 -18c-7 -5 -27 -17 -31 -32c-4 -13 -9 -33 -9 -58
c0 -47 17 -70 51 -70c29 0 57 14 82 41zM318 629c0 40 27 67 64 67c36 0 64 -25 64 -64c0 -33 -18 -59 -54 -76c-35 -17 -76 -25 -123 -25s-88 8 -123 25s-53 43 -53 77c0 39 28 63 64 63s63 -27 63 -67c0 -66 33 -66 49 -66s49 0 49 66z" />
    <glyph glyph-name="Aogonek" unicode="&#x104;" horiz-adv-x="774" 
d="M759 -172l11 -10c-36 -36 -71 -54 -105 -54c-39 0 -59 21 -59 63c0 59 31 116 92 173h-231v28l64 23l-69 163h-276l-71 -163l87 -23v-28h-197v28l67 23l288 649h60l284 -649l65 -23v-28h-45c-33 -48 -56 -115 -56 -152c0 -26 12 -39 36 -39c25 0 43 6 55 19zM445 253
l-120 281l-122 -281h242z" />
    <glyph glyph-name="aogonek" unicode="&#x105;" horiz-adv-x="566" 
d="M538 -156l10 -10c-35 -35 -70 -53 -104 -53c-40 0 -60 21 -60 63c0 53 26 105 77 156c-16 -2 -33 -3 -50 -3c-49 0 -75 13 -83 58l-3 3c-46 -43 -102 -64 -167 -64c-81 0 -122 37 -122 112c0 41 16 71 43 91c13 11 32 20 57 28c49 17 98 29 183 46c3 1 5 1 6 1v88
c0 60 -24 90 -73 90c-15 0 -33 -5 -53 -14v-67c0 -48 -30 -79 -73 -79c-41 0 -74 28 -74 73c0 39 20 68 60 89c41 21 91 32 151 32c143 0 225 -57 225 -144v-279c0 -14 6 -21 19 -21c11 0 21 4 30 12l12 -12c-13 -13 -29 -23 -50 -30c-32 -47 -53 -108 -53 -145
c0 -27 12 -40 37 -40c23 0 41 6 55 19zM325 93v146c-19 -4 -32 -7 -38 -9c-12 -3 -47 -11 -55 -18c-7 -5 -27 -17 -31 -32c-4 -13 -9 -33 -9 -58c0 -47 17 -70 52 -70c30 0 57 14 81 41z" />
    <glyph glyph-name="Cacute" unicode="&#x106;" horiz-adv-x="698" 
d="M638 124l23 -23c-72 -72 -162 -108 -269 -108c-108 0 -194 32 -257 95c-63 64 -95 150 -95 259c0 110 32 197 96 262s149 97 255 97c73 0 135 -14 187 -43l55 24l14 -13l8 -155h-36c-36 96 -102 144 -198 144c-135 0 -203 -102 -203 -306c0 -203 77 -305 232 -305
c77 0 140 24 188 72zM315 735l-18 18l145 169l89 -90z" />
    <glyph glyph-name="cacute" unicode="&#x107;" horiz-adv-x="541" 
d="M352 359v77c-17 9 -35 14 -54 14c-68 0 -102 -63 -102 -190c0 -141 45 -212 146 -212c51 0 94 17 129 52l22 -21c-55 -56 -124 -84 -208 -84c-157 0 -253 93 -253 245s93 244 261 244c57 0 106 -11 147 -33c41 -21 62 -53 62 -95c0 -48 -32 -76 -75 -76
c-44 0 -75 31 -75 79zM214 519l-18 18l145 170l89 -91z" />
    <glyph glyph-name="Ccircumflex" unicode="&#x108;" horiz-adv-x="698" 
d="M638 124l23 -23c-72 -72 -162 -108 -269 -108c-108 0 -194 32 -257 95c-63 64 -95 150 -95 259c0 110 32 197 96 262s149 97 255 97c73 0 135 -14 187 -43l55 24l14 -13l8 -155h-36c-36 96 -102 144 -198 144c-135 0 -203 -102 -203 -306c0 -203 77 -305 232 -305
c77 0 140 24 188 72zM237 753l143 169h21l143 -169l-19 -18l-135 76l-134 -76z" />
    <glyph glyph-name="ccircumflex" unicode="&#x109;" horiz-adv-x="541" 
d="M352 359v77c-17 9 -35 14 -54 14c-68 0 -102 -63 -102 -190c0 -141 45 -212 146 -212c51 0 94 17 129 52l22 -21c-55 -56 -124 -84 -208 -84c-157 0 -253 93 -253 245s93 244 261 244c57 0 106 -11 147 -33c41 -21 62 -53 62 -95c0 -48 -32 -76 -75 -76
c-44 0 -75 31 -75 79zM139 537l143 170h20l143 -170l-19 -18l-134 76l-135 -76z" />
    <glyph glyph-name="Cdotaccent" unicode="&#x10a;" horiz-adv-x="698" 
d="M638 124l23 -23c-72 -72 -162 -108 -269 -108c-108 0 -194 32 -257 95c-63 64 -95 150 -95 259c0 110 32 197 96 262s149 97 255 97c73 0 135 -14 187 -43l55 24l14 -13l8 -155h-36c-36 96 -102 144 -198 144c-135 0 -203 -102 -203 -306c0 -203 77 -305 232 -305
c77 0 140 24 188 72zM327 776c-16 16 -24 37 -24 62s8 46 24 61c16 16 37 24 62 24s46 -8 61 -24c16 -15 24 -36 24 -61s-8 -46 -24 -62c-15 -16 -36 -24 -61 -24s-46 8 -62 24z" />
    <glyph glyph-name="cdotaccent" unicode="&#x10b;" horiz-adv-x="541" 
d="M352 359v77c-17 9 -35 14 -54 14c-68 0 -102 -63 -102 -190c0 -141 45 -212 146 -212c51 0 94 17 129 52l22 -21c-55 -56 -124 -84 -208 -84c-157 0 -253 93 -253 245s93 244 261 244c57 0 106 -11 147 -33c41 -21 62 -53 62 -95c0 -48 -32 -76 -75 -76
c-44 0 -75 31 -75 79zM291 707c49 0 84 -34 84 -85s-35 -85 -84 -85c-51 0 -86 34 -86 85s35 85 86 85z" />
    <glyph glyph-name="Ccaron" unicode="&#x10c;" horiz-adv-x="698" 
d="M638 124l23 -23c-72 -72 -162 -108 -269 -108c-108 0 -194 32 -257 95c-63 64 -95 150 -95 259c0 110 32 197 96 262s149 97 255 97c73 0 135 -14 187 -43l55 24l14 -13l8 -155h-36c-36 96 -102 144 -198 144c-135 0 -203 -102 -203 -306c0 -203 77 -305 232 -305
c77 0 140 24 188 72zM543 904l-143 -169h-21l-143 169l19 18l134 -76l135 76z" />
    <glyph glyph-name="ccaron" unicode="&#x10d;" horiz-adv-x="541" 
d="M352 359v77c-17 9 -35 14 -54 14c-68 0 -102 -63 -102 -190c0 -141 45 -212 146 -212c51 0 94 17 129 52l22 -21c-55 -56 -124 -84 -208 -84c-157 0 -253 93 -253 245s93 244 261 244c57 0 106 -11 147 -33c41 -21 62 -53 62 -95c0 -48 -32 -76 -75 -76
c-44 0 -75 31 -75 79zM445 688l-142 -169h-21l-143 169l18 19l135 -77l134 77z" />
    <glyph glyph-name="Dcaron" unicode="&#x10e;" horiz-adv-x="751" 
d="M17 676v24h343c105 0 190 -31 254 -94c65 -63 97 -148 97 -257c0 -108 -32 -193 -97 -256c-64 -62 -149 -93 -254 -93h-343v24l65 19v613zM360 661h-108v-623h108c107 0 172 99 172 312s-65 311 -172 311zM518 904l-142 -169h-21l-143 169l18 18l135 -76l134 76z" />
    <glyph glyph-name="dcaron" unicode="&#x10f;" horiz-adv-x="697" 
d="M520 726v-662l56 -23v-31l-202 -17l-17 17l3 45l-3 3c-40 -42 -89 -63 -148 -63c-115 0 -177 95 -177 235c0 163 87 254 239 254c33 0 61 -6 86 -17v205l-60 20v28l206 24zM357 93v338c-19 13 -40 19 -63 19c-65 0 -98 -69 -98 -206c0 -119 31 -191 87 -191
c29 0 53 13 74 40zM597 538l-15 15c21 23 45 58 45 71c0 4 -1 7 -3 8c-32 0 -54 22 -54 54s23 54 54 54c32 0 57 -22 57 -59c0 -39 -28 -87 -84 -143z" />
    <glyph glyph-name="Dcroat" unicode="&#x110;" horiz-adv-x="751" 
d="M82 336h-65v23l65 16v281l-65 20v24h343c105 0 190 -31 254 -94c65 -63 97 -148 97 -257c0 -108 -32 -193 -97 -256c-64 -62 -149 -93 -254 -93h-343v24l65 19v293zM360 661h-108v-286h135v-39h-135v-298h108c107 0 172 99 172 312s-65 311 -172 311z" />
    <glyph glyph-name="dslash" unicode="&#x111;" horiz-adv-x="598" 
d="M357 570h-164v39h164v63l-60 20v28l206 24l17 -18v-117l56 -15v-24h-56v-506l56 -23v-31l-202 -17l-17 17l3 45l-3 3c-40 -42 -89 -63 -148 -63c-115 0 -177 95 -177 235c0 163 87 254 239 254c33 0 61 -6 86 -17v103zM357 93v338c-19 13 -40 19 -63 19
c-65 0 -98 -69 -98 -206c0 -119 31 -191 87 -191c29 0 53 13 74 40z" />
    <glyph glyph-name="Emacron" unicode="&#x112;" horiz-adv-x="633" 
d="M252 340v-302h253l55 107h36l-7 -145h-572v24l65 19v613l-65 20v24h562l7 -145h-36l-55 106h-243v-282h188l25 81h34v-202h-34l-25 82h-188zM454 790h-277v50h277v-50z" />
    <glyph glyph-name="emacron" unicode="&#x113;" horiz-adv-x="543" 
d="M502 259l-18 -17h-288c3 -132 46 -193 150 -193c53 0 96 17 130 51l22 -21c-56 -56 -126 -84 -209 -84c-80 0 -143 22 -189 66c-45 44 -68 103 -68 176c0 76 23 136 70 180c47 45 108 67 181 67c65 0 119 -17 161 -52s63 -79 63 -133c0 -17 -2 -30 -5 -40zM289 450
c-51 0 -89 -62 -93 -177l166 15c0 108 -24 162 -73 162zM422 570h-277v50h277v-50z" />
    <glyph glyph-name="Ebreve" unicode="&#x114;" horiz-adv-x="633" 
d="M252 340v-302h253l55 107h36l-7 -145h-572v24l65 19v613l-65 20v24h562l7 -145h-36l-55 106h-243v-282h188l25 81h34v-202h-34l-25 82h-188zM364 845c0 40 28 67 64 67s64 -26 64 -65c0 -33 -18 -58 -53 -75s-76 -25 -123 -25s-88 8 -124 25c-35 17 -53 43 -53 76
c0 39 29 64 65 64s63 -27 63 -67c0 -66 33 -67 49 -67c17 0 47 1 48 67z" />
    <glyph glyph-name="ebreve" unicode="&#x115;" horiz-adv-x="543" 
d="M502 259l-18 -17h-288c1 -131 45 -193 149 -193c53 0 96 17 131 51l21 -21c-55 -56 -124 -84 -209 -84c-79 0 -142 22 -188 66c-45 45 -68 103 -68 176c0 76 23 136 70 180c47 45 108 67 181 67c65 0 119 -17 160 -52c42 -34 63 -78 63 -133c0 -16 -1 -29 -4 -40z
M288 450c-51 0 -88 -62 -92 -177l165 15c0 108 -24 162 -73 162zM330 629c0 40 28 67 64 67s64 -25 64 -64c0 -33 -18 -59 -53 -76s-76 -25 -123 -25s-88 8 -124 25c-35 17 -53 43 -53 77c0 39 28 63 64 63c37 0 64 -27 64 -67c0 -66 33 -66 49 -66c12 0 17 1 29 8
s19 27 19 58z" />
    <glyph glyph-name="Edotaccent" unicode="&#x116;" horiz-adv-x="633" 
d="M252 340v-302h253l55 107h36l-7 -145h-572v24l65 19v613l-65 20v24h562l7 -145h-36l-55 106h-243v-282h188l25 81h34v-202h-34l-25 82h-188zM230 838c0 49 36 85 87 85c49 0 84 -34 84 -85s-35 -86 -84 -86c-51 0 -87 35 -87 86z" />
    <glyph glyph-name="edotaccent" unicode="&#x117;" horiz-adv-x="543" 
d="M502 259l-18 -17h-288c1 -131 45 -193 149 -193c53 0 96 17 131 51l21 -21c-55 -56 -124 -84 -209 -84c-79 0 -142 22 -188 66c-45 45 -68 103 -68 176c0 76 23 136 70 180c47 45 108 67 181 67c65 0 119 -17 160 -52c42 -34 63 -78 63 -133c0 -16 -1 -29 -4 -40z
M288 450c-51 0 -88 -62 -92 -177l165 15c0 108 -24 162 -73 162zM220 560c-16 16 -24 37 -24 62s8 46 24 61c16 16 37 24 62 24s46 -8 61 -24c16 -15 24 -36 24 -61s-8 -46 -24 -62c-15 -15 -36 -23 -61 -23s-46 8 -62 23z" />
    <glyph glyph-name="Eogonek" unicode="&#x118;" horiz-adv-x="633" 
d="M586 -172l10 -10c-35 -36 -69 -54 -104 -54c-40 0 -60 21 -60 63c0 58 31 116 93 173h-508v24l65 19v613l-65 20v24h562l7 -145h-36l-55 106h-243v-282h188l25 81h34v-202h-34l-25 82h-188v-302h253l55 107h36l-7 -145h-38c-33 -48 -56 -113 -56 -152
c0 -26 12 -39 36 -39s42 6 55 19z" />
    <glyph glyph-name="eogonek" unicode="&#x119;" horiz-adv-x="543" 
d="M494 -124l11 -10c-35 -35 -70 -53 -105 -53c-40 0 -60 21 -60 63c0 45 20 91 60 138c-34 -13 -71 -19 -111 -19c-80 0 -143 22 -189 66c-45 44 -68 103 -68 176c0 76 23 136 70 180c47 45 108 67 181 67c65 0 119 -17 161 -52s63 -79 63 -133c0 -17 -2 -30 -5 -40
l-18 -17h-288c3 -132 46 -193 150 -193c53 0 96 17 130 51l22 -21c-14 -14 -28 -26 -42 -35c-32 -47 -53 -111 -53 -148c0 -26 12 -39 36 -39c23 0 41 6 55 19zM289 450c-51 0 -89 -62 -93 -177l166 15c0 108 -24 162 -73 162z" />
    <glyph glyph-name="Ecaron" unicode="&#x11a;" horiz-adv-x="633" 
d="M252 340v-302h253l55 107h36l-7 -145h-572v24l65 19v613l-65 20v24h562l7 -145h-36l-55 106h-243v-282h188l25 81h34v-202h-34l-25 82h-188zM469 904l-142 -169h-21l-143 169l18 18l135 -76l134 76z" />
    <glyph glyph-name="ecaron" unicode="&#x11b;" horiz-adv-x="543" 
d="M502 259l-18 -17h-288c3 -132 46 -193 150 -193c53 0 96 17 130 51l22 -21c-56 -56 -126 -84 -209 -84c-80 0 -143 22 -189 66c-45 44 -68 103 -68 176c0 76 23 136 70 180c47 45 108 67 181 67c65 0 119 -17 161 -52s63 -79 63 -133c0 -17 -2 -30 -5 -40zM289 450
c-51 0 -89 -62 -93 -177l166 15c0 108 -24 162 -73 162zM437 688l-142 -169h-21l-143 169l18 19l135 -77l134 77z" />
    <glyph glyph-name="Gcircumflex" unicode="&#x11c;" horiz-adv-x="753" 
d="M735 317l-64 -26v-264l-17 -17l-75 27c-51 -29 -113 -44 -186 -44c-109 0 -195 32 -258 95c-63 64 -95 150 -95 259c0 110 32 197 97 262s150 97 257 97c73 0 135 -14 187 -43l56 24l13 -13l9 -155h-36c-37 96 -103 144 -200 144c-137 0 -205 -104 -205 -311
c0 -61 6 -113 18 -157c25 -88 87 -150 182 -150c33 0 61 7 83 20v228l-65 24v28h299v-28zM241 753l143 169h21l143 -169l-19 -18l-135 76l-134 -76z" />
    <glyph glyph-name="gcircumflex" unicode="&#x11d;" horiz-adv-x="572" 
d="M536 452l-62 -22h-29c32 -27 48 -61 48 -103c0 -47 -21 -85 -62 -113c-41 -27 -94 -41 -161 -41c-48 0 -90 7 -127 22c-12 -15 -18 -30 -18 -44c0 -29 19 -43 57 -43h150c137 0 205 -51 205 -153c0 -123 -100 -184 -300 -184c-143 0 -214 30 -214 89c0 43 38 83 102 106
c-51 17 -76 53 -76 110c0 53 22 89 67 133c-47 27 -70 66 -70 118c0 95 89 156 224 156c16 0 32 -1 47 -3h219v-28zM355 -43h-176c-16 -21 -24 -43 -24 -68c0 -55 39 -83 116 -83c97 0 163 37 163 90c0 35 -26 61 -79 61zM270 203c45 0 68 42 68 125s-23 125 -68 125
c-47 0 -70 -42 -70 -125s23 -125 70 -125zM116 537l143 170h21l142 -170l-19 -18l-134 76l-135 -76z" />
    <glyph glyph-name="Gbreve" unicode="&#x11e;" horiz-adv-x="753" 
d="M735 317l-64 -26v-264l-17 -17l-75 27c-51 -29 -113 -44 -186 -44c-109 0 -195 32 -258 95c-63 64 -95 150 -95 259c0 110 32 197 97 262s150 97 257 97c73 0 135 -14 187 -43l56 24l13 -13l9 -155h-36c-37 96 -103 144 -200 144c-137 0 -205 -104 -205 -311
c0 -61 6 -113 18 -157c25 -88 87 -150 182 -150c33 0 61 7 83 20v228l-65 24v28h299v-28zM439 845c0 40 27 67 64 67c35 0 64 -26 64 -65c0 -33 -18 -58 -54 -75c-35 -17 -76 -25 -123 -25s-88 8 -123 25s-53 43 -53 76c0 39 28 64 64 64s63 -27 63 -67c0 -66 33 -67 49 -67
s49 1 49 67z" />
    <glyph glyph-name="gbreve" unicode="&#x11f;" horiz-adv-x="572" 
d="M536 452l-62 -22h-29c32 -27 48 -61 48 -103c0 -47 -21 -85 -62 -113c-41 -27 -94 -41 -161 -41c-48 0 -90 7 -127 22c-12 -15 -18 -30 -18 -44c0 -29 19 -43 57 -43h150c137 0 205 -51 205 -153c0 -123 -100 -184 -300 -184c-143 0 -214 30 -214 89c0 43 38 83 102 106
c-51 17 -76 53 -76 110c0 53 22 89 67 133c-47 27 -70 66 -70 118c0 95 89 156 224 156c16 0 32 -1 47 -3h219v-28zM355 -43h-176c-16 -21 -24 -43 -24 -68c0 -55 39 -83 116 -83c97 0 163 37 163 90c0 35 -26 61 -79 61zM318 629c0 40 28 67 64 67s64 -25 64 -64
c0 -33 -18 -59 -54 -76c-35 -17 -76 -25 -122 -25c-47 0 -88 8 -124 25c-35 17 -53 43 -53 77c0 39 28 63 64 63c37 0 63 -27 63 -67c0 -31 7 -51 19 -58s18 -8 31 -8c12 0 17 1 29 8s19 27 19 58zM270 203c45 0 68 42 68 125s-23 125 -68 125c-47 0 -70 -42 -70 -125
s23 -125 70 -125z" />
    <glyph glyph-name="Gdotaccent" unicode="&#x120;" horiz-adv-x="753" 
d="M735 317l-64 -26v-264l-17 -17l-75 27c-51 -29 -113 -44 -186 -44c-109 0 -195 32 -258 95c-63 64 -95 150 -95 259c0 110 32 197 97 262s150 97 257 97c73 0 135 -14 187 -43l56 24l13 -13l9 -155h-36c-37 96 -103 144 -200 144c-137 0 -205 -104 -205 -311
c0 -61 6 -113 18 -157c25 -88 87 -150 182 -150c33 0 61 7 83 20v228l-65 24v28h299v-28zM391 923c49 0 85 -34 85 -85s-34 -86 -85 -86s-86 35 -86 86s35 85 86 85z" />
    <glyph glyph-name="gdotaccent" unicode="&#x121;" horiz-adv-x="572" 
d="M536 452l-62 -22h-29c32 -27 48 -61 48 -103c0 -47 -21 -85 -62 -113c-41 -27 -94 -41 -161 -41c-48 0 -90 7 -127 22c-12 -15 -18 -30 -18 -44c0 -29 19 -43 57 -43h150c137 0 205 -51 205 -153c0 -123 -100 -184 -300 -184c-143 0 -214 30 -214 89c0 43 38 83 102 106
c-51 17 -76 53 -76 110c0 53 22 89 67 133c-47 27 -70 66 -70 118c0 95 89 156 224 156c16 0 32 -1 47 -3h219v-28zM355 -43h-176c-16 -21 -24 -43 -24 -68c0 -55 39 -83 116 -83c97 0 163 37 163 90c0 35 -26 61 -79 61zM270 203c45 0 68 42 68 125s-23 125 -68 125
c-47 0 -70 -42 -70 -125s23 -125 70 -125zM270 707c49 0 84 -34 84 -85s-35 -85 -84 -85c-51 0 -87 36 -87 85s36 85 87 85z" />
    <glyph glyph-name="Gcommaaccent" unicode="&#x122;" horiz-adv-x="753" 
d="M735 317l-64 -26v-264l-17 -17l-75 27c-51 -29 -113 -44 -186 -44c-109 0 -195 32 -258 95c-63 64 -95 150 -95 259c0 110 32 197 97 262s150 97 257 97c73 0 135 -14 187 -43l56 24l13 -13l9 -155h-36c-37 96 -103 144 -200 144c-137 0 -205 -104 -205 -311
c0 -61 6 -113 18 -157c25 -88 87 -150 182 -150c33 0 61 7 83 20v228l-65 24v28h299v-28zM364 -250l-15 15c30 31 45 55 45 71c0 4 -1 7 -3 8c-49 -5 -71 62 -39 93c30 31 99 13 95 -44c0 -40 -28 -88 -83 -143z" />
    <glyph glyph-name="gcommaaccent" unicode="&#x123;" horiz-adv-x="572" 
d="M536 452l-62 -22h-29c32 -27 48 -61 48 -103c0 -47 -21 -85 -62 -113c-41 -27 -94 -41 -161 -41c-48 0 -90 7 -127 22c-12 -15 -18 -30 -18 -44c0 -29 19 -43 57 -43h150c137 0 205 -51 205 -153c0 -123 -100 -184 -300 -184c-143 0 -214 30 -214 89c0 43 38 83 102 106
c-51 17 -76 53 -76 110c0 53 22 89 67 133c-47 27 -70 66 -70 118c0 95 89 156 224 156c16 0 32 -1 47 -3h219v-28zM355 -43h-176c-16 -21 -24 -43 -24 -68c0 -55 39 -83 116 -83c97 0 163 37 163 90c0 35 -26 61 -79 61zM270 203c45 0 68 42 68 125s-23 125 -68 125
c-47 0 -70 -42 -70 -125s23 -125 70 -125zM296 724l16 -15c-21 -21 -46 -56 -46 -71c0 -4 1 -7 3 -8c49 5 73 -62 39 -93c-30 -31 -99 -14 -95 45c0 39 28 87 83 142z" />
    <glyph glyph-name="Hcircumflex" unicode="&#x124;" horiz-adv-x="786" 
d="M17 0v29l65 26v593l-65 24v28h300v-28l-65 -25v-273h282v274l-65 24v28h300v-28l-65 -25v-596l65 -23v-28h-300v29l65 26v280h-282v-284l65 -23v-28h-300zM239 753l143 169h21l143 -169l-19 -18l-135 76l-134 -76z" />
    <glyph glyph-name="hcircumflex" unicode="&#x125;" horiz-adv-x="643" 
d="M240 383v-333l49 -22v-28h-272v29l60 25v618l-60 20v28l206 24l17 -18v-246l-3 -59l3 -3c41 40 106 66 166 66c51 0 90 -17 117 -50c28 -33 42 -74 42 -123v-261l60 -22v-28h-272v29l49 25v241c0 79 -23 131 -71 131c-34 0 -64 -14 -91 -43zM168 779l143 170h20l143 -170
l-19 -18l-134 76l-135 -76z" />
    <glyph glyph-name="Hbar" unicode="&#x126;" horiz-adv-x="773" 
d="M82 492h-65v23l65 16v117l-65 24v28h300v-28l-65 -25v-116h269v117l-65 24v28h300v-28l-65 -25v-116l65 -16v-23h-65v-441l65 -23v-28h-300v29l65 26v280h-269v-284l65 -23v-28h-300v29l65 26v437zM252 492v-118h269v118h-269z" />
    <glyph glyph-name="hbar" unicode="&#x127;" horiz-adv-x="643" 
d="M17 589l60 15v68l-60 20v28l206 24l17 -18v-122h172v-38h-172v-86l-3 -59l3 -3c41 40 106 66 166 66c51 0 90 -17 117 -50c28 -33 42 -74 42 -123v-261l60 -22v-28h-272v29l49 25v241c0 79 -23 131 -71 131c-34 0 -64 -14 -91 -43v-333l49 -22v-28h-272v29l60 25v512h-60
v23z" />
    <glyph glyph-name="Itilde" unicode="&#x128;" horiz-adv-x="335" 
d="M315 672l-64 -25v-596l64 -23v-28h-297v29l65 26v593l-65 24v28h297v-28zM-3 762l-19 20c70 71 120 107 149 107c13 0 33 -8 58 -23s46 -23 62 -23c27 0 67 18 94 45l19 -18c-73 -73 -125 -110 -154 -110c-13 0 -33 8 -59 23c-25 16 -46 24 -63 24c-29 0 -58 -15 -87 -45
z" />
    <glyph glyph-name="itilde" unicode="&#x129;" horiz-adv-x="318" 
d="M-12 547l-19 19c72 72 122 108 150 108c13 0 33 -8 58 -24c25 -15 46 -23 62 -23c25 0 66 18 93 45l19 -18c-73 -73 -124 -109 -154 -109c-13 0 -32 8 -58 23s-47 23 -64 23c-29 0 -58 -15 -87 -44zM300 0h-283v29l60 25v359l-56 20v32l202 24l17 -18v-421l60 -22v-28z
" />
    <glyph glyph-name="Imacron" unicode="&#x12a;" horiz-adv-x="335" 
d="M315 672l-64 -25v-596l64 -23v-28h-297v29l65 26v593l-65 24v28h297v-28zM306 790h-277v50h277v-50z" />
    <glyph glyph-name="imacron" unicode="&#x12b;" horiz-adv-x="318" 
d="M300 0h-283v29l60 25v359l-56 20v32l202 24l17 -18v-421l60 -22v-28zM297 570h-277v50h277v-50z" />
    <glyph glyph-name="Ibreve" unicode="&#x12c;" horiz-adv-x="335" 
d="M315 672l-64 -25v-596l64 -23v-28h-297v29l65 26v593l-65 24v28h297v-28zM216 845c0 40 27 67 64 67c36 0 64 -26 64 -65c0 -33 -18 -58 -54 -75c-35 -17 -76 -25 -123 -25s-88 8 -123 25s-53 43 -53 76c0 39 28 64 64 64c37 0 63 -27 63 -67c0 -66 33 -67 49 -67
s49 1 49 67z" />
    <glyph glyph-name="ibreve" unicode="&#x12d;" horiz-adv-x="318" 
d="M194 629c0 40 27 67 64 67c36 0 64 -25 64 -64c0 -33 -18 -59 -54 -76c-35 -17 -76 -25 -123 -25s-88 8 -123 25s-53 43 -53 77c0 39 28 63 64 63s63 -27 63 -67c0 -66 33 -66 49 -66s49 0 49 66zM300 0h-283v29l60 25v359l-56 20v32l202 24l17 -18v-421l60 -22v-28z" />
    <glyph glyph-name="Iogonek" unicode="&#x12e;" horiz-adv-x="335" 
d="M305 -172l10 -10c-35 -36 -69 -54 -104 -54c-40 0 -60 21 -60 63c0 58 31 116 93 173h-226v29l65 26v593l-65 24v28h297v-28l-64 -25v-596l64 -23v-28h-45c-33 -48 -56 -113 -56 -152c0 -26 12 -39 36 -39s42 6 55 19z" />
    <glyph glyph-name="iogonek" unicode="&#x12f;" horiz-adv-x="318" 
d="M228 0h-211v29l60 25v359l-56 20v32l202 24l17 -18v-421l60 -22v-28h-46c-33 -48 -56 -115 -56 -152c0 -26 12 -39 36 -39c25 0 43 6 55 19l11 -10c-36 -36 -71 -54 -105 -54c-40 0 -60 21 -60 63c0 58 31 116 93 173zM85 555c-17 17 -26 40 -26 67s9 50 26 67
c18 17 41 26 68 26s50 -9 67 -26s26 -40 26 -67s-9 -50 -26 -67s-40 -26 -67 -26s-50 9 -68 26z" />
    <glyph glyph-name="Idot" unicode="&#x130;" horiz-adv-x="335" 
d="M315 672l-64 -25v-596l64 -23v-28h-297v29l65 26v593l-65 24v28h297v-28zM167 923c49 0 85 -34 85 -85s-34 -86 -85 -86s-86 35 -86 86s35 85 86 85z" />
    <glyph glyph-name="dotlessi" unicode="&#x131;" horiz-adv-x="318" 
d="M300 0h-283v29l60 25v359l-56 20v32l202 24l17 -18v-421l60 -22v-28z" />
    <glyph glyph-name="IJ" unicode="&#x132;" horiz-adv-x="667" 
d="M315 672l-64 -25v-596l64 -23v-28h-297v29l65 26v593l-65 24v28h297v-28zM417 16v632l-65 24v28h295v-28l-64 -25v-631c0 -101 -70 -183 -211 -248l-21 22c44 61 66 137 66 226z" />
    <glyph glyph-name="ij" unicode="&#x133;" horiz-adv-x="633" 
d="M300 0h-283v29l60 25v359l-56 20v32l202 24l17 -18v-421l60 -22v-28zM85 555c-17 17 -26 40 -26 67s9 50 26 67c18 17 41 26 68 26s50 -9 67 -26s26 -40 26 -67s-9 -50 -26 -67s-40 -26 -67 -26s-50 9 -68 26zM392 16v397l-56 20v32l202 24l17 -18v-455
c0 -100 -68 -183 -205 -248l-21 22c42 59 63 134 63 226zM401 555c-17 17 -26 40 -26 67s9 50 26 67s40 26 67 26s50 -9 67 -26s26 -40 26 -67s-9 -50 -26 -67s-40 -26 -67 -26s-50 9 -67 26z" />
    <glyph glyph-name="Jcircumflex" unicode="&#x134;" horiz-adv-x="335" 
d="M84 16v632l-65 24v28h295v-28l-64 -25v-631c0 -100 -70 -183 -210 -248l-22 22c44 61 66 137 66 226zM14 753l142 169h21l143 -169l-19 -18l-134 76l-135 -76z" />
    <glyph glyph-name="jcircumflex" unicode="&#x135;" horiz-adv-x="318" 
d="M77 16v397l-56 20v32l202 24l17 -18v-455c0 -100 -68 -183 -205 -248l-22 22c43 59 64 135 64 226zM6 537l143 170h21l142 -170l-19 -18l-134 76l-135 -76z" />
    <glyph glyph-name="Kcommaaccent" unicode="&#x136;" horiz-adv-x="732" 
d="M316 672l-65 -25v-296l288 297l-85 24v28h214v-28l-73 -24l-178 -185l244 -413l63 -22v-28h-221l-203 349l-49 -51v-247l65 -23v-28h-301v29l65 26v593l-65 24v28h301v-28zM338 -250l-16 15c23 23 46 56 46 71c0 4 -1 7 -3 8c-32 0 -54 21 -54 54c-7 69 115 74 110 -5
c0 -40 -28 -88 -83 -143z" />
    <glyph glyph-name="kcommaaccent" unicode="&#x137;" horiz-adv-x="605" 
d="M599 0h-198l-124 226l-37 -37v-139l60 -22v-28h-283v29l60 25v618l-60 20v28l206 24l17 -18v-484l195 188l-80 22v28h204v-28l-67 -22l-103 -99l152 -282l58 -21v-28zM274 -250l-16 15c23 23 46 56 46 71c0 4 -1 7 -3 8c-32 0 -54 21 -54 54c-7 69 115 74 110 -5
c0 -40 -28 -88 -83 -143z" />
    <glyph glyph-name="Lacute" unicode="&#x139;" horiz-adv-x="603" 
d="M252 647v-609h222l53 107h37l-7 -145h-540v24l65 19v605l-65 24v28h300v-28zM88 735l-18 18l144 169l90 -90z" />
    <glyph glyph-name="lacute" unicode="&#x13a;" horiz-adv-x="318" 
d="M300 0h-283v29l60 25v618l-60 20v28l206 24l17 -18v-676l60 -22v-28zM80 757l-19 19l145 169l90 -90z" />
    <glyph glyph-name="Lcommaaccent" unicode="&#x13b;" horiz-adv-x="603" 
d="M252 647v-609h222l53 107h37l-7 -145h-540v24l65 19v605l-65 24v28h300v-28zM275 -250l-16 15c30 31 45 55 45 71c0 4 -1 7 -3 8c-32 0 -54 22 -54 54s23 54 54 54c32 0 57 -22 57 -59c0 -38 -28 -86 -83 -143z" />
    <glyph glyph-name="lcommaaccent" unicode="&#x13c;" horiz-adv-x="318" 
d="M300 0h-283v29l60 25v618l-60 20v28l206 24l17 -18v-676l60 -22v-28zM130 -250l-15 15c30 31 45 55 45 71c0 4 -1 7 -3 8c-32 0 -54 22 -54 54s23 54 54 54c32 0 57 -22 57 -59c0 -39 -28 -87 -84 -143z" />
    <glyph glyph-name="Lcaron" unicode="&#x13d;" horiz-adv-x="603" 
d="M252 647v-609h222l53 107h37l-7 -145h-540v24l65 19v605l-65 24v28h300v-28zM321 901l-142 -169h-21l-143 169l18 18l135 -76l134 76z" />
    <glyph glyph-name="lcaron" unicode="&#x13e;" horiz-adv-x="415" 
d="M300 0h-283v29l60 25v618l-60 20v28l206 24l17 -18v-676l60 -22v-28zM315 538l-15 15c21 21 45 56 45 71c0 4 -1 7 -3 8c-49 -5 -71 62 -39 93c30 31 99 13 95 -45c0 -39 -28 -87 -83 -142z" />
    <glyph glyph-name="Ldot" unicode="&#x13f;" horiz-adv-x="603" 
d="M252 647v-609h222l53 107h37l-7 -145h-540v24l65 19v605l-65 24v28h300v-28zM393 349c0 44 30 75 73 75c45 0 75 -31 75 -75s-30 -74 -75 -74c-43 0 -73 31 -73 74z" />
    <glyph glyph-name="ldot" unicode="&#x140;" horiz-adv-x="488" 
d="M300 0h-283v29l60 25v618l-60 20v28l206 24l17 -18v-676l60 -22v-28zM324 299c0 44 31 75 74 75c44 0 75 -31 75 -75c0 -43 -31 -74 -75 -74c-43 0 -74 31 -74 74z" />
    <glyph glyph-name="Lslash" unicode="&#x141;" horiz-adv-x="603" 
d="M82 221l-48 -49l-28 28l76 76v372l-65 24v28h300v-28l-65 -25v-252l105 104l27 -27l-132 -132v-302h222l53 107h37l-7 -145h-540v24l65 19v178z" />
    <glyph glyph-name="lslash" unicode="&#x142;" horiz-adv-x="318" 
d="M77 234l-43 -43l-28 28l71 70v383l-60 20v28l206 24l17 -18v-307l44 44l27 -28l-71 -71v-314l60 -22v-28h-283v29l60 25v180z" />
    <glyph glyph-name="Nacute" unicode="&#x143;" horiz-adv-x="705" 
d="M17 0v19l65 26v603l-65 24v28h232l335 -467v426l-65 24v17h169v-17l-65 -26v-657h-61l-441 616v-575l65 -24v-17h-169zM273 735l-18 18l144 169l90 -90z" />
    <glyph glyph-name="nacute" unicode="&#x144;" horiz-adv-x="643" 
d="M240 383v-333l49 -22v-28h-272v29l60 25v359l-56 20v32l202 24l17 -18l-3 -50l3 -3c43 41 112 66 172 66c49 0 87 -17 113 -50c27 -33 40 -74 40 -123v-261l60 -22v-28h-272v29l49 25v241c0 79 -24 131 -72 131c-33 0 -63 -14 -90 -43zM242 519l-18 18l144 170l90 -91z
" />
    <glyph glyph-name="Ncommaaccent" unicode="&#x145;" horiz-adv-x="705" 
d="M17 0v19l65 26v603l-65 24v28h232l335 -467v426l-65 24v17h169v-17l-65 -26v-657h-61l-441 616v-575l65 -24v-17h-169zM324 -250l-16 15c30 31 45 55 45 71c0 4 -1 7 -3 8c-49 -5 -71 62 -39 93s100 13 96 -44c0 -40 -28 -88 -83 -143z" />
    <glyph glyph-name="ncommaaccent" unicode="&#x146;" horiz-adv-x="643" 
d="M240 383v-333l49 -22v-28h-272v29l60 25v359l-56 20v32l202 24l17 -18l-3 -50l3 -3c43 41 112 66 172 66c49 0 87 -17 113 -50c27 -33 40 -74 40 -123v-261l60 -22v-28h-272v29l49 25v241c0 79 -24 131 -72 131c-33 0 -63 -14 -90 -43zM293 -250l-16 15
c23 23 46 56 46 71c0 4 -1 7 -3 8c-32 0 -54 21 -54 54c-7 69 115 74 110 -5c0 -40 -28 -88 -83 -143z" />
    <glyph glyph-name="Ncaron" unicode="&#x147;" horiz-adv-x="705" 
d="M17 0v19l65 26v603l-65 24v28h232l335 -467v426l-65 24v17h169v-17l-65 -26v-657h-61l-441 616v-575l65 -24v-17h-169zM505 904l-143 -169h-21l-143 169l19 18l134 -76l135 76z" />
    <glyph glyph-name="ncaron" unicode="&#x148;" horiz-adv-x="643" 
d="M240 383v-333l49 -22v-28h-272v29l60 25v359l-56 20v32l202 24l17 -18l-3 -50l3 -3c43 41 112 66 172 66c49 0 87 -17 113 -50c27 -33 40 -74 40 -123v-261l60 -22v-28h-272v29l49 25v241c0 79 -24 131 -72 131c-33 0 -63 -14 -90 -43zM474 688l-143 -169h-20l-143 169
l18 19l135 -77l134 77z" />
    <glyph glyph-name="Eng" unicode="&#x14a;" horiz-adv-x="705" 
d="M17 0v19l65 26v603l-65 24v28h232l335 -587v546l-65 24v17h169v-17l-65 -26v-641c0 -99 -71 -182 -212 -248l-23 22c43 59 65 135 65 226v20l-332 580v-575l65 -24v-17h-169z" />
    <glyph glyph-name="eng" unicode="&#x14b;" horiz-adv-x="643" 
d="M402 16v279c0 79 -24 131 -72 131c-33 0 -63 -14 -90 -43v-333l60 -22v-28h-283v29l60 25v359l-56 20v32l202 24l17 -18l-3 -50l3 -3c43 41 112 66 172 66c49 0 87 -17 113 -50c27 -33 40 -74 40 -123v-295c0 -100 -68 -183 -205 -248l-21 22c42 59 63 134 63 226z" />
    <glyph glyph-name="Omacron" unicode="&#x14c;" horiz-adv-x="767" 
d="M727 349c0 -109 -32 -195 -95 -260c-63 -64 -146 -96 -249 -96s-186 32 -249 96c-63 65 -94 151 -94 260s31 195 94 260s146 97 249 97s186 -32 249 -97c63 -64 95 -151 95 -260zM218 349c0 -217 64 -323 165 -323c103 0 166 106 166 323c0 219 -63 324 -166 324
c-101 0 -165 -105 -165 -324zM522 790h-277v50h277v-50z" />
    <glyph glyph-name="omacron" unicode="&#x14d;" horiz-adv-x="570" 
d="M101 61c-46 44 -69 103 -69 178s23 134 69 178c47 45 108 67 184 67s137 -22 183 -67c47 -44 70 -103 70 -178s-23 -134 -70 -178c-46 -44 -107 -66 -183 -66s-137 22 -184 66zM285 29c59 0 88 70 88 210c0 141 -29 211 -88 211c-55 0 -89 -68 -89 -211s34 -210 89 -210z
M423 570h-277v50h277v-50z" />
    <glyph glyph-name="Obreve" unicode="&#x14e;" horiz-adv-x="767" 
d="M727 349c0 -109 -32 -195 -95 -260c-63 -64 -146 -96 -249 -96s-186 32 -249 96c-63 65 -94 151 -94 260s31 195 94 260s146 97 249 97s186 -32 249 -97c63 -64 95 -151 95 -260zM218 349c0 -217 64 -323 165 -323c103 0 166 106 166 323c0 219 -63 324 -166 324
c-101 0 -165 -105 -165 -324zM432 845c0 40 28 67 64 67s64 -26 64 -65c0 -33 -18 -58 -54 -75c-35 -17 -76 -25 -123 -25c-46 0 -87 8 -123 25c-35 17 -53 43 -53 76c0 39 28 64 64 64c37 0 63 -27 63 -67c0 -66 33 -67 49 -67s49 1 49 67z" />
    <glyph glyph-name="obreve" unicode="&#x14f;" horiz-adv-x="570" 
d="M101 61c-46 44 -69 103 -69 178s23 134 69 178c47 45 108 67 184 67s137 -22 183 -67c47 -44 70 -103 70 -178s-23 -134 -70 -178c-46 -44 -107 -66 -183 -66s-137 22 -184 66zM285 29c59 0 88 70 88 210c0 141 -29 211 -88 211c-55 0 -89 -68 -89 -211s34 -210 89 -210z
M333 629c0 40 28 67 64 67s64 -25 64 -64c0 -33 -18 -59 -54 -76c-35 -17 -76 -25 -123 -25c-83 -2 -174 32 -176 102c0 39 28 63 64 63c37 0 63 -27 63 -67c0 -66 33 -66 49 -66s49 0 49 66z" />
    <glyph glyph-name="Ohungarumlaut" unicode="&#x150;" horiz-adv-x="767" 
d="M727 349c0 -109 -32 -195 -95 -260c-63 -64 -146 -96 -249 -96s-186 32 -249 96c-63 65 -94 151 -94 260s31 195 94 260s146 97 249 97s186 -32 249 -97c63 -64 95 -151 95 -260zM218 349c0 -217 64 -323 165 -323c103 0 166 106 166 323c0 219 -63 324 -166 324
c-101 0 -165 -105 -165 -324zM206 735l-18 18l127 169l89 -90zM401 735l-19 18l127 169l90 -90z" />
    <glyph glyph-name="ohungarumlaut" unicode="&#x151;" horiz-adv-x="570" 
d="M101 61c-46 44 -69 103 -69 178s23 134 69 178c47 45 108 67 184 67s137 -22 183 -67c47 -44 70 -103 70 -178s-23 -134 -70 -178c-46 -44 -107 -66 -183 -66s-137 22 -184 66zM285 29c59 0 88 70 88 210c0 141 -29 211 -88 211c-55 0 -89 -68 -89 -211s34 -210 89 -210z
M107 519l-18 18l127 170l90 -91zM302 519l-18 18l126 170l90 -91z" />
    <glyph glyph-name="OE" unicode="&#x152;" horiz-adv-x="996" 
d="M631 340v-302h237l54 107h37l-8 -145h-490c-29 -5 -55 -7 -78 -7c-103 0 -186 32 -249 96c-63 65 -94 151 -94 260s31 195 94 260s146 97 249 97c27 0 52 -2 77 -6h481l8 -145h-37l-54 106h-227v-282h173l24 81h34v-202h-34l-24 82h-173zM383 26c34 0 61 17 82 50v547
c-21 33 -48 50 -82 50c-101 0 -165 -105 -165 -324c0 -217 64 -323 165 -323z" />
    <glyph glyph-name="oe" unicode="&#x153;" horiz-adv-x="873" 
d="M831 259l-17 -17h-289c3 -132 46 -193 150 -193c53 0 96 17 131 51l21 -21c-56 -56 -126 -84 -209 -84c-71 0 -128 20 -169 59c-43 -39 -97 -59 -164 -59c-76 0 -137 22 -184 66c-46 44 -69 103 -69 178s23 134 69 178c47 45 108 67 184 67c68 0 123 -20 165 -60
c43 40 97 60 162 60s119 -17 161 -52s63 -79 63 -133c0 -17 -2 -30 -5 -40zM285 29c46 0 74 46 85 137c-6 23 -9 46 -9 71c0 26 3 50 9 72c-11 94 -39 141 -85 141c-55 0 -89 -68 -89 -211s34 -210 89 -210zM618 450c-51 0 -89 -64 -92 -177l165 15c0 108 -24 162 -73 162z
" />
    <glyph glyph-name="Racute" unicode="&#x154;" horiz-adv-x="707" 
d="M620 507c0 -89 -61 -155 -166 -179c30 -11 57 -39 82 -86l100 -192l64 -22v-28h-216l-165 316h-67v-265l65 -23v-28h-300v29l65 26v601l-65 20v24h331c82 0 148 -17 197 -52c50 -35 75 -82 75 -141zM331 661h-79v-305h79c76 0 114 51 114 152c0 102 -38 153 -114 153z
M269 735l-18 18l145 169l89 -90z" />
    <glyph glyph-name="racute" unicode="&#x155;" horiz-adv-x="511" 
d="M17 29l60 25v359l-56 20v32l202 24l17 -19l-3 -66l3 -3c1 1 37 82 124 83c65 0 121 -44 121 -115c0 -55 -31 -81 -74 -81c-47 0 -77 31 -77 80v70c-3 2 -8 3 -13 3c-28 0 -58 -38 -71 -69l-10 -23v-297l92 -24v-28h-315v29zM189 519l-19 18l145 170l90 -91z" />
    <glyph glyph-name="Rcommaaccent" unicode="&#x156;" horiz-adv-x="707" 
d="M620 507c0 -89 -61 -155 -166 -179c30 -11 57 -39 82 -86l100 -192l64 -22v-28h-216l-165 316h-67v-265l65 -23v-28h-300v29l65 26v601l-65 20v24h331c82 0 148 -17 197 -52c50 -35 75 -82 75 -141zM331 661h-79v-305h79c76 0 114 51 114 152c0 102 -38 153 -114 153z
M325 -250l-15 15c30 31 45 55 45 71c0 4 -1 7 -3 8c-49 -5 -71 62 -39 93c32 32 96 12 96 -44c0 -39 -28 -87 -84 -143z" />
    <glyph glyph-name="rcommaaccent" unicode="&#x157;" horiz-adv-x="511" 
d="M17 29l60 25v359l-56 20v32l202 24l17 -19l-3 -66l3 -3c1 1 37 82 124 83c65 0 121 -44 121 -115c0 -55 -31 -81 -74 -81c-47 0 -77 31 -77 80v70c-3 2 -8 3 -13 3c-28 0 -58 -38 -71 -69l-10 -23v-297l92 -24v-28h-315v29zM135 -250l-16 15c31 32 46 56 46 71
c0 4 -1 7 -3 8c-49 -5 -72 62 -40 93s100 13 96 -44c0 -40 -28 -88 -83 -143z" />
    <glyph glyph-name="Rcaron" unicode="&#x158;" horiz-adv-x="707" 
d="M620 507c0 -89 -61 -155 -166 -179c30 -11 57 -39 82 -86l100 -192l64 -22v-28h-216l-165 316h-67v-265l65 -23v-28h-300v29l65 26v601l-65 20v24h331c82 0 148 -17 197 -52c50 -35 75 -82 75 -141zM331 661h-79v-305h79c76 0 114 51 114 152c0 102 -38 153 -114 153z
M495 904l-143 -169h-21l-142 169l18 18l135 -76l134 76z" />
    <glyph glyph-name="rcaron" unicode="&#x159;" horiz-adv-x="511" 
d="M17 29l60 25v359l-56 20v32l202 24l17 -19l-3 -66l3 -3c1 1 37 82 124 83c65 0 121 -44 121 -115c0 -55 -31 -81 -74 -81c-47 0 -77 31 -77 80v70c-3 2 -8 3 -13 3c-28 0 -58 -38 -71 -69l-10 -23v-297l92 -24v-28h-315v29zM413 688l-142 -169h-21l-143 169l18 19
l135 -77l134 77z" />
    <glyph glyph-name="Sacute" unicode="&#x15a;" horiz-adv-x="599" 
d="M64 5l-13 14l-9 156h37c9 -36 26 -66 49 -90c47 -47 94 -59 146 -59c84 0 142 44 142 131c0 33 -10 56 -31 71c-20 15 -60 33 -121 52l-48 16c-10 3 -25 9 -44 17s-33 15 -42 21c-19 13 -52 38 -64 62c-12 25 -24 61 -24 101c0 125 80 209 249 209c63 0 119 -13 170 -38
l41 26l13 -14l9 -156h-37c-13 53 -37 91 -70 114s-67 35 -104 35c-77 0 -126 -49 -126 -120c0 -33 7 -54 36 -73c15 -9 28 -17 41 -22l62 -22c34 -12 59 -21 76 -28s38 -17 62 -30s42 -27 53 -41c23 -27 43 -72 43 -128c0 -133 -86 -216 -274 -216c-68 0 -128 13 -181 38z
M214 735l-19 18l145 169l89 -90z" />
    <glyph glyph-name="sacute" unicode="&#x15b;" horiz-adv-x="449" 
d="M51 3l-12 12v118h40c19 -69 61 -104 127 -104c56 0 93 26 93 74c0 20 -7 34 -21 42c-13 8 -39 17 -78 28l-31 9l-28 9c-15 5 -24 9 -29 12l-24 14c-21 13 -26 25 -38 44s-15 41 -15 69c0 95 59 154 188 154c50 0 94 -8 133 -25l21 16l12 -12v-114h-40
c-20 67 -58 101 -114 101c-51 0 -81 -28 -81 -69c0 -37 22 -48 87 -68l55 -18c12 -4 27 -11 46 -21c51 -26 69 -58 75 -125c0 -103 -69 -154 -208 -154c-52 0 -98 8 -138 24zM145 519l-18 18l145 170l89 -91z" />
    <glyph glyph-name="Scircumflex" unicode="&#x15c;" horiz-adv-x="599" 
d="M64 5l-13 14l-9 156h37c9 -36 26 -66 49 -90c47 -47 94 -59 146 -59c84 0 142 44 142 131c0 33 -10 56 -31 71c-20 15 -60 33 -121 52l-48 16c-10 3 -25 9 -44 17s-33 15 -42 21c-19 13 -52 38 -64 62c-12 25 -24 61 -24 101c0 125 80 209 249 209c63 0 119 -13 170 -38
l41 26l13 -14l9 -156h-37c-13 53 -37 91 -70 114s-67 35 -104 35c-77 0 -126 -49 -126 -120c0 -33 7 -54 36 -73c15 -9 28 -17 41 -22l62 -22c34 -12 59 -21 76 -28s38 -17 62 -30s42 -27 53 -41c23 -27 43 -72 43 -128c0 -133 -86 -216 -274 -216c-68 0 -128 13 -181 38z
M137 753l143 169h21l143 -169l-19 -18l-135 76l-134 -76z" />
    <glyph glyph-name="scircumflex" unicode="&#x15d;" horiz-adv-x="449" 
d="M51 3l-12 12v118h40c19 -69 61 -104 127 -104c56 0 93 26 93 74c0 20 -7 34 -21 42c-13 8 -39 17 -78 28l-31 9l-28 9c-15 5 -24 9 -29 12l-24 14c-21 13 -26 25 -38 44s-15 41 -15 69c0 95 59 154 188 154c50 0 94 -8 133 -25l21 16l12 -12v-114h-40
c-20 67 -58 101 -114 101c-51 0 -81 -28 -81 -69c0 -37 22 -48 87 -68l55 -18c12 -4 27 -11 46 -21c51 -26 69 -58 75 -125c0 -103 -69 -154 -208 -154c-52 0 -98 8 -138 24zM73 537l142 170h21l143 -170l-19 -18l-134 76l-135 -76z" />
    <glyph glyph-name="Scedilla" unicode="&#x15e;" horiz-adv-x="599" 
d="M209 -120l62 113c-62 2 -117 15 -166 38l-41 -26l-13 14l-9 156h37c9 -36 26 -66 49 -90c47 -47 94 -59 146 -59c84 0 142 44 142 131c0 33 -10 56 -31 71c-20 15 -60 33 -121 52l-48 16c-10 3 -25 9 -44 17s-33 15 -42 21c-19 13 -52 38 -64 62c-12 25 -24 61 -24 101
c0 125 80 209 249 209c63 0 119 -13 170 -38l41 26l13 -14l9 -156h-37c-13 53 -37 91 -70 114s-67 35 -104 35c-77 0 -126 -49 -126 -120c0 -33 7 -54 36 -73c15 -9 28 -17 41 -22l62 -22c34 -12 59 -21 76 -28s38 -17 62 -30s42 -27 53 -41c23 -27 43 -72 43 -128
c0 -131 -82 -212 -262 -216l-17 -34c48 0 83 -17 83 -52c0 -31 -36 -80 -107 -145l-10 11c28 28 42 52 42 73c0 23 -27 34 -80 34z" />
    <glyph glyph-name="scedilla" unicode="&#x15f;" horiz-adv-x="449" 
d="M132 -120l63 115c-49 2 -91 10 -124 24l-20 -16l-12 12v118h40c19 -69 61 -104 127 -104c56 0 93 26 93 74c0 20 -7 34 -21 42c-13 8 -39 17 -78 28l-31 9l-28 9c-15 5 -24 9 -29 12l-24 14c-21 13 -26 25 -38 44s-15 41 -15 69c0 95 59 154 188 154c50 0 94 -8 133 -25
l21 16l12 -12v-114h-40c-20 67 -58 101 -114 101c-51 0 -81 -28 -81 -69c0 -37 22 -48 87 -68l55 -18c12 -4 27 -11 46 -21c51 -26 69 -58 75 -125c0 -99 -65 -151 -195 -154l-18 -36c48 0 83 -17 83 -52c0 -31 -36 -79 -107 -145l-11 11c29 29 43 53 43 73
c0 23 -27 34 -80 34z" />
    <glyph glyph-name="Scaron" unicode="&#x160;" horiz-adv-x="599" 
d="M64 5l-13 14l-9 156h37c9 -36 26 -66 49 -90c47 -47 94 -59 146 -59c84 0 142 44 142 131c0 33 -10 56 -31 71c-20 15 -60 33 -121 52l-48 16c-10 3 -25 9 -44 17s-33 15 -42 21c-19 13 -52 38 -64 62c-12 25 -24 61 -24 101c0 125 80 209 249 209c63 0 119 -13 170 -38
l41 26l13 -14l9 -156h-37c-13 53 -37 91 -70 114s-67 35 -104 35c-77 0 -126 -49 -126 -120c0 -33 7 -54 36 -73c15 -9 28 -17 41 -22l62 -22c34 -12 59 -21 76 -28s38 -17 62 -30s42 -27 53 -41c23 -27 43 -72 43 -128c0 -133 -86 -216 -274 -216c-68 0 -128 13 -181 38z
M444 904l-143 -169h-21l-143 169l19 18l134 -76l135 76z" />
    <glyph glyph-name="scaron" unicode="&#x161;" horiz-adv-x="449" 
d="M51 3l-12 12v118h40c19 -69 61 -104 127 -104c56 0 93 26 93 74c0 20 -7 34 -21 42c-13 8 -39 17 -78 28l-31 9l-28 9c-15 5 -24 9 -29 12l-24 14c-21 13 -26 25 -38 44s-15 41 -15 69c0 95 59 154 188 154c50 0 94 -8 133 -25l21 16l12 -12v-114h-40
c-20 67 -58 101 -114 101c-51 0 -81 -28 -81 -69c0 -37 22 -48 87 -68l55 -18c12 -4 27 -11 46 -21c51 -26 69 -58 75 -125c0 -103 -69 -154 -208 -154c-52 0 -98 8 -138 24zM379 688l-143 -169h-21l-142 169l18 19l135 -77l134 77z" />
    <glyph glyph-name="Tcommaaccent" unicode="&#x162;" horiz-adv-x="684" 
d="M626 555l-54 106h-144v-610l65 -23v-28h-300v29l65 26v606h-145l-54 -109h-37l8 148h626l6 -145h-36zM314 -250l-16 15c23 23 46 56 46 71c0 4 -1 7 -3 8c-32 0 -54 21 -54 54c-7 69 115 74 110 -5c0 -40 -28 -88 -83 -143z" />
    <glyph glyph-name="tcommaaccent" unicode="&#x163;" horiz-adv-x="412" 
d="M77 441h-59v19c79 27 148 74 205 141l17 -17v-104h139v-39h-139v-302c0 -61 24 -91 71 -91c27 0 49 8 65 25l18 -18c-39 -40 -90 -60 -153 -60c-103 0 -164 57 -164 144v302zM195 -250l-16 15c30 31 45 55 45 71c0 4 -1 7 -3 8c-49 -5 -71 62 -39 93s100 13 96 -44
c0 -40 -28 -88 -83 -143z" />
    <glyph glyph-name="Tcaron" unicode="&#x164;" horiz-adv-x="684" 
d="M626 555l-54 106h-144v-610l65 -23v-28h-300v29l65 26v606h-145l-54 -109h-37l8 148h626l6 -145h-36zM495 904l-143 -169h-21l-143 169l19 18l134 -76l135 76z" />
    <glyph glyph-name="tcaron" unicode="&#x165;" horiz-adv-x="412" 
d="M77 441h-59v19c79 27 148 74 205 141l17 -17v-104h139v-39h-139v-302c0 -61 24 -91 71 -91c27 0 49 8 65 25l18 -18c-39 -40 -90 -60 -153 -60c-103 0 -164 57 -164 144v302zM312 552l-15 15c21 23 45 57 45 72c0 3 -1 6 -3 7c-49 -5 -71 62 -39 93c30 31 99 13 95 -44
c0 -39 -28 -86 -83 -143z" />
    <glyph glyph-name="Tbar" unicode="&#x166;" horiz-adv-x="684" 
d="M258 336h-106v39h106v286h-145l-54 -109h-37l8 148h626l6 -145h-36l-54 106h-144v-286h105v-39h-105v-285l65 -23v-28h-300v29l65 26v281z" />
    <glyph glyph-name="tbar" unicode="&#x167;" horiz-adv-x="412" 
d="M77 281h-59v23l59 16v121h-59v19c79 27 148 74 205 141l17 -17v-104h139v-39h-139v-121h139v-39h-139v-142c0 -61 24 -91 71 -91c27 0 49 8 65 25l18 -18c-39 -40 -90 -60 -153 -60c-103 0 -164 57 -164 144v142z" />
    <glyph glyph-name="Utilde" unicode="&#x168;" horiz-adv-x="737" 
d="M720 683l-65 -26v-395c0 -83 -26 -148 -79 -197c-52 -48 -121 -72 -207 -72s-155 24 -208 73s-79 114 -79 196v386l-65 24v28h300v-28l-65 -25v-385c0 -133 73 -200 182 -200c112 0 186 71 186 200v397l-65 24v17h165v-17zM226 762l-19 20c71 71 121 107 150 107
c13 0 33 -8 58 -23s46 -23 62 -23c25 0 66 18 93 45l19 -18c-73 -73 -125 -110 -154 -110c-13 0 -32 8 -58 23c-26 16 -47 24 -64 24c-29 0 -58 -15 -87 -45z" />
    <glyph glyph-name="utilde" unicode="&#x169;" horiz-adv-x="637" 
d="M560 471v-407l56 -23v-31l-202 -17l-17 17l3 52l-3 3c-45 -47 -102 -70 -169 -70c-96 0 -151 64 -151 145v273l-56 20v32l202 24l17 -18v-318c0 -60 23 -100 67 -100c35 0 65 16 90 48v312l-56 20v32l202 24zM146 547l-19 19c72 72 122 108 150 108c13 0 33 -8 58 -24
c25 -15 46 -23 62 -23c25 0 66 18 93 45l19 -18c-73 -73 -124 -109 -154 -109c-13 0 -32 8 -58 23s-47 23 -64 23c-29 0 -58 -15 -87 -44z" />
    <glyph glyph-name="Umacron" unicode="&#x16a;" horiz-adv-x="737" 
d="M720 683l-65 -26v-395c0 -83 -26 -148 -79 -197c-52 -48 -121 -72 -207 -72s-155 24 -208 73s-79 114 -79 196v386l-65 24v28h300v-28l-65 -25v-385c0 -133 73 -200 182 -200c112 0 186 71 186 200v397l-65 24v17h165v-17zM528 790h-277v50h277v-50z" />
    <glyph glyph-name="umacron" unicode="&#x16b;" horiz-adv-x="637" 
d="M560 471v-407l56 -23v-31l-202 -17l-17 17l3 52l-3 3c-45 -47 -102 -70 -169 -70c-96 0 -151 64 -151 145v273l-56 20v32l202 24l17 -18v-318c0 -60 23 -100 67 -100c35 0 65 16 90 48v312l-56 20v32l202 24zM456 570h-277v50h277v-50z" />
    <glyph glyph-name="Ubreve" unicode="&#x16c;" horiz-adv-x="737" 
d="M720 683l-65 -26v-395c0 -83 -26 -148 -79 -197c-52 -48 -121 -72 -207 -72s-155 24 -208 73s-79 114 -79 196v386l-65 24v28h300v-28l-65 -25v-385c0 -133 73 -200 182 -200c112 0 186 71 186 200v397l-65 24v17h165v-17zM438 845c0 40 28 67 64 67s64 -26 64 -65
c0 -33 -18 -58 -53 -75s-76 -25 -123 -25s-88 8 -124 25c-35 17 -53 43 -53 76c0 39 28 64 64 64c37 0 64 -27 64 -67c0 -66 33 -67 49 -67c17 0 47 1 48 67z" />
    <glyph glyph-name="ubreve" unicode="&#x16d;" horiz-adv-x="637" 
d="M560 471v-407l56 -23v-31l-202 -17l-17 17l3 52l-3 3c-45 -47 -102 -70 -169 -70c-96 0 -151 64 -151 145v273l-56 20v32l202 24l17 -18v-318c0 -60 23 -100 67 -100c35 0 65 16 90 48v312l-56 20v32l202 24zM362 629c0 40 27 67 64 67c36 0 64 -25 64 -64
c0 -33 -18 -59 -54 -76c-35 -17 -76 -25 -123 -25s-88 8 -123 25s-53 43 -53 77c0 39 28 63 64 63s63 -27 63 -67c0 -66 33 -66 49 -66s49 0 49 66z" />
    <glyph glyph-name="Uring" unicode="&#x16e;" horiz-adv-x="737" 
d="M720 683l-65 -26v-395c0 -83 -26 -148 -79 -197c-52 -48 -121 -72 -207 -72s-155 24 -208 73s-79 114 -79 196v386l-65 24v28h300v-28l-65 -25v-385c0 -133 73 -200 182 -200c112 0 186 71 186 200v397l-65 24v17h165v-17zM308 818c0 51 36 84 88 84s88 -33 88 -84
c0 -52 -35 -84 -88 -84s-88 32 -88 84zM363 818c0 -33 13 -54 33 -54c21 0 32 18 32 54c0 35 -11 53 -32 53c-20 0 -33 -21 -33 -53z" />
    <glyph glyph-name="uring" unicode="&#x16f;" horiz-adv-x="637" 
d="M560 471v-407l56 -23v-31l-202 -17l-17 17l3 52l-3 3c-45 -47 -102 -70 -169 -70c-96 0 -151 64 -151 145v273l-56 20v32l202 24l17 -18v-318c0 -60 23 -100 67 -100c35 0 65 16 90 48v312l-56 20v32l202 24zM249 540c-16 15 -24 36 -24 62s8 46 24 61c17 15 38 23 64 23
s47 -8 63 -23c17 -15 25 -35 25 -61s-8 -47 -25 -62c-16 -15 -37 -22 -63 -22s-47 7 -64 22zM279 602c0 -32 14 -53 34 -53c19 0 32 21 32 53c0 33 -13 54 -32 54c-20 0 -34 -21 -34 -54z" />
    <glyph glyph-name="Uhungarumlaut" unicode="&#x170;" horiz-adv-x="737" 
d="M720 683l-65 -26v-395c0 -83 -26 -148 -79 -197c-52 -48 -121 -72 -207 -72s-155 24 -208 73s-79 114 -79 196v386l-65 24v28h300v-28l-65 -25v-385c0 -133 73 -200 182 -200c112 0 186 71 186 200v397l-65 24v17h165v-17zM212 735l-18 18l127 169l90 -90zM407 735
l-18 18l126 169l90 -90z" />
    <glyph glyph-name="uhungarumlaut" unicode="&#x171;" horiz-adv-x="637" 
d="M560 471v-407l56 -23v-31l-202 -17l-17 17l3 52l-3 3c-45 -47 -102 -70 -169 -70c-96 0 -151 64 -151 145v273l-56 20v32l202 24l17 -18v-318c0 -60 23 -100 67 -100c35 0 65 16 90 48v312l-56 20v32l202 24zM134 519l-18 18l127 170l89 -91zM329 519l-19 18l127 170
l90 -91z" />
    <glyph glyph-name="Uogonek" unicode="&#x172;" horiz-adv-x="737" 
d="M471 -172l11 -10c-36 -36 -71 -54 -105 -54c-39 0 -59 21 -59 63c0 57 29 113 86 168c-16 -1 -28 -2 -35 -2c-86 0 -155 24 -208 73s-79 114 -79 196v386l-65 24v28h300v-28l-65 -25v-385c0 -133 73 -200 182 -200c112 0 186 71 186 200v397l-65 24v17h165v-17l-65 -26
v-395c0 -143 -85 -239 -220 -263c-33 -48 -55 -114 -55 -151c0 -26 12 -39 36 -39c25 0 43 6 55 19z" />
    <glyph glyph-name="uogonek" unicode="&#x173;" horiz-adv-x="637" 
d="M604 -165l10 -10c-35 -35 -70 -53 -104 -53c-40 0 -60 21 -60 62c0 58 30 114 89 169l-125 -10l-17 17l3 52l-3 3c-45 -47 -102 -70 -169 -70c-96 0 -151 64 -151 145v273l-56 20v32l202 24l17 -18v-318c0 -60 23 -100 67 -100c35 0 65 16 90 48v312l-56 20v32l202 24
l17 -18v-407l56 -23v-31l-48 -4c-33 -48 -56 -114 -56 -151c0 -26 12 -39 37 -39c24 0 42 6 55 19z" />
    <glyph glyph-name="Wcircumflex" unicode="&#x174;" horiz-adv-x="1208" 
d="M858 0h-60l-198 463l-192 -463h-60l-279 648l-64 24v28h303v-28l-66 -24l200 -482l137 345l-60 137l-64 24v28h302v-28l-65 -24l201 -482l199 482l-86 24v28h197v-28l-68 -24zM463 753l143 169h21l143 -169l-19 -18l-135 76l-134 -76z" />
    <glyph glyph-name="wcircumflex" unicode="&#x175;" horiz-adv-x="898" 
d="M642 0h-61l-126 295l-134 -295h-60l-195 430l-60 22v28h276v-28l-54 -22l121 -281l86 192l-38 89l-54 22v28h275v-28l-59 -22l109 -281l117 281l-81 22v28h187v-28l-62 -22zM322 537l143 170h21l142 -170l-19 -18l-134 76l-135 -76z" />
    <glyph glyph-name="Ycircumflex" unicode="&#x176;" horiz-adv-x="720" 
d="M311 672l-65 -22l174 -304l177 304l-78 22v28h197v-28l-74 -22l-205 -349v-250l65 -23v-28h-300v29l65 26v245l-202 350l-60 22v28h306v-28zM210 753l143 169h21l143 -169l-19 -18l-135 76l-134 -76z" />
    <glyph glyph-name="ycircumflex" unicode="&#x177;" horiz-adv-x="589" 
d="M272 -13l-206 443l-60 22v28h285v-28l-59 -22l122 -266l122 266l-81 22v28h188v-28l-63 -22l-199 -430c-19 -40 -32 -69 -41 -86l-33 -61c-13 -23 -25 -39 -35 -48c-19 -19 -46 -34 -78 -34c-53 0 -98 27 -98 86c0 45 28 70 67 70c41 0 68 -26 68 -67v-29c2 -1 5 -1 8 -1
c10 0 21 11 34 33s32 63 59 124zM147 537l143 170h21l142 -170l-19 -18l-134 76l-135 -76z" />
    <glyph glyph-name="Ydieresis" unicode="&#x178;" horiz-adv-x="720" 
d="M311 672l-65 -22l174 -304l177 304l-78 22v28h197v-28l-74 -22l-205 -349v-250l65 -23v-28h-300v29l65 26v245l-202 350l-60 22v28h306v-28zM188 769c-29 29 -29 85 0 114c15 15 35 22 58 22s42 -7 57 -22c29 -29 29 -85 0 -114c-15 -15 -34 -22 -57 -22s-43 7 -58 22z
M416 769c-29 29 -29 85 0 114c15 15 35 22 58 22s42 -7 57 -22c29 -29 29 -85 0 -114c-15 -15 -34 -22 -57 -22s-43 7 -58 22z" />
    <glyph glyph-name="Zacute" unicode="&#x179;" horiz-adv-x="625" 
d="M590 0h-555v24l370 637h-271l-56 -109h-36l6 148h541v-25l-371 -637h287l56 112h36zM234 735l-19 18l145 169l89 -90z" />
    <glyph glyph-name="zacute" unicode="&#x17a;" horiz-adv-x="493" 
d="M458 0h-426v24l253 420h-169l-38 -95h-36v131h413v-25l-253 -420h182l38 96h36v-131zM168 519l-19 18l145 170l90 -91z" />
    <glyph glyph-name="Zdotaccent" unicode="&#x17b;" horiz-adv-x="625" 
d="M590 0h-555v24l370 637h-271l-56 -109h-36l6 148h541v-25l-371 -637h287l56 112h36zM313 923c49 0 84 -34 84 -85s-35 -86 -84 -86c-51 0 -86 35 -86 86s35 85 86 85z" />
    <glyph glyph-name="zdotaccent" unicode="&#x17c;" horiz-adv-x="493" 
d="M458 0h-426v24l253 420h-169l-38 -95h-36v131h413v-25l-253 -420h182l38 96h36v-131zM247 707c49 0 84 -34 84 -85s-35 -85 -84 -85c-51 0 -87 36 -87 85s36 85 87 85z" />
    <glyph glyph-name="Zcaron" unicode="&#x17d;" horiz-adv-x="625" 
d="M590 0h-555v24l370 637h-271l-56 -109h-36l6 148h541v-25l-371 -637h287l56 112h36zM466 904l-143 -169h-21l-143 169l19 18l134 -76l135 76z" />
    <glyph glyph-name="zcaron" unicode="&#x17e;" horiz-adv-x="493" 
d="M458 0h-426v24l253 420h-169l-38 -95h-36v131h413v-25l-253 -420h182l38 96h36v-131zM400 688l-143 -169h-21l-143 169l18 19l135 -77l134 77z" />
    <glyph glyph-name="longs" unicode="&#x17f;" horiz-adv-x="472" 
d="M17 468l60 20v70c0 112 73 181 210 181c96 0 169 -37 169 -108c0 -43 -27 -69 -64 -69c-40 0 -72 32 -72 77v60c-7 5 -16 8 -27 8c-35 0 -53 -49 -53 -147v-508l92 -24v-28h-315v29l60 25v387h-60v27z" />
    <glyph glyph-name="uni018F" unicode="&#x18f;" horiz-adv-x="735" 
d="M100 575l-23 23c71 72 160 108 267 108s193 -32 256 -96c63 -63 95 -149 95 -257c0 -110 -32 -198 -97 -263c-64 -65 -148 -97 -252 -97c-90 0 -164 24 -221 73s-85 111 -85 187c0 21 2 40 6 58l25 24h445c3 209 -73 313 -229 313c-78 0 -140 -24 -187 -73zM340 30
c96 0 167 88 175 271l-315 -28c0 -162 47 -243 140 -243z" />
    <glyph glyph-name="florin" unicode="&#x192;" horiz-adv-x="433" 
d="M47 16l90 425h-75l6 27l80 20l14 70c25 112 111 181 251 181c47 0 85 -9 113 -27s38 -44 31 -79c-9 -41 -41 -67 -78 -67c-40 0 -64 32 -55 77l12 56c-7 5 -16 8 -25 8c-36 0 -64 -49 -85 -147l-17 -80h156l-8 -39h-157l-90 -425c-17 -79 -50 -139 -99 -182
s-108 -64 -175 -64c-83 0 -113 33 -104 82c9 41 43 68 82 68s61 -27 52 -71l-10 -42c33 0 59 58 91 209z" />
    <glyph glyph-name="uni01DD" unicode="&#x1dd;" horiz-adv-x="543" 
d="M42 223l17 17h288c-1 65 -13 112 -36 143s-59 47 -109 47s-92 -17 -126 -51l-22 21c55 56 123 84 205 84c78 0 140 -22 185 -67c45 -44 68 -103 68 -176c0 -75 -24 -135 -71 -180c-47 -44 -108 -66 -181 -66c-65 0 -119 17 -161 52c-41 35 -62 80 -62 135c0 17 2 30 5 41
zM254 29c52 0 90 64 93 180l-165 -15c0 -110 24 -165 72 -165z" />
    <glyph glyph-name="Aringacute" unicode="&#x1fa;" horiz-adv-x="774" 
d="M300 774c0 52 35 84 87 84c53 0 89 -32 89 -84c0 -41 -18 -67 -54 -79l282 -644l65 -23v-28h-302v28l64 23l-69 163h-276l-71 -163l87 -23v-28h-197v28l67 23l285 643c-38 11 -57 37 -57 80zM445 253l-120 281l-122 -281h242zM289 836l-19 19l145 169l90 -91zM387 721
c20 0 33 21 33 53c0 33 -13 54 -33 54c-19 0 -33 -22 -33 -54s14 -53 33 -53z" />
    <glyph glyph-name="aringacute" unicode="&#x1fb;" horiz-adv-x="566" 
d="M328 55l-3 3c-46 -43 -102 -64 -167 -64c-81 0 -122 37 -122 112c0 41 16 71 43 91c13 11 32 20 57 28c49 17 98 29 183 46c3 1 5 1 6 1v88c0 60 -24 90 -73 90c-15 0 -33 -5 -53 -14v-67c0 -48 -30 -79 -73 -79c-41 0 -74 28 -74 73c0 39 20 68 60 89
c41 21 91 32 151 32c143 0 225 -57 225 -144v-279c0 -14 6 -21 19 -21c11 0 21 4 30 12l12 -12c-29 -29 -75 -43 -138 -43c-49 0 -75 13 -83 58zM325 93v146c-19 -4 -32 -7 -38 -9c-12 -3 -47 -11 -55 -18c-7 -5 -27 -17 -31 -32c-4 -13 -9 -33 -9 -58c0 -47 17 -70 52 -70
c30 0 57 14 81 41zM198 524c-16 15 -24 36 -24 62s8 46 24 61c17 15 38 23 64 23s47 -8 63 -23c17 -15 25 -35 25 -61s-8 -47 -25 -62c-16 -15 -37 -22 -63 -22s-47 7 -64 22zM228 586c0 -32 14 -53 34 -53c19 0 32 21 32 53c0 33 -13 54 -32 54c-20 0 -34 -21 -34 -54z
M164 655l-19 18l145 170l89 -91z" />
    <glyph glyph-name="AEacute" unicode="&#x1fc;" horiz-adv-x="835" 
d="M331 24l64 19l-25 171h-184l-71 -163l87 -23v-28h-197v28l67 23l286 649h423l7 -145h-37l-54 106h-234l42 -282h138l25 81h33v-202h-33l-25 82h-134l45 -302h154l54 107h36l-7 -145h-460v24zM365 253l-41 281l-121 -281h162zM387 735l-18 18l144 169l90 -90z" />
    <glyph glyph-name="aeacute" unicode="&#x1fd;" horiz-adv-x="790" 
d="M324 58c-45 -43 -100 -64 -166 -64c-81 0 -122 36 -122 108c0 25 4 46 17 63c15 17 22 29 53 41c15 7 28 12 38 15c11 4 28 9 51 15c24 6 43 10 58 13l71 15v96c0 60 -24 90 -72 90c-15 0 -33 -5 -53 -14v-67c0 -48 -30 -79 -73 -79c-41 0 -74 28 -74 73
c0 39 20 68 60 89c41 21 90 32 149 32c57 0 103 -11 139 -33c37 22 80 33 130 33c65 0 119 -17 160 -52c42 -34 63 -78 63 -133c0 -16 -1 -29 -4 -40l-18 -17l-258 -6v-125c21 -41 61 -62 119 -62c53 0 97 17 131 51l22 -21c-56 -56 -126 -84 -210 -84
c-91 0 -162 21 -211 63zM325 92v139c-30 -6 -51 -11 -63 -14s-25 -9 -38 -17c-27 -16 -32 -38 -32 -81c0 -45 17 -67 51 -67c31 0 59 13 82 40zM473 340v-71l135 19c0 108 -24 162 -72 162c-31 0 -54 -23 -71 -68c5 -14 8 -28 8 -42zM316 519l-19 18l145 170l90 -91z" />
    <glyph glyph-name="Oslashacute" unicode="&#x1fe;" horiz-adv-x="767" 
d="M155 70l-63 -70h-52l88 97c-59 64 -88 148 -88 252c0 109 31 195 94 260s146 97 249 97c91 0 166 -26 227 -77l65 71h52l-89 -98c59 -65 89 -149 89 -253c0 -109 -32 -195 -95 -260c-63 -64 -146 -96 -249 -96c-91 0 -167 26 -228 77zM549 349c0 55 -4 102 -12 142
l-297 -328c26 -91 74 -137 143 -137c103 0 166 106 166 323zM218 349c0 -52 4 -99 11 -141l298 328c-27 91 -75 137 -144 137c-101 0 -165 -105 -165 -324zM304 735l-18 18l145 169l89 -90z" />
    <glyph glyph-name="oslashacute" unicode="&#x1ff;" horiz-adv-x="570" 
d="M124 42l-39 -42h-53l63 67c-42 44 -63 101 -63 172c0 75 23 134 69 178c47 45 108 67 184 67c62 0 115 -16 159 -47l41 43h53l-64 -68c43 -44 64 -102 64 -173c0 -75 -23 -134 -70 -178c-46 -44 -107 -66 -183 -66c-64 0 -118 16 -161 47zM373 239c0 23 -1 44 -3 63
l-165 -174c13 -66 40 -99 80 -99c59 0 88 70 88 210zM196 239c0 -17 1 -38 2 -63l166 175c-13 66 -40 99 -79 99c-55 0 -89 -68 -89 -211zM206 519l-19 18l145 170l90 -91z" />
    <glyph glyph-name="Scommaaccent" unicode="&#x218;" horiz-adv-x="599" 
d="M64 5l-13 14l-9 156h37c9 -36 26 -66 49 -90c47 -47 94 -59 146 -59c84 0 142 44 142 131c0 33 -10 56 -31 71c-20 15 -60 33 -121 52l-48 16c-10 3 -25 9 -44 17s-33 15 -42 21c-19 13 -52 38 -64 62c-12 25 -24 61 -24 101c0 125 80 209 249 209c63 0 119 -13 170 -38
l41 26l13 -14l9 -156h-37c-13 53 -37 91 -70 114s-67 35 -104 35c-77 0 -126 -49 -126 -120c0 -33 7 -54 36 -73c15 -9 28 -17 41 -22l62 -22c34 -12 59 -21 76 -28s38 -17 62 -30s42 -27 53 -41c23 -27 43 -72 43 -128c0 -133 -86 -216 -274 -216c-68 0 -128 13 -181 38z
M255 -250l-15 15c30 31 45 55 45 71c0 4 -1 7 -3 8c-49 -5 -71 62 -39 93c30 31 99 13 95 -44c0 -40 -28 -88 -83 -143z" />
    <glyph glyph-name="scommaaccent" unicode="&#x219;" horiz-adv-x="449" 
d="M51 3l-12 12v118h40c19 -69 61 -104 127 -104c56 0 93 26 93 74c0 20 -7 34 -21 42c-13 8 -39 17 -78 28l-31 9l-28 9c-15 5 -24 9 -29 12l-24 14c-21 13 -26 25 -38 44s-15 41 -15 69c0 95 59 154 188 154c50 0 94 -8 133 -25l21 16l12 -12v-114h-40
c-20 67 -58 101 -114 101c-51 0 -81 -28 -81 -69c0 -37 22 -48 87 -68l55 -18c12 -4 27 -11 46 -21c51 -26 69 -58 75 -125c0 -103 -69 -154 -208 -154c-52 0 -98 8 -138 24zM179 -250l-15 15c30 31 45 55 45 71c0 4 -1 7 -3 8c-49 -5 -71 62 -39 93c30 31 99 13 95 -44
c0 -40 -28 -88 -83 -143z" />
    <glyph glyph-name="uni021A" unicode="&#x21a;" horiz-adv-x="684" 
d="M626 555l-54 106h-144v-610l65 -23v-28h-300v29l65 26v606h-145l-54 -109h-37l8 148h626l6 -145h-36zM314 -250l-16 15c23 23 46 56 46 71c0 4 -1 7 -3 8c-32 0 -54 21 -54 54c-7 69 115 74 110 -5c0 -40 -28 -88 -83 -143z" />
    <glyph glyph-name="uni021B" unicode="&#x21b;" horiz-adv-x="412" 
d="M77 441h-59v19c79 27 148 74 205 141l17 -17v-104h139v-39h-139v-302c0 -61 24 -91 71 -91c27 0 49 8 65 25l18 -18c-39 -40 -90 -60 -153 -60c-103 0 -164 57 -164 144v302zM195 -250l-16 15c30 31 45 55 45 71c0 4 -1 7 -3 8c-49 -5 -71 62 -39 93s100 13 96 -44
c0 -40 -28 -88 -83 -143z" />
    <glyph glyph-name="dotlessj" unicode="&#x237;" horiz-adv-x="318" 
d="M77 16v397l-56 20v32l202 24l17 -18v-455c0 -100 -68 -183 -205 -248l-22 22c43 59 64 135 64 226z" />
    <glyph glyph-name="circumflex" unicode="&#x2c6;" horiz-adv-x="366" 
d="M30 537l143 170h20l143 -170l-19 -18l-134 76l-135 -76z" />
    <glyph glyph-name="caron" unicode="&#x2c7;" horiz-adv-x="366" 
d="M336 688l-143 -169h-20l-143 169l18 19l135 -77l134 77z" />
    <glyph glyph-name="breve" unicode="&#x2d8;" horiz-adv-x="477" 
d="M287 629c0 40 27 67 64 67c36 0 64 -25 64 -64c0 -33 -18 -59 -54 -76c-35 -17 -76 -25 -123 -25s-88 8 -123 25s-53 43 -53 77c0 39 28 63 64 63s63 -27 63 -67c0 -66 33 -66 49 -66s49 0 49 66z" />
    <glyph glyph-name="dotaccent" unicode="&#x2d9;" horiz-adv-x="305" 
d="M153 707c49 0 84 -34 84 -85s-35 -85 -84 -85c-51 0 -87 36 -87 85s36 85 87 85z" />
    <glyph glyph-name="ring" unicode="&#x2da;" horiz-adv-x="243" 
d="M121 686c53 0 88 -32 88 -84s-35 -84 -88 -84c-52 0 -88 32 -88 84s36 84 88 84zM88 602c0 -32 13 -53 33 -53c21 0 32 18 32 53c0 36 -11 54 -32 54c-20 0 -33 -21 -33 -54z" />
    <glyph glyph-name="ogonek" unicode="&#x2db;" horiz-adv-x="183" 
d="M158 -172l10 -10c-36 -36 -71 -54 -104 -54c-40 0 -60 21 -60 63c0 58 31 116 93 173h26c-33 -48 -57 -115 -57 -152c0 -26 12 -39 37 -39c24 0 42 6 55 19z" />
    <glyph glyph-name="tilde" unicode="&#x2dc;" horiz-adv-x="443" 
d="M50 547l-18 19c71 72 120 108 149 108c13 0 33 -8 58 -24c25 -15 46 -23 62 -23c25 0 66 18 93 45l20 -18c-73 -73 -124 -109 -154 -109c-13 0 -33 8 -59 23c-25 15 -46 23 -63 23c-28 0 -57 -15 -88 -44z" />
    <glyph glyph-name="hungarumlaut" unicode="&#x2dd;" horiz-adv-x="470" 
d="M48 519l-18 18l126 170l90 -91zM243 519l-19 18l127 170l89 -91z" />
    <glyph glyph-name="uni0400" unicode="&#x400;" horiz-adv-x="633" 
d="M252 340v-302h253l55 107h36l-7 -145h-572v24l65 19v613l-65 20v24h562l7 -145h-36l-55 106h-243v-282h188l25 81h34v-202h-34l-25 82h-188zM179 832l90 90l144 -169l-19 -18z" />
    <glyph glyph-name="afii10023" unicode="&#x401;" horiz-adv-x="633" 
d="M252 340v-302h253l55 107h36l-7 -145h-572v24l65 19v613l-65 20v24h562l7 -145h-36l-55 106h-243v-282h188l25 81h34v-202h-34l-25 82h-188zM144 769c-29 29 -29 85 0 114c15 15 35 22 58 22s42 -7 57 -22c29 -29 29 -85 0 -114c-15 -15 -34 -22 -57 -22s-43 7 -58 22z
M372 769c-29 29 -29 85 0 114c15 15 35 22 58 22s42 -7 57 -22c29 -29 29 -85 0 -114c-15 -15 -34 -22 -57 -22s-43 7 -58 22z" />
    <glyph glyph-name="afii10051" unicode="&#x402;" horiz-adv-x="831" 
d="M577 -112v-42c33 0 47 57 47 208v178c0 91 -30 136 -89 136c-40 0 -76 -15 -107 -44v-273l61 -23v-28h-296v29l65 26v606h-147l-54 -109h-36l6 148h630l7 -145h-36l-54 106h-146v-248l-3 -49l3 -4c56 40 139 66 202 66c108 0 164 -73 164 -176v-196
c0 -156 -88 -245 -227 -245c-85 0 -123 33 -123 82c0 43 29 69 66 69c39 0 67 -28 67 -72z" />
    <glyph glyph-name="afii10052" unicode="&#x403;" horiz-adv-x="588" 
d="M220 735l-19 18l145 169l89 -90zM470 661h-218v-607l95 -26v-28h-330v29l65 26v601l-65 20v24h537l7 -145h-36z" />
    <glyph glyph-name="afii10053" unicode="&#x404;" horiz-adv-x="698" 
d="M638 125l23 -23c-71 -73 -161 -109 -269 -109s-194 32 -257 95c-63 64 -95 150 -95 259c0 110 32 197 96 262s149 97 255 97c72 0 135 -14 188 -43l54 24l14 -14l8 -154h-36c-34 96 -100 144 -198 144c-131 0 -198 -95 -203 -286h309v-39h-309c3 -191 80 -286 231 -286
c79 0 142 24 189 73z" />
    <glyph glyph-name="afii10054" unicode="&#x405;" horiz-adv-x="599" 
d="M64 5l-13 14l-9 156h37c9 -36 26 -66 49 -90c47 -47 94 -59 146 -59c84 0 142 44 142 131c0 33 -10 56 -31 71c-20 15 -60 33 -121 52l-48 16c-10 3 -25 9 -44 17s-33 15 -42 21c-19 13 -52 38 -64 62c-12 25 -24 61 -24 101c0 125 80 209 249 209c63 0 119 -13 170 -38
l41 26l13 -14l9 -156h-37c-13 53 -37 91 -70 114s-67 35 -104 35c-77 0 -126 -49 -126 -120c0 -33 7 -54 36 -73c15 -9 28 -17 41 -22l62 -22c34 -12 59 -21 76 -28s38 -17 62 -30s42 -27 53 -41c23 -27 43 -72 43 -128c0 -133 -86 -216 -274 -216c-68 0 -128 13 -181 38z
" />
    <glyph glyph-name="afii10055" unicode="&#x406;" horiz-adv-x="335" 
d="M315 672l-64 -25v-596l64 -23v-28h-297v29l65 26v593l-65 24v28h297v-28z" />
    <glyph glyph-name="afii10056" unicode="&#x407;" horiz-adv-x="335" 
d="M315 672l-64 -25v-596l64 -23v-28h-297v29l65 26v593l-65 24v28h297v-28zM7 769c-29 29 -29 85 0 114c15 15 35 22 58 22s42 -7 57 -22c29 -29 29 -85 0 -114c-15 -15 -34 -22 -57 -22s-43 7 -58 22zM212 769c-29 29 -29 85 0 114c15 15 35 22 58 22s42 -7 57 -22
c29 -29 29 -85 0 -114c-15 -15 -34 -22 -57 -22s-43 7 -58 22z" />
    <glyph glyph-name="afii10057" unicode="&#x408;" horiz-adv-x="335" 
d="M84 16v632l-65 24v28h295v-28l-64 -25v-631c0 -100 -70 -183 -210 -248l-22 22c44 61 66 137 66 226z" />
    <glyph glyph-name="afii10058" unicode="&#x409;" horiz-adv-x="1089" 
d="M200 157l50 499l-65 20v24h548v-24l-65 -21v-263h106c83 0 149 -18 199 -53c51 -35 76 -83 76 -143s-25 -108 -76 -143s-117 -53 -199 -53h-341v24l65 19v618h-209l-48 -499c-10 -111 -50 -167 -120 -167c-53 0 -98 26 -98 83c0 44 26 71 67 71c40 0 67 -26 67 -67v-21
c1 -1 4 -2 7 -2c11 0 28 24 36 98zM668 353v-315h82c77 0 125 50 125 158c0 107 -48 157 -125 157h-82z" />
    <glyph glyph-name="afii10059" unicode="&#x40a;" horiz-adv-x="1112" 
d="M17 0v29l65 26v593l-65 24v28h300v-28l-65 -25v-263h269v264l-65 24v28h300v-28l-65 -25v-263h106c83 0 149 -17 200 -52s76 -81 76 -140s-25 -105 -76 -140s-117 -52 -200 -52h-341v24l65 19v302h-269v-294l65 -23v-28h-300zM691 345v-307h82c77 0 125 49 125 154
c0 104 -48 153 -125 153h-82z" />
    <glyph glyph-name="afii10060" unicode="&#x40b;" horiz-adv-x="876" 
d="M428 324v-273l61 -23v-28h-296v29l65 26v606h-147l-54 -109h-36l6 148h630l7 -145h-36l-54 106h-146v-248l-3 -49l3 -4c56 40 139 66 203 66c107 0 163 -74 163 -173v-202l65 -23v-28h-301v29l66 26v182c0 79 -30 131 -89 131c-40 0 -76 -15 -107 -44z" />
    <glyph glyph-name="afii10061" unicode="&#x40c;" horiz-adv-x="746" 
d="M719 62l13 -13c-35 -37 -80 -56 -135 -56c-89 0 -134 42 -154 131l-25 112c-17 77 -51 106 -126 106h-42v-291l65 -23v-28h-300v29l65 26v593l-65 24v28h300v-28l-65 -25v-268c87 0 127 38 147 107l22 86c23 90 72 135 145 135c63 0 103 -29 103 -85
c0 -44 -24 -74 -67 -74s-71 27 -71 72v26c-3 2 -7 3 -11 3c-26 0 -47 -31 -63 -94l-21 -82c-12 -45 -32 -77 -61 -98c129 -4 191 -41 211 -129l26 -108c17 -102 63 -110 109 -76zM295 735l-18 18l144 169l90 -90z" />
    <glyph glyph-name="uni040D" unicode="&#x40d;" horiz-adv-x="781" 
d="M252 832l90 90l145 -169l-19 -18zM17 0v29l65 26v593l-65 24v28h300v-28l-65 -25v-489l276 473v17l-65 24v28h300v-28l-65 -25v-596l65 -23v-28h-300v29l65 26v488l-276 -473v-19l65 -23v-28h-300z" />
    <glyph glyph-name="afii10062" unicode="&#x40e;" horiz-adv-x="701" 
d="M412 783v57c0 40 27 67 64 67c36 0 63 -25 63 -64c0 -33 -18 -58 -53 -75s-76 -25 -123 -25s-88 8 -124 25c-35 17 -53 43 -53 76c0 39 28 63 64 63c37 0 64 -27 64 -67v-57c17 -6 34 -9 49 -9c17 0 33 3 49 9zM325 185l-253 465l-64 22v28h303v-28l-64 -22l163 -313
l171 313l-86 22v28h199v-28l-68 -22l-243 -439c-47 -85 -83 -143 -110 -173s-61 -45 -103 -45c-60 0 -109 27 -109 88c0 48 30 74 71 74c43 0 70 -29 70 -72v-38c1 -1 4 -2 8 -2c27 0 59 41 115 142z" />
    <glyph glyph-name="afii10145" unicode="&#x40f;" horiz-adv-x="771" 
d="M363 -149l-25 149h-321v24l65 19v605l-65 24v28h300v-28l-65 -25v-609h266v610l-65 24v28h300v-28l-65 -25v-604l65 -19v-24h-320l-25 -149h-45z" />
    <glyph glyph-name="afii10017" unicode="&#x410;" horiz-adv-x="774" 
d="M360 700h60l284 -649l65 -23v-28h-302v28l64 23l-69 163h-276l-71 -163l87 -23v-28h-197v28l67 23zM445 253l-120 281l-122 -281h242z" />
    <glyph glyph-name="afii10018" unicode="&#x411;" horiz-adv-x="675" 
d="M486 661h-234v-258h108c83 0 149 -18 199 -54c51 -36 76 -85 76 -147s-25 -111 -76 -148c-50 -36 -116 -54 -199 -54h-343v24l65 19v613l-65 20v24h552l7 -145h-37zM252 364v-326h84c77 0 125 52 125 164c0 111 -48 162 -125 162h-84z" />
    <glyph glyph-name="afii10019" unicode="&#x412;" horiz-adv-x="691" 
d="M17 676v24h348c77 0 140 -16 187 -48c48 -32 72 -75 72 -129c0 -81 -58 -139 -154 -163c112 -24 181 -87 181 -175c0 -57 -26 -102 -79 -135s-122 -50 -207 -50h-348v24l65 19v613zM252 339v-301h88c85 0 136 48 136 151c0 100 -45 150 -136 150h-88zM340 661h-88v-283
h88c73 0 110 47 110 141c0 95 -37 142 -110 142z" />
    <glyph glyph-name="afii10020" unicode="&#x413;" horiz-adv-x="588" 
d="M470 661h-218v-607l95 -26v-28h-330v29l65 26v601l-65 20v24h537l7 -145h-36z" />
    <glyph glyph-name="afii10021" unicode="&#x414;" horiz-adv-x="747" 
d="M682 -149l-50 149h-517l-51 -149h-45v187h89c24 14 39 54 45 119l50 499l-65 20v24h582v-24l-65 -21v-617h73v-187h-46zM485 661h-236l-49 -499c-5 -56 -17 -97 -36 -124h321v623z" />
    <glyph glyph-name="afii10022" unicode="&#x415;" horiz-adv-x="633" 
d="M252 340v-302h253l55 107h36l-7 -145h-572v24l65 19v613l-65 20v24h562l7 -145h-36l-55 106h-243v-282h188l25 81h34v-202h-34l-25 82h-188z" />
    <glyph glyph-name="afii10024" unicode="&#x416;" horiz-adv-x="1111" 
d="M206 646v-26c0 -45 -29 -72 -70 -72c-43 0 -67 30 -67 74c0 56 41 85 102 85c75 0 111 -44 138 -135l26 -85c21 -71 56 -108 135 -108v269l-65 24v28h300v-28l-65 -25v-268c79 0 113 37 136 108l26 85c25 92 62 135 137 135c61 0 103 -29 103 -85c0 -44 -24 -74 -68 -74
c-41 0 -70 27 -70 72v26c-4 2 -7 3 -10 3c-21 0 -41 -31 -60 -94l-24 -81c-13 -45 -33 -78 -59 -99c129 -3 187 -38 208 -130l25 -107c16 -102 58 -110 103 -76l13 -13c-33 -37 -76 -56 -129 -56c-85 0 -126 43 -145 131l-25 110c-17 81 -48 108 -121 108h-40v-291l65 -23
v-28h-300v29l65 26v287h-40c-73 0 -104 -27 -121 -108l-25 -110c-19 -88 -61 -131 -145 -131c-52 0 -95 19 -129 56l13 13c13 -12 28 -18 43 -18c29 0 45 25 60 94l25 107c21 92 79 127 207 130c-25 21 -45 54 -58 99l-24 81c-19 63 -38 94 -59 94c-3 0 -7 -1 -11 -3z" />
    <glyph glyph-name="afii10025" unicode="&#x417;" horiz-adv-x="631" 
d="M91 527h-36l8 150l14 14l55 -20c49 23 107 35 174 35c77 0 139 -17 187 -50s72 -77 72 -132c0 -83 -58 -141 -154 -164c111 -24 180 -87 180 -176c0 -58 -26 -104 -79 -139c-52 -35 -120 -52 -204 -52c-73 0 -135 12 -186 37l-55 -21l-13 14l-9 152h36
c32 -92 95 -138 189 -138c97 0 146 51 146 153c0 105 -53 149 -154 149c-30 0 -60 -1 -89 -4v47c29 -3 57 -4 85 -4c91 0 132 38 132 138c0 98 -40 147 -121 147c-71 0 -143 -36 -178 -136z" />
    <glyph glyph-name="afii10026" unicode="&#x418;" horiz-adv-x="781" 
d="M17 0v29l65 26v593l-65 24v28h300v-28l-65 -25v-489l276 473v17l-65 24v28h300v-28l-65 -25v-596l65 -23v-28h-300v29l65 26v488l-276 -473v-19l65 -23v-28h-300z" />
    <glyph glyph-name="afii10027" unicode="&#x419;" horiz-adv-x="781" 
d="M439 788v57c0 40 27 67 64 67c36 0 63 -26 63 -65c0 -33 -18 -58 -53 -75s-76 -25 -123 -25s-88 8 -124 25c-35 17 -53 43 -53 76c0 39 28 64 64 64c37 0 64 -27 64 -67v-57c16 -7 32 -10 49 -10s34 3 49 10zM17 0v29l65 26v593l-65 24v28h300v-28l-65 -25v-489l276 473
v17l-65 24v28h300v-28l-65 -25v-596l65 -23v-28h-300v29l65 26v488l-276 -473v-19l65 -23v-28h-300z" />
    <glyph glyph-name="afii10028" unicode="&#x41a;" horiz-adv-x="743" 
d="M719 62l13 -13c-35 -37 -80 -56 -135 -56c-89 0 -134 42 -154 131l-25 112c-17 77 -51 106 -126 106h-42v-291l65 -23v-28h-300v29l65 26v593l-65 24v28h300v-28l-65 -25v-268c87 0 127 38 147 107l22 86c23 90 72 135 145 135c63 0 103 -29 103 -85
c0 -44 -24 -74 -67 -74s-71 27 -71 72v26c-3 2 -7 3 -11 3c-26 0 -47 -31 -63 -94l-21 -82c-12 -45 -32 -77 -61 -98c129 -4 191 -41 211 -129l26 -108c17 -102 63 -110 109 -76z" />
    <glyph glyph-name="afii10029" unicode="&#x41b;" horiz-adv-x="767" 
d="M200 157l50 499l-65 20v24h565v-24l-65 -21v-604l65 -23v-28h-300v29l65 26v606h-220l-48 -499c-10 -111 -52 -167 -126 -167c-53 0 -98 26 -98 83c0 44 26 71 67 71c40 0 67 -26 67 -67v-21c1 -1 4 -2 7 -2c11 0 28 24 36 98z" />
    <glyph glyph-name="afii10030" unicode="&#x41c;" horiz-adv-x="966" 
d="M913 672l-64 -25l43 -596l64 -23v-28h-299v29l65 26l-35 486l-237 -541h-60l-240 542l-36 -501l64 -24v-17h-168v19l65 26l42 603l-64 24v28h201l230 -534l231 534h198v-28z" />
    <glyph glyph-name="afii10031" unicode="&#x41d;" horiz-adv-x="786" 
d="M17 0v29l65 26v593l-65 24v28h300v-28l-65 -25v-273h282v274l-65 24v28h300v-28l-65 -25v-596l65 -23v-28h-300v29l65 26v280h-282v-284l65 -23v-28h-300z" />
    <glyph glyph-name="afii10032" unicode="&#x41e;" horiz-adv-x="767" 
d="M727 349c0 -109 -32 -195 -95 -260c-63 -64 -146 -96 -249 -96s-186 32 -249 96c-63 65 -94 151 -94 260s31 195 94 260s146 97 249 97s186 -32 249 -97c63 -64 95 -151 95 -260zM218 349c0 -217 64 -323 165 -323c103 0 166 106 166 323c0 219 -63 324 -166 324
c-101 0 -165 -105 -165 -324z" />
    <glyph glyph-name="afii10033" unicode="&#x41f;" horiz-adv-x="771" 
d="M17 0v29l65 26v601l-65 20v24h737v-24l-65 -21v-604l65 -23v-28h-300v29l65 26v606h-267v-610l65 -23v-28h-300z" />
    <glyph glyph-name="afii10034" unicode="&#x420;" horiz-adv-x="662" 
d="M323 661h-71v-607l101 -26v-28h-336v29l65 26v601l-65 20v24h323c83 0 151 -19 202 -56s77 -86 77 -149s-26 -112 -77 -149s-119 -55 -202 -55h-47l-17 17v21h47c75 0 121 53 121 166c0 111 -40 166 -121 166z" />
    <glyph glyph-name="afii10035" unicode="&#x421;" horiz-adv-x="698" 
d="M638 124l23 -23c-72 -72 -162 -108 -269 -108c-108 0 -194 32 -257 95c-63 64 -95 150 -95 259c0 110 32 197 96 262s149 97 255 97c73 0 135 -14 187 -43l55 24l14 -13l8 -155h-36c-36 96 -102 144 -198 144c-135 0 -203 -102 -203 -306c0 -203 77 -305 232 -305
c77 0 140 24 188 72z" />
    <glyph glyph-name="afii10036" unicode="&#x422;" horiz-adv-x="684" 
d="M633 555l-54 106h-144v-610l65 -23v-28h-300v29l65 26v606h-145l-54 -109h-36l7 148h626l6 -145h-36z" />
    <glyph glyph-name="afii10037" unicode="&#x423;" horiz-adv-x="701" 
d="M325 185l-253 465l-64 22v28h303v-28l-64 -22l163 -313l171 313l-86 22v28h199v-28l-68 -22l-243 -439c-47 -85 -83 -143 -110 -173s-61 -45 -103 -45c-60 0 -109 27 -109 88c0 48 30 74 71 74c43 0 70 -29 70 -72v-38c1 -1 4 -2 8 -2c27 0 59 41 115 142z" />
    <glyph glyph-name="afii10038" unicode="&#x424;" horiz-adv-x="936" 
d="M617 672l-64 -25v-35c104 0 187 -23 249 -70c63 -47 94 -110 94 -191s-31 -145 -94 -192c-62 -46 -145 -69 -249 -69v-39l64 -23v-28h-299v29l65 26v35c-105 0 -188 23 -250 70s-93 110 -93 191s31 144 93 191s145 70 250 70v36l-65 24v28h299v-28zM383 123v456
c-110 0 -165 -76 -165 -228s55 -228 165 -228zM553 579v-456c110 0 165 76 165 228s-55 228 -165 228z" />
    <glyph glyph-name="afii10039" unicode="&#x425;" horiz-adv-x="748" 
d="M432 28l65 22l-178 257l-188 -257l78 -22v-28h-198v28l73 22l213 288l-217 312l-61 22v28h305v-28l-65 -22l163 -238l167 238l-79 22v28h199v-28l-73 -22l-192 -268l232 -332l61 -22v-28h-305v28z" />
    <glyph glyph-name="afii10040" unicode="&#x426;" horiz-adv-x="778" 
d="M713 -149l-52 149h-644v24l65 19v605l-65 24v28h300v-28l-65 -25v-609h263v610l-65 24v28h300v-28l-65 -25v-609h73v-187h-45z" />
    <glyph glyph-name="afii10041" unicode="&#x427;" horiz-adv-x="742" 
d="M317 672l-65 -25v-182c0 -87 36 -131 107 -131c49 0 92 11 131 33v281l-65 24v28h301v-28l-65 -25v-596l65 -23v-28h-301v29l65 26v278c-53 -33 -139 -54 -208 -54c-132 0 -200 75 -200 176v193l-65 24v28h300v-28z" />
    <glyph glyph-name="afii10042" unicode="&#x428;" horiz-adv-x="1114" 
d="M17 0v24l65 19v605l-65 24v28h300v-28l-65 -25v-609h219v610l-65 24v28h300v-28l-65 -25v-609h220v610l-65 24v28h300v-28l-65 -25v-604l65 -19v-24h-1079z" />
    <glyph glyph-name="afii10043" unicode="&#x429;" horiz-adv-x="1124" 
d="M1059 -149l-51 149h-991v24l65 19v605l-65 24v28h300v-28l-65 -25v-609h219v610l-65 24v28h300v-28l-65 -25v-609h220v610l-65 24v28h300v-28l-65 -25v-609h73v-187h-45z" />
    <glyph glyph-name="afii10044" unicode="&#x42a;" horiz-adv-x="835" 
d="M479 676l-65 -21v-263h106c83 0 149 -18 199 -53c51 -35 76 -83 76 -143s-25 -108 -76 -143s-117 -53 -199 -53h-341v24l65 19v618h-126l-54 -109h-36l7 148h444v-24zM414 353v-315h81c77 0 125 50 125 158c0 105 -42 157 -125 157h-81z" />
    <glyph glyph-name="afii10045" unicode="&#x42b;" horiz-adv-x="970" 
d="M317 672l-65 -25v-255h106c83 0 149 -18 199 -53c51 -35 76 -83 76 -143s-25 -108 -76 -143s-117 -53 -199 -53h-341v24l65 19v605l-65 24v28h300v-28zM252 353v-315h81c77 0 125 50 125 158c0 105 -42 157 -125 157h-81zM952 672l-64 -25v-596l64 -23v-28h-299v29l65 26
v593l-65 24v28h299v-28z" />
    <glyph glyph-name="afii10046" unicode="&#x42c;" horiz-adv-x="673" 
d="M317 672l-65 -25v-255h106c83 0 149 -18 199 -53c51 -35 76 -83 76 -143s-25 -108 -76 -143s-117 -53 -199 -53h-341v24l65 19v605l-65 24v28h300v-28zM252 353v-315h81c77 0 125 50 125 158c0 105 -42 157 -125 157h-81z" />
    <glyph glyph-name="afii10047" unicode="&#x42d;" horiz-adv-x="698" 
d="M490 338h-303v39h303c-5 191 -72 286 -203 286c-67 0 -157 -26 -199 -144h-36l9 154l13 14l55 -24c52 29 114 43 187 43c106 0 191 -32 255 -97c65 -65 97 -151 97 -260s-32 -196 -97 -260s-150 -96 -257 -96c-75 0 -139 14 -191 43l-55 -23l-14 14l-8 154h36
c34 -96 102 -144 203 -144c134 0 202 100 205 301z" />
    <glyph glyph-name="afii10048" unicode="&#x42e;" horiz-adv-x="1051" 
d="M17 0v29l65 26v593l-65 24v28h300v-28l-65 -25v-273h114c5 101 36 182 95 242s135 90 228 90c96 0 174 -32 233 -97s89 -151 89 -260s-30 -195 -89 -260c-59 -64 -137 -96 -233 -96c-95 0 -172 31 -231 92s-89 145 -92 250h-114v-284l65 -23v-28h-300zM544 349
c0 -217 57 -323 145 -323s144 106 144 323c0 219 -56 324 -144 324s-145 -105 -145 -324z" />
    <glyph glyph-name="afii10049" unicode="&#x42f;" horiz-adv-x="716" 
d="M11 49l12 13c13 -12 28 -18 44 -18c27 0 40 21 59 86l30 99c15 57 48 93 101 109c-105 25 -169 89 -169 176c0 57 25 102 75 135c51 34 117 51 199 51h336v-24l-65 -21v-604l65 -23v-28h-305v29l70 26v265h-33c-63 0 -93 -29 -112 -104l-27 -102
c-21 -80 -65 -121 -149 -121c-54 0 -98 19 -131 56zM463 360v301h-79c-81 0 -121 -50 -121 -151c0 -100 40 -150 121 -150h79z" />
    <glyph glyph-name="afii10065" unicode="&#x430;" horiz-adv-x="566" 
d="M329 55l-3 3c-46 -43 -102 -64 -167 -64c-81 0 -122 37 -122 112c0 46 20 80 61 102c31 17 99 37 204 59h1h1h1l1 1h1h1h1v1h1h1h1h1l1 1h1h1h1h1l1 1h1h2h1l1 1h2v88c0 57 -25 90 -73 90c-15 0 -33 -5 -53 -14v-67c0 -48 -30 -79 -74 -79c-41 0 -73 28 -73 73
c0 39 20 68 60 89c41 21 91 32 151 32c143 0 225 -57 225 -144v-279c0 -14 6 -21 19 -21c11 0 21 4 29 12l12 -12c-29 -29 -74 -43 -137 -43c-49 0 -76 13 -83 58zM326 93v146c-19 -4 -32 -7 -38 -9c-12 -3 -47 -11 -55 -18c-7 -5 -27 -17 -31 -32c-4 -13 -9 -33 -9 -58
c0 -47 17 -70 51 -70c29 0 57 14 82 41z" />
    <glyph glyph-name="afii10066" unicode="&#x431;" horiz-adv-x="584" 
d="M137 422h4c37 41 91 62 162 62c75 0 136 -22 181 -66s68 -104 68 -179s-23 -135 -69 -179c-46 -43 -108 -65 -186 -65c-167 0 -250 108 -250 323c0 73 10 136 29 188s43 90 72 115s62 44 99 59s71 25 103 28c65 7 128 17 147 36l17 -18c-43 -252 -374 -20 -377 -304z
M213 239c0 -140 29 -210 88 -210c57 0 86 70 86 210c0 141 -29 211 -86 211c-59 0 -88 -70 -88 -211z" />
    <glyph glyph-name="afii10067" unicode="&#x432;" horiz-adv-x="569" 
d="M17 454v26h327c108 0 180 -46 180 -121c0 -55 -34 -92 -102 -111c76 -17 121 -60 121 -120c0 -79 -79 -128 -199 -128h-327v25l60 21v388zM296 229h-56v-192h56c55 0 83 32 83 96s-28 96 -83 96zM240 443v-177h56c43 0 64 30 64 89s-21 88 -64 88h-56z" />
    <glyph glyph-name="afii10068" unicode="&#x433;" horiz-adv-x="476" 
d="M415 349l-36 92h-139v-389l92 -24v-28h-315v29l60 25v384l-60 18v24h434v-131h-36z" />
    <glyph glyph-name="afii10069" unicode="&#x434;" horiz-adv-x="591" 
d="M528 -131l-47 131h-372l-46 -131h-41v169h67c25 15 41 54 48 119l33 281l-59 18v24h456v-24l-60 -20v-398h62v-169h-41zM344 441h-135l-31 -279c-6 -58 -19 -99 -40 -124h206v403z" />
    <glyph glyph-name="afii10070" unicode="&#x435;" horiz-adv-x="543" 
d="M502 259l-18 -17h-288c1 -131 45 -193 149 -193c53 0 96 17 131 51l21 -21c-55 -56 -124 -84 -209 -84c-79 0 -142 22 -188 66c-45 45 -68 103 -68 176c0 76 23 136 70 180c47 45 108 67 181 67c65 0 119 -17 160 -52c42 -34 63 -78 63 -133c0 -16 -1 -29 -4 -40z
M288 450c-51 0 -88 -62 -92 -177l165 15c0 108 -24 162 -73 162z" />
    <glyph glyph-name="afii10072" unicode="&#x436;" horiz-adv-x="889" 
d="M709 397v29c-2 1 -5 2 -9 2c-15 0 -28 -19 -38 -58l-16 -51c-8 -24 -18 -43 -30 -56c103 -3 155 -27 171 -96l17 -72c8 -37 19 -56 32 -56c11 0 20 4 28 12l12 -12c-25 -29 -65 -44 -119 -44c-65 0 -97 31 -110 92l-17 77c-11 49 -35 66 -83 66h-21v-180l56 -22v-28h-279
v29l60 25v176h-22c-47 0 -71 -17 -82 -66l-17 -77c-13 -61 -46 -92 -111 -92c-53 0 -93 15 -119 44l12 12c9 -8 19 -12 28 -12c14 0 25 19 32 56l18 72c16 68 69 93 170 96c-12 13 -22 32 -30 56l-15 51c-11 39 -24 58 -39 58c-4 0 -7 -1 -8 -2v-29c0 -39 -25 -62 -65 -62
s-63 26 -63 69c0 55 40 81 95 81c61 0 95 -33 112 -97l18 -58c15 -41 37 -66 86 -66v166l-60 22v28h283v-28l-60 -24v-164c43 0 71 22 85 66l18 58c19 64 52 97 113 97c55 0 95 -26 95 -81c0 -43 -24 -69 -64 -69c-39 0 -64 23 -64 62z" />
    <glyph glyph-name="afii10073" unicode="&#x437;" horiz-adv-x="497" 
d="M162 228v45c18 -3 36 -4 54 -4c49 0 74 29 74 88c0 62 -23 93 -70 93c-25 0 -49 -9 -73 -28c-24 -18 -40 -47 -47 -86h-40v127l12 13l21 -17c45 17 95 25 152 25c128 0 209 -48 209 -124c0 -52 -40 -93 -104 -109c76 -17 120 -61 120 -121c0 -84 -86 -135 -231 -135
c-57 0 -106 9 -145 26s-59 44 -59 79c0 39 29 64 65 64c39 0 66 -28 66 -75v-46c18 -9 37 -14 57 -14c55 0 83 35 83 104c0 66 -29 99 -88 99c-11 0 -29 -1 -56 -4z" />
    <glyph glyph-name="afii10074" unicode="&#x438;" horiz-adv-x="642" 
d="M17 0v29l60 25v376l-60 22v28h272v-28l-49 -22v-222l-3 -67l3 -3l161 276v16l-49 22v28h272v-28l-60 -24v-378l60 -22v-28h-272v28l49 24v220l3 67l-3 3l-161 -277v-15l49 -22v-28h-272z" />
    <glyph glyph-name="afii10075" unicode="&#x439;" horiz-adv-x="642" 
d="M369 572v57c0 40 28 67 64 67s64 -25 64 -64c0 -33 -18 -59 -53 -76s-76 -25 -123 -25s-88 8 -124 25c-35 17 -53 43 -53 77c0 39 29 63 65 63s63 -27 63 -67v-57c14 -6 30 -9 49 -9c18 0 34 3 48 9zM17 0v29l60 25v376l-60 22v28h272v-28l-49 -22v-222l-3 -67l3 -3
l161 276v16l-49 22v28h272v-28l-60 -24v-378l60 -22v-28h-272v28l49 24v220l3 67l-3 3l-161 -277v-15l49 -22v-28h-272z" />
    <glyph glyph-name="afii10076" unicode="&#x43a;" horiz-adv-x="615" 
d="M432 398v29c-1 1 -4 2 -9 2c-15 0 -29 -20 -40 -59l-16 -51c-9 -25 -20 -44 -32 -56c104 -3 160 -28 175 -96l16 -67c9 -45 18 -61 35 -61c11 0 20 4 28 12l12 -12c-26 -29 -67 -44 -122 -44c-61 0 -99 31 -112 92l-18 77c-12 49 -38 66 -87 66h-22v-180l56 -22v-28h-279
v29l60 25v376l-60 22v28h283v-28l-60 -24v-164c45 0 75 22 89 66l19 58c19 64 52 97 115 97c57 0 98 -25 98 -81c0 -43 -24 -69 -64 -69c-39 0 -65 24 -65 63z" />
    <glyph glyph-name="afii10077" unicode="&#x43b;" horiz-adv-x="614" 
d="M185 157l28 281l-60 18v24h443v-24l-60 -20v-386l60 -22v-28h-270v28l47 24v389h-121l-26 -279c-11 -111 -51 -167 -120 -167c-49 0 -89 24 -89 79c0 41 23 67 62 67s63 -24 63 -61v-19c1 -1 4 -2 7 -2c11 0 28 24 36 98z" />
    <glyph glyph-name="afii10078" unicode="&#x43c;" horiz-adv-x="750" 
d="M715 452l-60 -24l23 -378l60 -22v-28h-283v29l60 25l-18 303l-156 -357h-54l-159 357l-19 -316l60 -22v-19h-157v21l60 24l22 385l-60 22v28h205l133 -315l139 315h204v-28z" />
    <glyph glyph-name="afii10079" unicode="&#x43d;" horiz-adv-x="638" 
d="M17 0v29l60 25v376l-60 22v28h270v-28l-47 -22v-166h157v166l-46 22v28h269v-28l-60 -24v-378l60 -22v-28h-269v28l46 24v173h-157v-175l47 -22v-28h-270z" />
    <glyph glyph-name="afii10080" unicode="&#x43e;" horiz-adv-x="570" 
d="M101 61c-46 44 -69 103 -69 178s23 134 69 178c47 45 108 67 184 67s137 -22 183 -67c47 -44 70 -103 70 -178s-23 -134 -70 -178c-46 -44 -107 -66 -183 -66s-137 22 -184 66zM285 29c59 0 88 70 88 210c0 141 -29 211 -88 211c-55 0 -89 -68 -89 -211s34 -210 89 -210z
" />
    <glyph glyph-name="afii10081" unicode="&#x43f;" horiz-adv-x="638" 
d="M17 0v29l60 25v384l-60 18v24h603v-24l-60 -20v-386l60 -22v-28h-269v28l46 24v389h-157v-391l47 -22v-28h-270z" />
    <glyph glyph-name="afii10082" unicode="&#x440;" horiz-adv-x="598" 
d="M332 -225h-315v29l60 25v584l-56 20v32l202 24l17 -18l-3 -47l3 -3c40 42 90 63 149 63c113 0 176 -95 176 -235c0 -163 -86 -254 -237 -254c-34 0 -63 6 -88 17v-185l92 -24v-28zM240 386v-339c19 -13 40 -20 63 -20c65 0 98 69 98 207c0 60 -8 107 -23 141
s-36 51 -64 51s-53 -13 -74 -40z" />
    <glyph glyph-name="afii10083" unicode="&#x441;" horiz-adv-x="541" 
d="M352 359v77c-17 9 -35 14 -54 14c-68 0 -102 -63 -102 -190c0 -141 45 -212 146 -212c51 0 94 17 129 52l22 -21c-55 -56 -124 -84 -208 -84c-157 0 -253 93 -253 245s93 244 261 244c57 0 106 -11 147 -33c41 -21 62 -53 62 -95c0 -48 -32 -76 -75 -76
c-44 0 -75 31 -75 79z" />
    <glyph glyph-name="afii10084" unicode="&#x442;" horiz-adv-x="547" 
d="M486 349l-37 92h-94v-391l60 -22v-28h-283v29l60 25v387h-95l-36 -92h-36v131h497v-131h-36z" />
    <glyph glyph-name="afii10085" unicode="&#x443;" horiz-adv-x="589" 
d="M272 -13l-206 443l-60 22v28h285v-28l-59 -22l122 -266l122 266l-81 22v28h188v-28l-63 -22l-199 -430c-19 -40 -32 -69 -41 -86l-33 -61c-13 -23 -25 -39 -35 -48c-19 -19 -46 -34 -78 -34c-53 0 -98 27 -98 86c0 45 28 70 67 70c41 0 68 -26 68 -67v-29c2 -1 5 -1 8 -1
c10 0 21 11 34 33s32 63 59 124z" />
    <glyph glyph-name="afii10086" unicode="&#x444;" horiz-adv-x="826" 
d="M491 449l3 -3c34 26 75 39 123 39c116 0 176 -95 176 -235c0 -164 -83 -253 -227 -253c-28 0 -52 4 -72 11v-183l60 -22v-28h-283v29l60 25v169l3 30l-3 3c-31 -25 -71 -37 -122 -37c-117 0 -177 94 -177 234c0 165 84 255 231 255c23 0 46 -4 68 -11v196l-56 20v32
l202 23l17 -17v-245zM280 43c19 0 36 6 51 19v376c-13 7 -28 10 -43 10c-61 0 -92 -70 -92 -209c0 -131 28 -196 84 -196zM547 433c-19 0 -36 -6 -53 -19v-375c15 -6 29 -9 44 -9c61 0 91 70 91 209c0 129 -27 194 -82 194z" />
    <glyph glyph-name="afii10087" unicode="&#x445;" horiz-adv-x="590" 
d="M290 28l59 22l-107 146l-112 -146l75 -22v-28h-189v28l68 22l136 175l-150 205l-51 22v28h282v-28l-58 -22l99 -137l106 137l-76 22v28h189v-28l-67 -22l-130 -167l157 -213l51 -22v-28h-282v28z" />
    <glyph glyph-name="afii10088" unicode="&#x446;" horiz-adv-x="642" 
d="M579 -131l-46 131h-516v25l60 21v384l-60 22v28h270v-28l-47 -24v-390h155v392l-47 22v28h270v-28l-60 -24v-390h62v-169h-41z" />
    <glyph glyph-name="afii10089" unicode="&#x447;" horiz-adv-x="625" 
d="M283 452l-43 -22v-103c0 -65 21 -98 63 -98c31 0 58 11 82 33v168l-43 22v28h266v-28l-60 -24v-378l60 -22v-28h-278v28l55 24v176c-40 -33 -104 -54 -160 -54c-95 0 -148 61 -148 144v112l-60 22v28h266v-28z" />
    <glyph glyph-name="afii10090" unicode="&#x448;" horiz-adv-x="909" 
d="M373 38v392l-43 22v28h249v-28l-43 -24v-390h132v392l-42 22v28h266v-28l-60 -24v-386l60 -18v-24h-875v25l60 21v384l-60 22v28h267v-28l-44 -24v-390h133z" />
    <glyph glyph-name="afii10091" unicode="&#x449;" horiz-adv-x="916" 
d="M852 -131l-46 131h-789v25l60 21v384l-60 22v28h267v-28l-44 -24v-390h133v392l-43 22v28h249v-28l-43 -24v-390h132v392l-42 22v28h266v-28l-60 -24v-390h62v-169h-42z" />
    <glyph glyph-name="afii10092" unicode="&#x44a;" horiz-adv-x="661" 
d="M25 480h380v-28l-60 -24v-147h96c116 0 194 -54 194 -141c0 -85 -78 -140 -194 -140h-319v25l60 21v395h-85l-36 -92h-36v131zM393 244h-48v-207h48c52 0 78 34 78 103s-26 104 -78 104z" />
    <glyph glyph-name="afii10093" unicode="&#x44b;" horiz-adv-x="835" 
d="M336 0h-319v25l60 21v384l-60 22v28h283v-28l-60 -24v-147h96c116 0 194 -54 194 -141c0 -85 -78 -140 -194 -140zM287 244h-47v-207h47c53 0 79 34 79 103s-26 104 -79 104zM817 452l-60 -24v-378l60 -22v-28h-283v29l60 25v376l-60 22v28h283v-28z" />
    <glyph glyph-name="afii10094" unicode="&#x44c;" horiz-adv-x="556" 
d="M336 0h-319v25l60 21v384l-60 22v28h283v-28l-60 -24v-147h96c116 0 194 -54 194 -141c0 -85 -78 -140 -194 -140zM287 244h-47v-207h47c53 0 79 34 79 103s-26 104 -79 104z" />
    <glyph glyph-name="afii10095" unicode="&#x44d;" horiz-adv-x="525" 
d="M329 227h-167v39h166c-3 123 -41 184 -113 184c-53 0 -102 -34 -118 -114h-40v127l12 13l20 -17c41 17 86 25 135 25c83 0 149 -22 197 -67c48 -44 72 -104 72 -181c0 -149 -94 -241 -265 -241c-53 0 -98 9 -136 27s-57 44 -57 78c0 40 29 66 65 66c39 0 66 -29 66 -76
v-47c20 -9 39 -14 58 -14c68 0 103 66 105 198z" />
    <glyph glyph-name="afii10096" unicode="&#x44e;" horiz-adv-x="834" 
d="M17 0v29l60 25v376l-60 22v28h270v-28l-47 -22v-167h73c5 68 29 122 73 161c45 40 101 60 170 60c73 0 132 -22 177 -67c45 -44 68 -103 68 -178s-23 -134 -68 -178s-104 -66 -177 -66c-71 0 -128 21 -173 62s-68 97 -71 168h-72v-175l47 -22v-28h-270zM556 29
c54 0 81 70 81 210c0 141 -27 211 -81 211c-49 0 -81 -68 -81 -211s32 -210 81 -210z" />
    <glyph glyph-name="afii10097" unicode="&#x44f;" horiz-adv-x="603" 
d="M10 39l12 12c9 -8 19 -12 29 -12c16 0 22 12 35 56l16 54c14 45 50 73 107 83c-87 13 -141 58 -141 122c0 77 78 126 194 126h324v-24l-60 -20v-386l60 -22v-28h-283v28l60 24v163h-23c-47 0 -74 -16 -86 -64l-19 -67c-16 -60 -43 -89 -108 -89c-53 0 -92 15 -117 44z
M314 252h49v191h-49c-51 0 -82 -31 -82 -95s27 -96 82 -96z" />
    <glyph glyph-name="uni0450" unicode="&#x450;" horiz-adv-x="543" 
d="M502 259l-18 -17h-288c1 -131 45 -193 149 -193c53 0 96 17 131 51l21 -21c-55 -56 -124 -84 -209 -84c-79 0 -142 22 -188 66c-45 45 -68 103 -68 176c0 76 23 136 70 180c47 45 108 67 181 67c65 0 119 -17 160 -52c42 -34 63 -78 63 -133c0 -16 -1 -29 -4 -40z
M288 450c-51 0 -88 -62 -92 -177l165 15c0 108 -24 162 -73 162zM148 616l90 91l144 -170l-19 -18z" />
    <glyph glyph-name="afii10071" unicode="&#x451;" horiz-adv-x="543" 
d="M502 259l-18 -17h-288c1 -131 45 -193 149 -193c53 0 96 17 131 51l21 -21c-55 -56 -124 -84 -209 -84c-79 0 -142 22 -188 66c-45 45 -68 103 -68 176c0 76 23 136 70 180c47 45 108 67 181 67c65 0 119 -17 160 -52c42 -34 63 -78 63 -133c0 -16 -1 -29 -4 -40z
M288 450c-51 0 -88 -62 -92 -177l165 15c0 108 -24 162 -73 162zM106 537c-15 15 -22 35 -22 58s7 42 22 57c29 29 85 29 114 0c15 -15 23 -34 23 -57s-8 -43 -23 -58c-29 -29 -85 -29 -114 0zM334 537c-15 15 -22 35 -22 58s7 42 22 57s35 22 58 22s42 -7 57 -22
s22 -34 22 -57s-7 -43 -22 -58s-34 -22 -57 -22s-43 7 -58 22z" />
    <glyph glyph-name="afii10099" unicode="&#x452;" horiz-adv-x="643" 
d="M17 0v29l60 25v512h-60v23l60 15v68l-60 20v28l206 24l17 -18v-122h172v-38h-172v-86l-3 -59l3 -3c41 40 106 66 166 66c51 0 90 -17 117 -50c28 -33 42 -74 42 -123v-295c0 -100 -68 -183 -205 -248l-21 22c42 59 63 134 63 226v279c0 79 -23 131 -71 131
c-34 0 -64 -14 -91 -43v-333l60 -22v-28h-283z" />
    <glyph glyph-name="afii10100" unicode="&#x453;" horiz-adv-x="476" 
d="M415 349l-36 92h-139v-389l92 -24v-28h-315v29l60 25v384l-60 18v24h434v-131h-36zM164 519l-18 18l144 170l90 -91z" />
    <glyph glyph-name="afii10101" unicode="&#x454;" horiz-adv-x="532" 
d="M32 236c0 155 104 248 275 248c50 0 95 -8 136 -25l20 17l12 -13v-127h-40c-18 76 -58 114 -121 114c-75 0 -114 -61 -117 -184h199v-39h-199c3 -119 47 -178 144 -178c52 0 95 17 129 51l22 -21c-55 -56 -124 -84 -208 -84c-157 0 -252 92 -252 241z" />
    <glyph glyph-name="afii10102" unicode="&#x455;" horiz-adv-x="449" 
d="M50 3l-11 12v118h40c19 -69 61 -104 127 -104c55 0 92 26 92 74c0 20 -7 34 -21 42c-13 9 -39 18 -78 28l-49 14c-9 3 -23 9 -42 18s-32 19 -40 28c-16 19 -33 53 -33 97c0 95 59 154 188 154c49 0 94 -8 133 -25l20 16l12 -12v-114h-40c-19 67 -57 101 -114 101
c-49 0 -80 -28 -80 -69c0 -37 22 -48 87 -68l39 -13c16 -5 54 -19 69 -30c15 -9 40 -27 49 -46c11 -19 19 -44 19 -75c0 -103 -70 -154 -209 -154c-52 0 -98 8 -138 24z" />
    <glyph glyph-name="afii10103" unicode="&#x456;" horiz-adv-x="318" 
d="M300 0h-283v29l60 25v359l-56 20v32l202 24l17 -18v-421l60 -22v-28zM85 555c-17 17 -26 40 -26 67s9 50 26 67c18 17 41 26 68 26s50 -9 67 -26s26 -40 26 -67s-9 -50 -26 -67s-40 -26 -67 -26s-50 9 -68 26z" />
    <glyph glyph-name="afii10104" unicode="&#x457;" horiz-adv-x="318" 
d="M300 0h-283v29l60 25v359l-56 20v32l202 24l17 -18v-421l60 -22v-28zM5 553c-15 15 -22 35 -22 58s7 42 22 57s35 22 58 22s42 -7 57 -22s22 -34 22 -57s-7 -43 -22 -58s-34 -22 -57 -22s-43 7 -58 22zM250 690c45 0 79 -32 79 -79s-32 -80 -79 -80s-80 33 -80 80
s33 79 80 79z" />
    <glyph glyph-name="afii10105" unicode="&#x458;" horiz-adv-x="318" 
d="M77 16v397l-56 20v32l202 24l17 -18v-455c0 -100 -68 -183 -205 -248l-22 22c43 59 64 135 64 226zM85 555c-17 17 -26 40 -26 67s9 50 26 67c18 17 41 26 68 26s50 -9 67 -26s26 -40 26 -67s-9 -50 -26 -67s-40 -26 -67 -26s-50 9 -68 26z" />
    <glyph glyph-name="afii10106" unicode="&#x459;" horiz-adv-x="852" 
d="M633 0h-320v25l60 21v395h-121l-26 -279c-11 -111 -51 -167 -120 -167c-49 0 -89 24 -89 79c0 41 23 67 62 67s63 -24 63 -61v-19c1 -1 4 -2 7 -2c11 0 28 24 36 98l28 281l-60 18v24h443v-24l-60 -20v-155h97c116 0 194 -54 194 -141c0 -85 -78 -140 -194 -140zM584 244
h-48v-207h48c53 0 79 34 79 103s-26 104 -79 104z" />
    <glyph glyph-name="afii10107" unicode="&#x45a;" horiz-adv-x="875" 
d="M657 0h-306v28l46 24v173h-157v-175l47 -22v-28h-270v29l60 25v376l-60 22v28h270v-28l-47 -22v-166h157v166l-46 22v28h269v-28l-60 -24v-164h97c115 0 193 -52 193 -133s-78 -131 -193 -131zM608 225h-48v-188h48c51 0 77 31 77 94s-26 94 -77 94z" />
    <glyph glyph-name="afii10108" unicode="&#x45b;" horiz-adv-x="643" 
d="M17 589l60 15v68l-60 20v28l206 24l17 -18v-122h172v-38h-172v-86l-3 -59l3 -3c41 40 106 66 166 66c51 0 90 -17 117 -50c28 -33 42 -74 42 -123v-261l60 -22v-28h-272v29l49 25v241c0 79 -23 131 -71 131c-34 0 -64 -14 -91 -43v-333l49 -22v-28h-272v29l60 25v512h-60
v23z" />
    <glyph glyph-name="afii10109" unicode="&#x45c;" horiz-adv-x="615" 
d="M432 398v29c-1 1 -4 2 -9 2c-15 0 -29 -20 -40 -59l-16 -51c-9 -25 -20 -44 -32 -56c104 -3 160 -28 175 -96l16 -67c9 -45 18 -61 35 -61c11 0 20 4 28 12l12 -12c-26 -29 -67 -44 -122 -44c-61 0 -99 31 -112 92l-18 77c-12 49 -38 66 -87 66h-22v-180l56 -22v-28h-279
v29l60 25v376l-60 22v28h283v-28l-60 -24v-164c45 0 75 22 89 66l19 58c19 64 52 97 115 97c57 0 98 -25 98 -81c0 -43 -24 -69 -64 -69c-39 0 -65 24 -65 63zM228 519l-19 18l145 170l90 -91z" />
    <glyph glyph-name="uni045D" unicode="&#x45d;" horiz-adv-x="642" 
d="M183 616l90 91l145 -170l-19 -18zM17 0v29l60 25v376l-60 22v28h272v-28l-49 -22v-222l-3 -67l3 -3l161 276v16l-49 22v28h272v-28l-60 -24v-378l60 -22v-28h-272v28l49 24v220l3 67l-3 3l-161 -277v-15l49 -22v-28h-272z" />
    <glyph glyph-name="afii10110" unicode="&#x45e;" horiz-adv-x="589" 
d="M362 572v57c0 40 28 67 64 67s64 -25 64 -64c0 -33 -18 -59 -54 -76c-35 -17 -76 -25 -123 -25c-83 -2 -174 32 -176 102c0 39 28 63 64 63c37 0 63 -27 63 -67v-57c15 -6 31 -9 49 -9c19 0 35 3 49 9zM272 -13l-206 443l-60 22v28h285v-28l-59 -22l122 -266l122 266
l-81 22v28h188v-28l-63 -22l-199 -430c-19 -40 -32 -69 -41 -86l-33 -61c-13 -23 -25 -39 -35 -48c-19 -19 -46 -34 -78 -34c-53 0 -98 27 -98 86c0 45 28 70 67 70c41 0 68 -26 68 -67v-29c2 -1 5 -1 8 -1c10 0 21 11 34 33s32 63 59 124z" />
    <glyph glyph-name="afii10193" unicode="&#x45f;" horiz-adv-x="638" 
d="M298 -131l-23 131h-258v25l60 21v384l-60 22v28h270v-28l-47 -24v-390h157v392l-46 22v28h269v-28l-60 -24v-386l60 -18v-24h-257l-23 -131h-42z" />
    <glyph glyph-name="afii10050" unicode="&#x490;" horiz-adv-x="552" 
d="M17 676v24h422l52 106h36l-7 -145h-268v-607l95 -26v-28h-330v29l65 26v601z" />
    <glyph glyph-name="afii10098" unicode="&#x491;" horiz-adv-x="445" 
d="M421 572v-131h-181v-389l92 -24v-28h-315v29l60 25v384l-60 18v24h328l40 92h36z" />
    <glyph glyph-name="uni04D8" unicode="&#x4d8;" horiz-adv-x="735" 
d="M100 575l-23 23c71 72 160 108 267 108s193 -32 256 -96c63 -63 95 -149 95 -257c0 -110 -32 -198 -97 -263c-64 -65 -148 -97 -252 -97c-90 0 -164 24 -221 73s-85 111 -85 187c0 21 2 40 6 58l25 24h445c3 209 -73 313 -229 313c-78 0 -140 -24 -187 -73zM340 30
c96 0 167 88 175 271l-315 -28c0 -162 47 -243 140 -243z" />
    <glyph glyph-name="afii10846" unicode="&#x4d9;" horiz-adv-x="543" 
d="M42 223l17 17h288c-1 65 -13 112 -36 143s-59 47 -109 47s-92 -17 -126 -51l-22 21c55 56 123 84 205 84c78 0 140 -22 185 -67c45 -44 68 -103 68 -176c0 -75 -24 -135 -71 -180c-47 -44 -108 -66 -181 -66c-65 0 -119 17 -161 52c-41 35 -62 80 -62 135c0 17 2 30 5 41
zM254 29c52 0 90 64 93 180l-165 -15c0 -110 24 -165 72 -165z" />
    <glyph glyph-name="Wgrave" unicode="&#x1e80;" horiz-adv-x="1208" 
d="M858 0h-60l-198 463l-192 -463h-60l-279 648l-64 24v28h303v-28l-66 -24l200 -482l137 345l-60 137l-64 24v28h302v-28l-65 -24l201 -482l199 482l-86 24v28h197v-28l-68 -24zM479 832l90 90l145 -169l-19 -18z" />
    <glyph glyph-name="wgrave" unicode="&#x1e81;" horiz-adv-x="898" 
d="M642 0h-61l-126 295l-134 -295h-60l-195 430l-60 22v28h276v-28l-54 -22l121 -281l86 192l-38 89l-54 22v28h275v-28l-59 -22l109 -281l117 281l-81 22v28h187v-28l-62 -22zM336 616l90 91l145 -170l-19 -18z" />
    <glyph glyph-name="Wacute" unicode="&#x1e82;" horiz-adv-x="1208" 
d="M858 0h-60l-198 463l-192 -463h-60l-279 648l-64 24v28h303v-28l-66 -24l200 -482l137 345l-60 137l-64 24v28h302v-28l-65 -24l201 -482l199 482l-86 24v28h197v-28l-68 -24zM536 735l-18 18l144 169l90 -90z" />
    <glyph glyph-name="wacute" unicode="&#x1e83;" horiz-adv-x="898" 
d="M642 0h-61l-126 295l-134 -295h-60l-195 430l-60 22v28h276v-28l-54 -22l121 -281l86 192l-38 89l-54 22v28h275v-28l-59 -22l109 -281l117 281l-81 22v28h187v-28l-62 -22zM381 519l-18 18l145 170l89 -91z" />
    <glyph glyph-name="Wdieresis" unicode="&#x1e84;" horiz-adv-x="1208" 
d="M860 0h-60l-199 463l-191 -463h-61l-278 648l-65 24v28h303v-28l-65 -24l200 -482l137 345l-60 137l-65 24v28h303v-28l-65 -24l200 -482l200 482l-86 24v28h197v-28l-68 -24zM443 769c-29 29 -29 85 0 114c15 15 35 22 58 22s42 -7 57 -22c29 -29 29 -85 0 -114
c-15 -15 -34 -22 -57 -22s-43 7 -58 22zM671 769c-29 29 -29 85 0 114c15 15 35 22 58 22s42 -7 57 -22c29 -29 29 -85 0 -114c-15 -15 -34 -22 -57 -22s-43 7 -58 22z" />
    <glyph glyph-name="wdieresis" unicode="&#x1e85;" horiz-adv-x="898" 
d="M642 0h-61l-126 295l-134 -295h-60l-195 430l-60 22v28h276v-28l-54 -22l121 -281l86 192l-38 89l-54 22v28h275v-28l-59 -22l109 -281l117 281l-81 22v28h187v-28l-62 -22zM299 553c-15 15 -22 35 -22 58s7 42 22 57s35 22 58 22s42 -7 57 -22s22 -34 22 -57
s-7 -43 -22 -58s-34 -22 -57 -22s-43 7 -58 22zM527 553c-15 15 -22 35 -22 58s7 42 22 57s35 22 58 22s42 -7 57 -22s22 -34 22 -57s-7 -43 -22 -58s-34 -22 -57 -22s-43 7 -58 22z" />
    <glyph glyph-name="Ygrave" unicode="&#x1ef2;" horiz-adv-x="720" 
d="M311 672l-65 -22l174 -304l177 304l-78 22v28h197v-28l-74 -22l-205 -349v-250l65 -23v-28h-300v29l65 26v245l-202 350l-60 22v28h306v-28zM227 832l89 90l145 -169l-19 -18z" />
    <glyph glyph-name="ygrave" unicode="&#x1ef3;" horiz-adv-x="589" 
d="M272 -13l-206 443l-60 22v28h285v-28l-59 -22l122 -266l122 266l-81 22v28h188v-28l-63 -22l-199 -430c-19 -40 -32 -69 -41 -86l-33 -61c-13 -23 -25 -39 -35 -48c-19 -19 -46 -34 -78 -34c-53 0 -98 27 -98 86c0 45 28 70 67 70c41 0 68 -26 68 -67v-29c2 -1 5 -1 8 -1
c10 0 21 11 34 33s32 63 59 124zM162 616l90 91l145 -170l-19 -18z" />
    <glyph glyph-name="figuredash" unicode="&#x2012;" horiz-adv-x="502" 
d="M467 326h-432v47h432v-47z" />
    <glyph glyph-name="endash" unicode="&#x2013;" horiz-adv-x="502" 
d="M467 248h-432v47h432v-47z" />
    <glyph glyph-name="emdash" unicode="&#x2014;" horiz-adv-x="702" 
d="M667 248h-632v47h632v-47z" />
    <glyph glyph-name="quoteleft" unicode="&#x2018;" horiz-adv-x="210" 
d="M143 705l19 -19c-15 -15 -28 -32 -41 -51s-19 -33 -19 -43c0 -4 1 -7 3 -9c44 0 74 -28 74 -72c0 -43 -31 -72 -74 -72s-75 30 -75 79c0 22 7 46 20 71c14 26 28 46 41 61s31 34 52 55z" />
    <glyph glyph-name="quoteright" unicode="&#x2019;" horiz-adv-x="210" 
d="M66 439l-18 19c28 29 59 74 59 94c0 4 -1 7 -3 9c-44 0 -74 28 -74 71c0 44 30 73 74 73s75 -30 75 -79c0 -22 -7 -46 -21 -72c-27 -51 -49 -72 -92 -115z" />
    <glyph glyph-name="quotesinglbase" unicode="&#x201a;" horiz-adv-x="210" 
d="M66 -122l-18 18c14 15 27 32 40 51s19 34 19 44c0 4 -1 7 -3 9c-44 0 -74 28 -74 72c0 43 30 71 74 71s75 -28 75 -79c0 -22 -7 -46 -21 -71c-27 -51 -49 -72 -92 -115z" />
    <glyph glyph-name="quotedblleft" unicode="&#x201c;" horiz-adv-x="388" 
d="M321 705l19 -19c-14 -14 -27 -31 -40 -50s-19 -34 -19 -44c0 -4 1 -7 3 -9c43 0 73 -28 73 -72c0 -43 -30 -72 -73 -72c-44 0 -75 30 -75 79c0 22 7 46 20 71c27 51 49 73 92 116zM143 705l19 -19c-15 -15 -28 -32 -41 -51s-19 -33 -19 -43c0 -4 1 -7 3 -9
c44 0 74 -28 74 -72c0 -43 -31 -72 -74 -72s-75 30 -75 79c0 22 7 46 20 71c14 26 28 46 41 61s31 34 52 55z" />
    <glyph glyph-name="quotedblright" unicode="&#x201d;" horiz-adv-x="388" 
d="M66 439l-18 19c28 29 59 74 59 94c0 4 -1 7 -3 9c-44 0 -74 28 -74 71c0 44 30 73 74 73s75 -30 75 -79c0 -22 -7 -46 -21 -72c-27 -51 -49 -72 -92 -115zM245 439l-19 19c28 29 59 74 59 94c0 4 -1 7 -3 9c-43 0 -73 28 -73 71c0 44 30 73 73 73c44 0 75 -30 75 -79
c0 -22 -7 -46 -20 -71c-27 -51 -49 -73 -92 -116z" />
    <glyph glyph-name="quotedblbase" unicode="&#x201e;" horiz-adv-x="387" 
d="M66 -122l-18 18c14 15 27 32 40 51s19 34 19 44c0 4 -1 7 -3 9c-44 0 -74 28 -74 72c0 43 30 71 74 71s75 -28 75 -79c0 -22 -7 -46 -21 -71c-27 -51 -49 -72 -92 -115zM245 -122l-19 18c14 15 27 32 40 51s19 34 19 44c0 4 -1 7 -3 9c-44 0 -73 28 -73 72
c0 43 30 71 73 71c44 0 75 -28 75 -79c0 -22 -7 -45 -20 -70c-27 -51 -49 -73 -92 -116z" />
    <glyph glyph-name="dagger" unicode="&#x2020;" horiz-adv-x="551" 
d="M260 475c-5 41 -14 77 -25 110s-17 54 -17 61c0 35 23 58 58 58c33 0 57 -25 57 -58c0 -7 -6 -28 -17 -61s-19 -69 -24 -110c41 5 77 13 110 24s53 17 61 17c35 0 58 -24 58 -57s-25 -57 -58 -57c-8 0 -28 5 -61 16s-69 20 -110 25c5 -119 13 -225 24 -319
s17 -151 17 -171c0 -33 -22 -57 -57 -57s-58 24 -58 57c0 19 6 76 17 170c11 95 20 201 25 320c-41 -5 -78 -14 -111 -25s-53 -16 -61 -16c-35 0 -58 24 -58 57s25 57 58 57c8 0 28 -6 61 -17s70 -19 111 -24z" />
    <glyph glyph-name="daggerdbl" unicode="&#x2021;" horiz-adv-x="551" 
d="M260 475c-5 41 -14 77 -25 110s-17 54 -17 61c0 35 23 58 58 58c33 0 57 -25 57 -58c0 -7 -6 -28 -17 -61s-19 -69 -24 -110c41 5 77 13 110 24s53 17 61 17c35 0 58 -24 58 -57s-25 -57 -58 -57c-8 0 -28 5 -61 16s-69 20 -110 25v-213c41 5 77 14 110 25s53 17 61 17
c35 0 58 -23 58 -58s-25 -58 -58 -58c-8 0 -28 6 -61 17s-69 20 -110 25c5 -60 13 -114 24 -161s17 -75 17 -84c0 -33 -22 -57 -57 -57s-58 24 -58 57c0 9 6 37 17 84s20 101 25 161c-41 -5 -78 -14 -111 -25s-53 -17 -61 -17c-35 0 -58 23 -58 58s23 58 58 58
c8 0 28 -6 61 -17s70 -20 111 -25v213c-41 -5 -78 -14 -111 -25s-53 -16 -61 -16c-35 0 -58 24 -58 57s25 57 58 57c8 0 28 -6 61 -17s70 -19 111 -24z" />
    <glyph glyph-name="bullet" unicode="&#x2022;" horiz-adv-x="249" 
d="M123 399c59 0 100 -40 100 -99c0 -57 -41 -98 -100 -98c-56 0 -97 41 -97 98s41 99 97 99z" />
    <glyph glyph-name="ellipsis" unicode="&#x2026;" horiz-adv-x="625" 
d="M30 68c0 44 31 75 74 75c44 0 75 -31 75 -75c0 -43 -31 -73 -75 -73c-43 0 -74 30 -74 73zM238 68c0 44 31 75 74 75c44 0 75 -31 75 -75c0 -43 -31 -73 -75 -73c-43 0 -74 30 -74 73zM446 68c0 44 30 75 73 75c45 0 75 -31 75 -75c0 -43 -31 -73 -75 -73
c-41 0 -73 30 -73 73z" />
    <glyph glyph-name="perthousand" unicode="&#x2030;" horiz-adv-x="1078" 
d="M38 525c0 111 62 182 153 182s153 -71 153 -182c0 -112 -62 -182 -153 -182s-153 70 -153 182zM192 376c33 0 55 49 55 149s-22 149 -55 149c-37 0 -56 -50 -56 -149s19 -149 56 -149zM608 700l-422 -700h-58l421 700h59zM391 175c0 111 61 182 153 182
c91 0 153 -71 153 -182c0 -112 -62 -182 -153 -182c-92 0 -153 70 -153 182zM600 175c0 100 -23 149 -56 149c-37 0 -56 -50 -56 -149s19 -149 56 -149s56 50 56 149zM734 175c0 111 62 182 153 182s153 -71 153 -182c0 -112 -62 -182 -153 -182s-153 70 -153 182zM831 175
c0 -99 19 -149 56 -149s56 50 56 149s-19 149 -56 149c-33 0 -56 -49 -56 -149z" />
    <glyph glyph-name="guilsinglleft" unicode="&#x2039;" horiz-adv-x="262" 
d="M211 96l-189 163v21l189 163l19 -19l-97 -155l97 -154z" />
    <glyph glyph-name="guilsinglright" unicode="&#x203a;" horiz-adv-x="262" 
d="M51 443l189 -163v-21l-189 -163l-19 19l97 155l-97 154z" />
    <glyph glyph-name="fraction" unicode="&#x2044;" horiz-adv-x="361" 
d="M360 700l-308 -700h-51l308 700h51z" />
    <glyph glyph-name="Euro" unicode="&#x20ac;" horiz-adv-x="698" 
d="M42 391h-18v47h25c17 83 56 149 116 196c61 48 136 72 226 72c73 0 137 -14 191 -43h65l8 -144h-36c-36 96 -102 144 -198 144c-117 0 -183 -75 -199 -225h291v-47h-295v-34c0 -23 0 -39 1 -50h294v-48h-288c23 -138 98 -207 225 -207c77 0 140 24 188 72l23 -23
c-72 -72 -162 -108 -269 -108c-184 0 -311 99 -344 266h-24v48h18c-1 17 -2 31 -2 40c0 20 1 35 2 44z" />
    <glyph glyph-name="uni20B4" unicode="&#x20b4;" horiz-adv-x="547" 
d="M83 263h-51v48h464v-48h-263c-25 -30 -37 -63 -37 -98c0 -75 49 -117 142 -117c59 0 107 18 144 54l22 -21c-57 -57 -132 -86 -225 -86c-75 0 -135 15 -180 44c-45 30 -67 69 -67 118c0 38 17 73 51 106zM496 389h-464v47h262c25 30 37 64 37 103c0 75 -44 112 -133 112
c-54 0 -100 -18 -137 -53l-21 22c57 57 120 85 217 85c148 0 236 -64 236 -160c0 -41 -17 -77 -51 -109h54v-47z" />
    <glyph glyph-name="uni20BD" unicode="&#x20bd;" horiz-adv-x="662" 
d="M82 172h-65v21l65 18v80h-65v21l65 17v327l-65 20v24h323c83 0 151 -19 202 -56s77 -86 77 -149s-26 -112 -77 -149s-119 -55 -202 -55h-88v-80h186v-39h-186v-118l101 -26v-28h-336v29l65 26v117zM323 661h-71v-332h71c75 0 121 53 121 166c0 111 -40 166 -121 166z" />
    <glyph glyph-name="afii61352" unicode="&#x2116;" horiz-adv-x="1073" 
d="M17 0v19l65 26v603l-65 24v28h232l335 -467v426l-65 24v17h169v-17l-65 -26v-657h-61l-441 616v-575l65 -24v-17h-169zM716 525c0 111 62 182 154 182c89 0 152 -73 152 -182c0 -112 -61 -182 -152 -182c-92 0 -154 70 -154 182zM926 525c0 100 -23 149 -56 149
c-37 0 -56 -50 -56 -149s19 -149 56 -149s56 50 56 149zM1017 248h-296v47h296v-47z" />
    <glyph glyph-name="trademark" unicode="&#x2122;" horiz-adv-x="841" 
d="M319 625l-28 54h-68v-302l33 -12v-15h-158v16l32 13v300h-68l-28 -55h-20l4 76h317l3 -75h-19zM809 685l-32 -13l21 -295l32 -12v-15h-157v16l33 13l-17 236l-117 -265h-32l-118 266l-18 -245l32 -12v-9h-85v10l32 13l21 300l-32 12v15h107l112 -260l113 260h105v-15z
" />
    <glyph glyph-name="arrowleft" unicode="&#x2190;" horiz-adv-x="717" 
d="M224 99l-188 163v20l188 163l19 -19l-82 -130h520v-47h-521l83 -132z" />
    <glyph glyph-name="arrowup" unicode="&#x2191;" horiz-adv-x="717" 
d="M185 405l162 189h21l163 -189l-19 -18l-130 82v-520h-48v521l-131 -83z" />
    <glyph glyph-name="arrowright" unicode="&#x2192;" horiz-adv-x="717" 
d="M492 445l189 -163v-20l-189 -163l-18 18l83 132h-521v47h520l-82 130z" />
    <glyph glyph-name="arrowdown" unicode="&#x2193;" horiz-adv-x="717" 
d="M531 137l-163 -188h-21l-162 188l18 19l131 -83v521h48v-520l130 82z" />
    <glyph glyph-name="uni2196" unicode="&#x2196;" horiz-adv-x="717" 
d="M141 244l-18 248l15 15l248 -18l-1 -27l-150 -34l368 -368l-33 -33l-369 369l-34 -152h-26z" />
    <glyph glyph-name="uni2197" unicode="&#x2197;" horiz-adv-x="717" 
d="M330 488l248 19l15 -15l-18 -248h-27l-34 150l-368 -367l-33 33l369 368l-153 34z" />
    <glyph glyph-name="uni2198" unicode="&#x2198;" horiz-adv-x="717" 
d="M575 300l19 -248l-15 -15l-249 17v27l152 34l-368 369l33 33l368 -368l34 150z" />
    <glyph glyph-name="uni2199" unicode="&#x2199;" horiz-adv-x="717" 
d="M386 54l-249 -18l-14 15l17 248h27l34 -151l369 367l33 -33l-368 -367l150 -35z" />
    <glyph glyph-name="minus" unicode="&#x2212;" horiz-adv-x="452" 
d="M417 326h-382v47h382v-47z" />
    <glyph glyph-name="commaaccent" unicode="&#xf6c3;" horiz-adv-x="210" 
d="M77 -250l-16 15c23 23 46 56 46 71c0 4 -1 7 -3 8c-32 0 -54 21 -54 54c-7 69 115 74 110 -5c0 -40 -28 -88 -83 -143z" />
    <glyph glyph-name="dollaroldstyle" unicode="&#xf724;" horiz-adv-x="449" 
d="M51 3l-12 12v118h40c15 -60 50 -94 104 -103l14 144c-27 7 -48 13 -61 18s-29 14 -48 25c-37 24 -53 60 -53 113c0 95 59 154 188 154h3l5 46h37l-5 -48c34 -4 65 -12 93 -23l21 16l12 -12v-114h-40c-17 57 -46 89 -89 98l-13 -136c45 -15 64 -20 97 -39
c48 -25 69 -59 73 -123c0 -101 -67 -152 -201 -154l-4 -45h-37l4 46c-39 2 -75 10 -108 23zM299 103c0 33 -18 48 -66 61l-13 -135c48 4 79 30 79 74zM154 381c0 -32 17 -46 57 -59l12 127c-44 -4 -69 -31 -69 -68z" />
    <glyph glyph-name="zerooldstyle" unicode="&#xf730;" horiz-adv-x="639" 
d="M319 486c83 0 151 -22 202 -67c52 -45 78 -105 78 -180s-26 -135 -78 -180c-51 -44 -119 -66 -202 -66s-151 22 -202 66c-51 45 -77 105 -77 180s26 135 77 180c52 45 119 67 202 67zM428 239c0 144 -41 214 -108 214s-109 -70 -109 -214s42 -213 109 -213
s108 70 108 213z" />
    <glyph glyph-name="oneoldstyle" unicode="&#xf731;" horiz-adv-x="408" 
d="M377 0h-337v29l87 25v356h-93v34l239 45l17 -18v-421l87 -22v-28z" />
    <glyph glyph-name="twooldstyle" unicode="&#xf732;" horiz-adv-x="524" 
d="M480 0h-444v63c37 25 67 46 89 63c23 17 47 36 72 58s45 42 58 60c28 36 48 83 48 130c0 51 -22 76 -67 76c-19 0 -37 -6 -53 -18v-80c0 -48 -32 -80 -76 -80c-43 0 -74 28 -74 80c0 84 87 132 215 132c132 0 212 -46 212 -122c0 -41 -28 -86 -63 -119
c-17 -16 -41 -34 -71 -53c-29 -19 -56 -35 -79 -48s-53 -28 -89 -46h249l42 97h37z" />
    <glyph glyph-name="threeoldstyle" unicode="&#xf733;" horiz-adv-x="565" 
d="M361 30c0 100 -52 129 -144 129h-43v39h39c79 0 121 35 121 124c0 84 -37 124 -90 124c-21 0 -39 -6 -54 -18v-73c0 -48 -30 -80 -74 -80c-41 0 -74 29 -74 77c0 30 12 55 36 76c48 43 118 58 194 58c137 0 227 -63 227 -160c0 -75 -53 -126 -141 -146
c109 -28 167 -77 167 -165c0 -76 -41 -135 -123 -178s-192 -66 -329 -69l-21 23c206 26 309 106 309 239z" />
    <glyph glyph-name="fouroldstyle" unicode="&#xf734;" horiz-adv-x="586" 
d="M481 0v-225h-160v225h-283v24c107 172 160 308 160 456h163c0 -159 -96 -293 -271 -442h231v128l143 143l17 -18v-253h69v-38h-69z" />
    <glyph glyph-name="fiveoldstyle" unicode="&#xf735;" horiz-adv-x="523" 
d="M327 36c0 91 -45 136 -135 136c-41 0 -76 -11 -105 -33l-23 23l32 317c144 0 257 6 340 18v-126h-293l-47 -194c41 25 90 38 148 38c155 0 247 -76 247 -195c0 -79 -39 -139 -116 -182s-183 -66 -316 -70l-22 23c201 28 290 109 290 245z" />
    <glyph glyph-name="sixoldstyle" unicode="&#xf736;" 
d="M199 392c31 23 72 35 121 35c69 0 125 -20 168 -59s64 -90 64 -154c0 -67 -23 -120 -69 -159s-105 -59 -177 -59c-88 0 -156 29 -203 87c-47 59 -70 138 -70 237c0 131 39 232 118 303s184 111 315 118l23 -22c-187 -40 -279 -143 -290 -327zM198 333
c0 -203 33 -304 98 -304c56 0 91 66 91 181c0 113 -38 175 -103 175c-37 0 -66 -17 -86 -52z" />
    <glyph glyph-name="sevenoldstyle" unicode="&#xf737;" horiz-adv-x="535" 
d="M318 -225h-163c0 59 9 115 27 170c19 55 40 100 63 136c23 37 53 83 90 140s66 106 88 149h-302l-46 -95h-36l7 205h449v-25c-10 -32 -34 -102 -72 -209c-37 -107 -64 -195 -81 -264c-16 -69 -24 -138 -24 -207z" />
    <glyph glyph-name="eightoldstyle" unicode="&#xf738;" horiz-adv-x="596" 
d="M523 584c0 -73 -44 -129 -132 -168c59 -27 101 -55 127 -84c27 -29 40 -70 40 -123c0 -144 -92 -216 -277 -216c-165 0 -244 62 -244 165c0 92 59 140 162 183c-89 44 -135 94 -135 193c0 61 19 110 57 149s100 58 187 58c144 0 215 -61 215 -157zM270 309l-30 12
c-41 -41 -61 -92 -61 -155c0 -92 38 -138 115 -138c79 0 126 45 126 132c0 40 -7 65 -38 89c-15 12 -29 22 -44 29c-14 7 -37 18 -68 31zM197 588c0 -37 10 -66 29 -85c20 -19 57 -39 110 -62l6 -3c31 39 47 85 47 139c0 87 -31 130 -94 130s-98 -47 -98 -119z" />
    <glyph glyph-name="nineoldstyle" unicode="&#xf739;" horiz-adv-x="584" 
d="M384 87c-31 -23 -71 -35 -120 -35c-69 0 -124 19 -167 58s-64 90 -64 154c0 67 23 121 69 160c47 40 107 60 180 60c173 0 268 -124 268 -321c0 -246 -149 -376 -446 -391l-22 22c200 33 291 125 302 293zM386 146c0 203 -32 305 -97 305c-59 0 -95 -69 -95 -185
c0 -111 39 -171 103 -171c38 0 68 17 89 51z" />
    <glyph glyph-name="T_h" horiz-adv-x="1222" 
d="M820 383v-333l49 -22v-28h-272v29l60 25v607h-229v-610l65 -23v-28h-300v29l65 26v606h-145l-54 -109h-37l8 148h567l206 38l17 -17v-241l-3 -59l3 -3c41 40 105 66 165 66c51 0 91 -17 118 -50c28 -33 42 -74 42 -123v-261l60 -22v-28h-272v29l49 25v241
c0 79 -23 131 -71 131c-35 0 -66 -14 -91 -43z" />
    <glyph glyph-name="T_h.caron" horiz-adv-x="1222" 
d="M820 383v-333l49 -22v-28h-272v29l60 25v607h-229v-610l65 -23v-28h-300v29l65 26v606h-145l-54 -109h-37l8 148h567l206 38l17 -17v-241l-3 -59l3 -3c41 40 105 66 165 66c51 0 91 -17 118 -50c28 -33 42 -74 42 -123v-261l60 -22v-28h-272v29l49 25v241
c0 79 -23 131 -71 131c-35 0 -66 -14 -91 -43zM495 904l-143 -169h-20l-143 169l18 18l135 -76l134 76z" />
    <glyph glyph-name="T_h.commaaccent" horiz-adv-x="1222" 
d="M820 383v-333l49 -22v-28h-272v29l60 25v607h-229v-610l65 -23v-28h-300v29l65 26v606h-145l-54 -109h-37l8 148h567l206 38l17 -17v-241l-3 -59l3 -3c41 40 105 66 165 66c51 0 91 -17 118 -50c28 -33 42 -74 42 -123v-261l60 -22v-28h-272v29l49 25v241
c0 79 -23 131 -71 131c-35 0 -66 -14 -91 -43zM314 -250l-16 15c23 23 46 56 46 71c0 4 -1 7 -3 8c-32 0 -54 21 -54 54c-7 69 115 74 110 -5c0 -40 -28 -88 -83 -143z" />
    <glyph glyph-name="A.smcp" horiz-adv-x="598" 
d="M275 490h51l206 -448l47 -19v-23h-244v23l47 19l-46 100h-185l-47 -100l63 -19v-23h-148v23l50 19zM322 174l-78 173l-80 -173h158z" />
    <glyph glyph-name="Aacute.smcp" horiz-adv-x="598" 
d="M275 490h51l206 -448l47 -19v-23h-244v23l47 19l-46 100h-185l-47 -100l63 -19v-23h-148v23l50 19zM322 174l-78 173l-80 -173h158zM237 509l-15 15l105 131l77 -77z" />
    <glyph glyph-name="Abreve.smcp" horiz-adv-x="598" 
d="M275 490h51l206 -448l47 -19v-23h-244v23l47 19l-46 100h-185l-47 -100l63 -19v-23h-148v23l50 19zM322 174l-78 173l-80 -173h158zM328 590c0 33 21 55 52 55c29 0 53 -20 53 -52c0 -49 -62 -74 -134 -74c-73 0 -135 25 -135 74c0 32 23 52 52 52c31 0 52 -22 52 -55
c0 -46 21 -46 31 -46c9 0 29 0 29 46z" />
    <glyph glyph-name="Acircumflex.smcp" horiz-adv-x="598" 
d="M275 490h51l206 -448l47 -19v-23h-244v23l47 19l-46 100h-185l-47 -100l63 -19v-23h-148v23l50 19zM322 174l-78 173l-80 -173h158zM185 524l105 131h18l105 -131l-16 -15l-99 53l-98 -53z" />
    <glyph glyph-name="Agrave.smcp" horiz-adv-x="598" 
d="M275 490h51l206 -448l47 -19v-23h-244v23l47 19l-46 100h-185l-47 -100l63 -19v-23h-148v23l50 19zM322 174l-78 173l-80 -173h158zM193 578l77 77l105 -131l-15 -15z" />
    <glyph glyph-name="Adieresis.smcp" horiz-adv-x="598" 
d="M275 490h51l206 -448l47 -19v-23h-244v23l47 19l-46 100h-185l-47 -100l63 -19v-23h-148v23l50 19zM322 174l-78 173l-80 -173h158zM150 583c0 37 27 64 66 64c37 0 64 -25 64 -64s-27 -65 -64 -65c-39 0 -66 26 -66 65zM382 647c37 0 64 -25 64 -64s-27 -65 -64 -65
c-39 0 -65 26 -65 65s26 64 65 64z" />
    <glyph glyph-name="Amacron.smcp" horiz-adv-x="598" 
d="M275 490h51l206 -448l47 -19v-23h-244v23l47 19l-46 100h-185l-47 -100l63 -19v-23h-148v23l50 19zM322 174l-78 173l-80 -173h158zM403 550h-210v41h210v-41z" />
    <glyph glyph-name="Aogonek.smcp" horiz-adv-x="598" 
d="M571 -125l9 -8c-29 -27 -55 -40 -79 -40c-29 0 -43 15 -43 45c0 44 24 87 72 128h-195v23l47 19l-46 100h-185l-47 -100l63 -19v-23h-148v23l50 19l206 448h51l206 -448l47 -19v-23h-30c-24 -35 -42 -83 -42 -110c0 -18 9 -27 26 -27s29 4 38 12zM322 174l-78 173
l-80 -173h158z" />
    <glyph glyph-name="Aring.smcp" horiz-adv-x="598" 
d="M275 490h51l206 -448l47 -19v-23h-244v23l47 19l-46 100h-185l-47 -100l63 -19v-23h-148v23l50 19zM322 174l-78 173l-80 -173h158zM298 633c40 0 66 -24 66 -60c0 -37 -26 -59 -66 -59c-39 0 -64 22 -64 59s25 60 64 60zM298 608c-13 0 -19 -12 -19 -35s6 -35 19 -35
s19 12 19 35s-6 35 -19 35z" />
    <glyph glyph-name="Atilde.smcp" horiz-adv-x="598" 
d="M275 490h51l206 -448l47 -19v-23h-244v23l47 19l-46 100h-185l-47 -100l63 -19v-23h-148v23l50 19zM322 174l-78 173l-80 -173h158zM168 532l-15 15c58 57 97 85 118 85c10 0 24 -6 43 -17s34 -16 46 -16c25 0 48 11 71 32l15 -14c-61 -57 -101 -86 -121 -86
c-9 0 -24 5 -44 16s-36 16 -48 16c-23 0 -44 -10 -65 -31z" />
    <glyph glyph-name="AE.smcp" horiz-adv-x="634" 
d="M239 20l47 15l-15 107h-121l-46 -100l63 -19v-23h-148v23l50 19l206 448h308l5 -110h-30l-44 78h-149l27 -191h86l19 60h28v-152h-28l-19 60h-83l29 -203h98l44 77h29l-5 -109h-351v20zM268 174l-25 173l-79 -173h104z" />
    <glyph glyph-name="AEacute.smcp" horiz-adv-x="634" 
d="M239 20l47 15l-15 107h-121l-46 -100l63 -19v-23h-148v23l50 19l206 448h308l5 -110h-30l-44 78h-149l27 -191h86l19 60h28v-152h-28l-19 60h-83l29 -203h98l44 77h29l-5 -109h-351v20zM268 174l-25 173l-79 -173h104zM295 509l-14 15l105 131l77 -77z" />
    <glyph glyph-name="B.smcp" horiz-adv-x="545" 
d="M25 470v20h265c116 0 195 -49 195 -124c0 -56 -42 -97 -113 -114c81 -19 131 -62 131 -122c0 -79 -86 -130 -213 -130h-265v20l47 15v420zM220 235v-203h50c55 0 82 34 82 101c0 68 -27 102 -82 102h-50zM270 458h-50v-191h50c42 0 63 32 63 95c0 64 -21 96 -63 96z" />
    <glyph glyph-name="C.smcp" horiz-adv-x="533" 
d="M477 92l19 -19c-55 -52 -120 -78 -197 -78c-79 0 -141 22 -188 67c-46 45 -69 105 -69 180c0 77 23 138 70 184s110 69 187 69c49 0 91 -8 128 -25l46 17l11 -10l7 -116h-30c-29 65 -75 98 -137 98c-84 0 -127 -60 -127 -208c0 -42 4 -77 11 -106
c16 -56 63 -101 143 -101c51 0 93 16 126 48z" />
    <glyph glyph-name="Cacute.smcp" horiz-adv-x="533" 
d="M477 92l19 -19c-55 -52 -120 -78 -197 -78c-79 0 -141 22 -188 67c-46 45 -69 105 -69 180c0 77 23 138 70 184s110 69 187 69c49 0 91 -8 128 -25l46 17l11 -10l7 -116h-30c-29 65 -75 98 -137 98c-84 0 -127 -60 -127 -208c0 -42 4 -77 11 -106
c16 -56 63 -101 143 -101c51 0 93 16 126 48zM239 509l-14 15l105 131l77 -77z" />
    <glyph glyph-name="Ccaron.smcp" horiz-adv-x="533" 
d="M477 92l19 -19c-55 -52 -120 -78 -197 -78c-79 0 -141 22 -188 67c-46 45 -69 105 -69 180c0 77 23 138 70 184s110 69 187 69c49 0 91 -8 128 -25l46 17l11 -10l7 -116h-30c-29 65 -75 98 -137 98c-84 0 -127 -60 -127 -208c0 -42 4 -77 11 -106
c16 -56 63 -101 143 -101c51 0 93 16 126 48zM412 641l-105 -132h-18l-105 132l15 14l98 -53l100 53z" />
    <glyph glyph-name="Ccedilla.smcp" horiz-adv-x="533" 
d="M242 -92l48 87c-153 4 -248 99 -248 247c0 77 23 138 70 184s110 69 187 69c49 0 91 -8 128 -25l46 17l11 -10l7 -116h-30c-29 65 -75 98 -137 98c-84 0 -127 -60 -127 -208c0 -42 4 -77 11 -106c16 -56 63 -101 143 -101c51 0 93 16 126 48l19 -19
c-52 -49 -114 -75 -186 -78l-10 -21c35 0 60 -14 60 -39c0 -22 -27 -58 -82 -108l-8 8c19 17 28 33 28 48c0 17 -19 25 -56 25z" />
    <glyph glyph-name="Ccircumflex.smcp" horiz-adv-x="533" 
d="M477 92l19 -19c-55 -52 -120 -78 -197 -78c-79 0 -141 22 -188 67c-46 45 -69 105 -69 180c0 77 23 138 70 184s110 69 187 69c49 0 91 -8 128 -25l46 17l11 -10l7 -116h-30c-29 65 -75 98 -137 98c-84 0 -127 -60 -127 -208c0 -42 4 -77 11 -106
c16 -56 63 -101 143 -101c51 0 93 16 126 48zM185 524l105 131h18l105 -131l-16 -15l-99 53l-98 -53z" />
    <glyph glyph-name="Cdotaccent.smcp" horiz-adv-x="533" 
d="M477 92l19 -19c-55 -52 -120 -78 -197 -78c-79 0 -141 22 -188 67c-46 45 -69 105 -69 180c0 77 23 138 70 184s110 69 187 69c49 0 91 -8 128 -25l46 17l11 -10l7 -116h-30c-29 65 -75 98 -137 98c-84 0 -127 -60 -127 -208c0 -42 4 -77 11 -106
c16 -56 63 -101 143 -101c51 0 93 16 126 48zM298 519c-43 0 -71 28 -71 69s28 69 71 69s70 -28 70 -69s-29 -69 -70 -69z" />
    <glyph glyph-name="D.smcp" horiz-adv-x="584" 
d="M25 470v20h260c77 0 139 -22 186 -66s71 -104 71 -180c0 -75 -24 -135 -71 -179c-47 -43 -109 -65 -186 -65h-260v20l47 15v420zM285 458h-65v-426h65c68 0 102 71 102 213s-34 213 -102 213z" />
    <glyph glyph-name="Dcaron.smcp" horiz-adv-x="584" 
d="M25 470v20h260c77 0 139 -22 186 -66s71 -104 71 -180c0 -75 -24 -135 -71 -179c-47 -43 -109 -65 -186 -65h-260v20l47 15v420zM285 458h-65v-426h65c68 0 102 71 102 213s-34 213 -102 213zM398 641l-104 -132h-18l-105 132l14 14l99 -53l99 53z" />
    <glyph glyph-name="Dcroat.smcp" horiz-adv-x="584" 
d="M72 233h-47v20l47 12v190l-47 15v20h260c77 0 139 -22 186 -66s71 -104 71 -180c0 -75 -24 -135 -71 -179c-47 -43 -109 -65 -186 -65h-260v20l47 15v198zM285 458h-65v-193h85v-32h-85v-201h65c68 0 102 71 102 213s-34 213 -102 213z" />
    <glyph glyph-name="Eth.smcp" horiz-adv-x="584" 
d="M72 233h-45v20l45 12v190l-47 15v20h260c77 0 139 -22 186 -66s71 -104 71 -180c0 -75 -24 -135 -71 -179c-47 -43 -109 -65 -186 -65h-260v20l47 15v198zM285 458h-65v-193h85v-32h-85v-201h65c68 0 102 71 102 213s-34 213 -102 213z" />
    <glyph glyph-name="Thorn.smcp" horiz-adv-x="525" 
d="M267 467l-47 -20v-55h54c125 0 209 -55 209 -142s-84 -141 -209 -141h-23l-14 14v17h24c47 0 70 37 70 110s-23 110 -70 110h-41v-316l74 -21v-23h-269v25l47 20v403l-47 19v23h242v-23z" />
    <glyph glyph-name="E.smcp" horiz-adv-x="494" 
d="M220 235v-203h162l43 77h31l-6 -109h-425v20l47 15v420l-47 15v20h418l5 -110h-30l-43 78h-155v-191h118l19 60h28v-152h-28l-19 60h-118z" />
    <glyph glyph-name="Eacute.smcp" horiz-adv-x="494" 
d="M220 235v-203h162l43 77h31l-6 -109h-425v20l47 15v420l-47 15v20h418l5 -110h-30l-43 78h-155v-191h118l19 60h28v-152h-28l-19 60h-118zM185 509l-15 15l105 131l77 -77z" />
    <glyph glyph-name="Ebreve.smcp" horiz-adv-x="494" 
d="M220 235v-203h162l43 77h31l-6 -109h-425v20l47 15v420l-47 15v20h418l5 -110h-30l-43 78h-155v-191h118l19 60h28v-152h-28l-19 60h-118zM276 590c0 32 23 55 52 55c31 0 53 -20 53 -52c7 -99 -275 -99 -269 0c0 32 24 52 53 52c31 0 51 -22 51 -55c0 -46 21 -46 31 -46
s29 0 29 46z" />
    <glyph glyph-name="Ecaron.smcp" horiz-adv-x="494" 
d="M220 235v-203h162l43 77h31l-6 -109h-425v20l47 15v420l-47 15v20h418l5 -110h-30l-43 78h-155v-191h118l19 60h28v-152h-28l-19 60h-118zM361 641l-105 -132h-18l-105 132l15 14l99 -53l99 53z" />
    <glyph glyph-name="Ecircumflex.smcp" horiz-adv-x="494" 
d="M220 235v-203h162l43 77h31l-6 -109h-425v20l47 15v420l-47 15v20h418l5 -110h-30l-43 78h-155v-191h118l19 60h28v-152h-28l-19 60h-118zM133 524l105 131h18l105 -131l-15 -15l-99 53l-99 -53z" />
    <glyph glyph-name="Edieresis.smcp" horiz-adv-x="494" 
d="M220 235v-203h162l43 77h31l-6 -109h-425v20l47 15v420l-47 15v20h418l5 -110h-30l-43 78h-155v-191h118l19 60h28v-152h-28l-19 60h-118zM164 647c37 0 64 -25 64 -64s-27 -65 -64 -65c-39 0 -65 26 -65 65s26 64 65 64zM265 583c0 19 6 34 18 46c24 24 70 24 94 0
c12 -11 18 -27 18 -46c0 -39 -26 -65 -65 -65c-37 0 -65 26 -65 65z" />
    <glyph glyph-name="Edotaccent.smcp" horiz-adv-x="494" 
d="M220 235v-203h162l43 77h31l-6 -109h-425v20l47 15v420l-47 15v20h418l5 -110h-30l-43 78h-155v-191h118l19 60h28v-152h-28l-19 60h-118zM196 538c-25 25 -25 75 0 100s77 25 102 0s26 -75 -1 -100c-25 -25 -74 -25 -101 0z" />
    <glyph glyph-name="Egrave.smcp" horiz-adv-x="494" 
d="M220 235v-203h162l43 77h31l-6 -109h-425v20l47 15v420l-47 15v20h418l5 -110h-30l-43 78h-155v-191h118l19 60h28v-152h-28l-19 60h-118zM141 578l77 77l105 -131l-14 -15z" />
    <glyph glyph-name="Emacron.smcp" horiz-adv-x="494" 
d="M220 235v-203h162l43 77h31l-6 -109h-425v20l47 15v420l-47 15v20h418l5 -110h-30l-43 78h-155v-191h118l19 60h28v-152h-28l-19 60h-118zM352 550h-211v41h211v-41z" />
    <glyph glyph-name="Eogonek.smcp" horiz-adv-x="495" 
d="M448 -125l8 -8c-28 -27 -54 -40 -79 -40c-29 0 -43 15 -43 45c0 44 24 87 72 128h-381v20l47 15v420l-47 15v20h418l5 -110h-30l-43 78h-155v-191h118l19 60h28v-152h-28l-19 60h-118v-203h162l43 77h31l-6 -109h-24c-24 -35 -42 -83 -42 -110c0 -18 8 -27 25 -27
s30 4 39 12z" />
    <glyph glyph-name="F.smcp" horiz-adv-x="477" 
d="M346 174l-19 60h-107v-190l69 -21v-23h-264v25l47 20v410l-47 15v20h408l5 -110h-30l-43 78h-145v-192h107l19 60h29v-152h-29z" />
    <glyph glyph-name="G.smcp" horiz-adv-x="578" 
d="M552 222l-47 -21v-186l-14 -14l-63 20c-36 -17 -79 -26 -129 -26c-79 0 -142 22 -188 66c-46 45 -69 105 -69 181c0 77 24 139 71 184c47 46 110 69 188 69c49 0 91 -8 128 -25l48 17l10 -10l7 -116h-30c-30 65 -76 98 -137 98c-88 0 -130 -59 -130 -212
c0 -139 42 -209 125 -209c16 0 28 1 35 4v162l-47 18v23h242v-23z" />
    <glyph glyph-name="Gbreve.smcp" horiz-adv-x="578" 
d="M552 222l-47 -21v-186l-14 -14l-63 20c-36 -17 -79 -26 -129 -26c-79 0 -142 22 -188 66c-46 45 -69 105 -69 181c0 77 24 139 71 184c47 46 110 69 188 69c49 0 91 -8 128 -25l48 17l10 -10l7 -116h-30c-30 65 -76 98 -137 98c-88 0 -130 -59 -130 -212
c0 -139 42 -209 125 -209c16 0 28 1 35 4v162l-47 18v23h242v-23zM328 590c-6 72 110 71 105 3c6 -99 -276 -99 -269 0c0 32 22 52 53 52c29 0 51 -23 51 -55c0 -31 10 -46 30 -46c11 0 30 0 30 46z" />
    <glyph glyph-name="Gcircumflex.smcp" horiz-adv-x="578" 
d="M552 222l-47 -21v-186l-14 -14l-63 20c-36 -17 -79 -26 -129 -26c-79 0 -142 22 -188 66c-46 45 -69 105 -69 181c0 77 24 139 71 184c47 46 110 69 188 69c49 0 91 -8 128 -25l48 17l10 -10l7 -116h-30c-30 65 -76 98 -137 98c-88 0 -130 -59 -130 -212
c0 -139 42 -209 125 -209c16 0 28 1 35 4v162l-47 18v23h242v-23zM188 524l104 131h18l106 -131l-16 -15l-99 53l-98 -53z" />
    <glyph glyph-name="Gcommaaccent.smcp" horiz-adv-x="578" 
d="M552 222l-47 -21v-186l-14 -14l-63 20c-36 -17 -79 -26 -129 -26c-79 0 -142 22 -188 66c-46 45 -69 105 -69 181c0 77 24 139 71 184c47 46 110 69 188 69c49 0 91 -8 128 -25l48 17l10 -10l7 -116h-30c-30 65 -76 98 -137 98c-88 0 -130 -59 -130 -212
c0 -139 42 -209 125 -209c16 0 28 1 35 4v162l-47 18v23h242v-23zM279 -175l-12 11c23 23 34 39 34 48c0 2 -1 4 -3 6c-53 -5 -55 85 0 80c27 0 43 -16 43 -43c0 -28 -21 -62 -62 -102z" />
    <glyph glyph-name="Gdotaccent.smcp" horiz-adv-x="578" 
d="M552 222l-47 -21v-186l-14 -14l-63 20c-36 -17 -79 -26 -129 -26c-79 0 -142 22 -188 66c-46 45 -69 105 -69 181c0 77 24 139 71 184c47 46 110 69 188 69c49 0 91 -8 128 -25l48 17l10 -10l7 -116h-30c-30 65 -76 98 -137 98c-88 0 -130 -59 -130 -212
c0 -139 42 -209 125 -209c16 0 28 1 35 4v162l-47 18v23h242v-23zM299 519c-43 0 -71 28 -71 69s28 69 71 69s70 -28 70 -69s-29 -69 -70 -69z" />
    <glyph glyph-name="H.smcp" horiz-adv-x="611" 
d="M25 0v25l47 20v403l-47 19v23h242v-23l-47 -20v-184h170v185l-47 19v23h242v-23l-47 -20v-405l47 -19v-23h-242v25l47 20v187h-170v-190l47 -19v-23h-242z" />
    <glyph glyph-name="Hbar.smcp" horiz-adv-x="603" 
d="M72 339h-46v20l46 12v77l-47 19v23h242v-23l-47 -20v-76h162v77l-46 19v23h241v-23l-47 -20v-76l47 -12v-20h-47v-297l47 -19v-23h-241v25l46 20v187h-162v-190l47 -19v-23h-242v25l47 20v294zM220 339v-76h162v76h-162z" />
    <glyph glyph-name="Hcircumflex.smcp" horiz-adv-x="611" 
d="M25 0v25l47 20v403l-47 19v23h242v-23l-47 -20v-184h170v185l-47 19v23h242v-23l-47 -20v-405l47 -19v-23h-242v25l47 20v187h-170v-190l47 -19v-23h-242zM191 524l105 131h18l105 -131l-16 -15l-98 53l-99 -53z" />
    <glyph glyph-name="I.smcp" horiz-adv-x="293" 
d="M265 467l-46 -20v-405l46 -19v-23h-238v25l47 20v403l-47 19v23h238v-23z" />
    <glyph glyph-name="Iacute.smcp" horiz-adv-x="293" 
d="M265 467l-46 -20v-405l46 -19v-23h-238v25l47 20v403l-47 19v23h238v-23zM84 509l-14 15l105 131l77 -77z" />
    <glyph glyph-name="Ibreve.smcp" horiz-adv-x="293" 
d="M265 467l-46 -20v-405l46 -19v-23h-239v25l47 20v403l-47 19v23h239v-23zM176 590c-6 72 110 71 105 3c6 -99 -276 -99 -269 0c-3 69 110 68 104 -3c0 -31 10 -46 30 -46c11 0 30 0 30 46z" />
    <glyph glyph-name="Icircumflex.smcp" horiz-adv-x="293" 
d="M265 467l-46 -20v-405l46 -19v-23h-239v25l47 20v403l-47 19v23h239v-23zM32 524l105 131h18l105 -131l-15 -15l-99 53l-99 -53z" />
    <glyph glyph-name="Idieresis.smcp" horiz-adv-x="293" 
d="M266 467l-47 -20v-405l47 -19v-23h-239v25l47 20v403l-47 19v23h239v-23zM22 536c-24 24 -24 70 0 93c24 24 70 24 93 0c24 -23 24 -69 0 -93c-23 -24 -69 -24 -93 0zM178 536c-24 24 -24 70 0 93c24 24 70 24 93 0c24 -23 24 -69 0 -93c-23 -24 -69 -24 -93 0z" />
    <glyph glyph-name="Idotaccent.smcp" horiz-adv-x="293" 
d="M265 467l-46 -20v-405l46 -19v-23h-238v25l47 20v403l-47 19v23h238v-23zM147 657c41 0 69 -28 69 -69s-28 -69 -69 -69c-43 0 -71 28 -71 69s28 69 71 69z" />
    <glyph glyph-name="Igrave.smcp" horiz-adv-x="293" 
d="M265 467l-46 -20v-405l46 -19v-23h-238v25l46 20v403l-46 19v23h238v-23zM47 578l77 77l105 -131l-15 -15z" />
    <glyph glyph-name="Imacron.smcp" horiz-adv-x="293" 
d="M265 467l-46 -20v-405l46 -19v-23h-239v25l47 20v403l-47 19v23h239v-23zM252 550h-210v41h210v-41z" />
    <glyph glyph-name="Iogonek.smcp" horiz-adv-x="294" 
d="M258 -125l8 -8c-27 -27 -53 -40 -78 -40c-29 0 -43 15 -43 45c0 43 24 86 71 128h-189v25l47 20v403l-47 19v23h238v-23l-46 -20v-405l46 -19v-23h-28c-24 -33 -42 -83 -42 -110c0 -18 8 -27 25 -27s30 4 38 12z" />
    <glyph glyph-name="Itilde.smcp" horiz-adv-x="293" 
d="M266 467l-47 -20v-405l47 -19v-23h-240v25l47 20v403l-47 19v23h240v-23zM16 532l-15 15c58 57 97 85 118 85c9 0 24 -6 43 -17s35 -16 47 -16c24 0 47 11 70 32l15 -14c-59 -57 -99 -86 -121 -86c-9 0 -24 5 -44 16c-19 11 -35 16 -47 16c-23 0 -45 -10 -66 -31z" />
    <glyph glyph-name="IJ.smcp" horiz-adv-x="550" 
d="M265 467l-46 -20v-405l46 -19v-23h-238v25l47 20v403l-47 19v23h238v-23zM331 14v434l-47 19v23h238v-23l-47 -20v-433c0 -70 -57 -129 -172 -177l-17 17c30 45 45 99 45 160z" />
    <glyph glyph-name="J.smcp" horiz-adv-x="294" 
d="M74 14v434l-47 19v23h238v-23l-47 -20v-433c0 -70 -57 -129 -172 -177l-17 17c30 45 45 99 45 160z" />
    <glyph glyph-name="Jcircumflex.smcp" horiz-adv-x="293" 
d="M74 14v434l-47 19v23h238v-23l-47 -20v-433c0 -70 -57 -129 -172 -177l-17 17c30 45 45 99 45 160zM32 524l106 131h17l105 -131l-15 -15l-99 53l-99 -53z" />
    <glyph glyph-name="K.smcp" horiz-adv-x="579" 
d="M266 467l-46 -20v-187l194 188l-63 19v23h163v-23l-54 -19l-115 -112l168 -295l46 -18v-23h-184l-132 237l-23 -20v-175l46 -19v-23h-241v25l47 20v403l-47 19v23h241v-23z" />
    <glyph glyph-name="Kcommaaccent.smcp" horiz-adv-x="579" 
d="M266 467l-46 -20v-187l194 188l-63 19v23h163v-23l-54 -19l-115 -112l168 -295l46 -18v-23h-184l-132 237l-23 -20v-175l46 -19v-23h-241v25l47 20v403l-47 19v23h241v-23zM270 -175l-13 11c22 24 33 40 33 48c0 1 -1 3 -2 6c-37 -4 -54 46 -30 69c27 25 74 7 74 -32
c0 -27 -21 -61 -62 -102z" />
    <glyph glyph-name="L.smcp" horiz-adv-x="473" 
d="M220 447v-415h139l43 77h30l-5 -109h-402v20l47 15v413l-47 19v23h242v-23z" />
    <glyph glyph-name="Lacute.smcp" horiz-adv-x="473" 
d="M220 447v-415h139l43 77h30l-5 -109h-402v20l47 15v413l-47 19v23h242v-23zM84 509l-14 15l105 131l77 -77z" />
    <glyph glyph-name="Lcaron.smcp" horiz-adv-x="473" 
d="M220 447v-415h139l43 77h30l-5 -109h-402v20l47 15v413l-47 19v23h241v-23zM261 640l-105 -131h-18l-104 131l14 15l99 -53l99 53z" />
    <glyph glyph-name="Lcommaaccent.smcp" horiz-adv-x="473" 
d="M220 447v-415h139l43 77h30l-5 -109h-402v20l47 15v413l-47 19v23h242v-23zM217 -175l-12 11c22 24 33 40 33 48c0 3 -1 5 -2 6c-37 -4 -54 46 -30 69c25 25 73 7 73 -32c0 -27 -21 -61 -62 -102z" />
    <glyph glyph-name="Ldot.smcp" horiz-adv-x="474" 
d="M220 447v-415h139l43 77h30l-5 -109h-402v20l47 15v413l-47 19v23h242v-23zM305 244c0 36 23 60 58 60c37 0 60 -24 60 -60c0 -35 -24 -58 -60 -58c-33 0 -58 23 -58 58z" />
    <glyph glyph-name="Lslash.smcp" horiz-adv-x="473" 
d="M72 142l-31 -30l-23 22l54 53v261l-46 19v23h241v-23l-47 -20v-156l67 63l23 -22l-90 -86v-214h140l42 77h31l-5 -109h-402v20l46 15v107z" />
    <glyph glyph-name="M.smcp" horiz-adv-x="746" 
d="M695 467l-47 -20l29 -405l47 -19v-23h-241v25l47 20l-23 313l-165 -358h-51l-166 358l-25 -326l47 -18v-14h-126v15l47 20l30 413l-47 19v23h166l156 -347l158 347h164v-23z" />
    <glyph glyph-name="N.smcp" horiz-adv-x="540" 
d="M25 0v15l47 20v413l-47 19v23h191l220 -289v257l-47 18v14h126v-14l-47 -20v-456h-52l-311 419v-387l46 -18v-14h-126z" />
    <glyph glyph-name="Nacute.smcp" horiz-adv-x="540" 
d="M25 0v15l47 20v413l-47 19v23h191l220 -289v257l-47 18v14h126v-14l-47 -20v-456h-52l-311 419v-387l46 -18v-14h-126zM208 509l-15 15l105 131l77 -77z" />
    <glyph glyph-name="Ncaron.smcp" horiz-adv-x="540" 
d="M25 0v15l47 20v413l-47 19v23h191l220 -289v257l-47 18v14h126v-14l-47 -20v-456h-52l-311 419v-387l46 -18v-14h-126zM384 641l-106 -132h-18l-104 132l15 14l98 -53l99 53z" />
    <glyph glyph-name="Ncommaaccent.smcp" horiz-adv-x="540" 
d="M25 0v15l47 20v413l-47 19v23h191l220 -289v257l-47 18v14h126v-14l-47 -20v-456h-52l-311 419v-387l46 -18v-14h-126zM250 -175l-12 11c22 26 33 42 33 48c0 1 -1 3 -2 6c-25 0 -42 15 -42 40c0 24 17 40 41 40c27 0 43 -16 43 -43s-20 -61 -61 -102z" />
    <glyph glyph-name="Ntilde.smcp" horiz-adv-x="540" 
d="M25 0v15l47 20v413l-47 19v23h191l220 -289v257l-47 18v14h126v-14l-47 -20v-456h-52l-311 419v-387l46 -18v-14h-126zM139 532l-14 15c57 57 96 85 118 85c9 0 23 -6 42 -17s35 -16 47 -16c17 0 50 13 70 32l15 -14c-59 -57 -99 -86 -122 -86c-9 0 -23 5 -43 16
c-19 11 -35 16 -47 16c-23 0 -45 -10 -66 -31z" />
    <glyph glyph-name="Eng.smcp" horiz-adv-x="540" 
d="M25 0v15l47 20v413l-47 19v23h191l220 -397v365l-47 18v14h126v-14l-47 -20v-442c0 -75 -62 -130 -174 -177l-18 17c29 43 43 97 43 160v17l-214 388v-387l46 -18v-14h-126z" />
    <glyph glyph-name="O.smcp" 
d="M42 244c0 77 23 138 69 183s107 68 182 68s135 -23 181 -68s69 -106 69 -183c0 -76 -23 -137 -69 -182s-106 -67 -181 -67s-136 22 -182 67s-69 106 -69 182zM197 244c0 -149 32 -223 96 -223c63 0 95 74 95 223s-32 224 -95 224c-64 0 -96 -75 -96 -224z" />
    <glyph glyph-name="Oacute.smcp" 
d="M42 244c0 77 23 138 69 183s107 68 182 68s135 -23 181 -68s69 -106 69 -183c0 -76 -23 -137 -69 -182s-106 -67 -181 -67s-136 22 -182 67s-69 106 -69 182zM197 244c0 -149 32 -223 96 -223c63 0 95 74 95 223s-32 224 -95 224c-64 0 -96 -75 -96 -224zM230 509l-15 15
l106 131l77 -77z" />
    <glyph glyph-name="Obreve.smcp" 
d="M42 244c0 77 23 138 69 183s107 68 182 68s135 -23 181 -68s69 -106 69 -183c0 -76 -23 -137 -69 -182s-106 -67 -181 -67s-136 22 -182 67s-69 106 -69 182zM197 244c0 -149 32 -223 96 -223c63 0 95 74 95 223s-32 224 -95 224c-64 0 -96 -75 -96 -224zM322 590
c-6 72 110 71 105 3c7 -99 -275 -99 -269 0c-5 68 111 69 105 -3c0 -46 19 -46 30 -46c9 0 29 0 29 46z" />
    <glyph glyph-name="Ocircumflex.smcp" 
d="M42 244c0 77 23 138 69 183s107 68 182 68s135 -23 181 -68s69 -106 69 -183c0 -76 -23 -137 -69 -182s-106 -67 -181 -67s-136 22 -182 67s-69 106 -69 182zM197 244c0 -149 32 -223 96 -223c63 0 95 74 95 223s-32 224 -95 224c-64 0 -96 -75 -96 -224zM178 524
l105 131h18l105 -131l-16 -15l-98 53l-99 -53z" />
    <glyph glyph-name="Odieresis.smcp" 
d="M42 244c0 77 23 138 69 183s107 68 182 68s135 -23 181 -68s69 -106 69 -183c0 -76 -23 -137 -69 -182s-106 -67 -181 -67s-136 22 -182 67s-69 106 -69 182zM197 244c0 -149 32 -223 96 -223c63 0 95 74 95 223s-32 224 -95 224c-64 0 -96 -75 -96 -224zM144 583
c0 19 6 34 18 46c24 24 70 24 93 0c12 -11 18 -27 18 -46c0 -39 -27 -65 -64 -65c-39 0 -65 26 -65 65zM328 536c-24 24 -24 70 0 93c24 24 70 24 94 0c24 -23 24 -69 0 -93s-70 -24 -94 0z" />
    <glyph glyph-name="Ograve.smcp" 
d="M42 244c0 77 23 138 69 183s107 68 182 68s135 -23 181 -68s69 -106 69 -183c0 -76 -23 -137 -69 -182s-106 -67 -181 -67s-136 22 -182 67s-69 106 -69 182zM197 244c0 -149 32 -223 96 -223c63 0 95 74 95 223s-32 224 -95 224c-64 0 -96 -75 -96 -224zM187 578l77 77
l105 -131l-15 -15z" />
    <glyph glyph-name="Ohungarumlaut.smcp" 
d="M42 244c0 77 23 138 69 183s107 68 182 68s135 -23 181 -68s69 -106 69 -183c0 -76 -23 -137 -69 -182s-106 -67 -181 -67s-136 22 -182 67s-69 106 -69 182zM197 244c0 -149 32 -223 96 -223c63 0 95 74 95 223s-32 224 -95 224c-64 0 -96 -75 -96 -224zM157 509l-14 15
l89 131l77 -77zM305 509l-15 15l89 131l77 -77z" />
    <glyph glyph-name="Omacron.smcp" 
d="M42 244c0 77 23 138 69 183s107 68 182 68s135 -23 181 -68s69 -106 69 -183c0 -76 -23 -137 -69 -182s-106 -67 -181 -67s-136 22 -182 67s-69 106 -69 182zM197 244c0 -149 32 -223 96 -223c63 0 95 74 95 223s-32 224 -95 224c-64 0 -96 -75 -96 -224zM398 550h-210
v41h210v-41z" />
    <glyph glyph-name="Oslash.smcp" 
d="M128 47l-44 -47h-42l63 68c-42 45 -63 104 -63 176c0 77 23 138 69 183s107 68 182 68c65 0 120 -18 163 -53l45 48h42l-64 -69c43 -46 64 -105 64 -177c0 -76 -23 -137 -69 -182s-106 -67 -181 -67c-66 0 -121 17 -165 52zM388 244c0 31 -1 57 -4 76l-178 -190
c14 -73 43 -109 87 -109c63 0 95 74 95 223zM197 244c0 -28 1 -53 3 -75l179 190c-14 73 -43 109 -86 109c-64 0 -96 -75 -96 -224z" />
    <glyph glyph-name="Oslashacute.smcp" 
d="M128 47l-44 -47h-42l63 68c-42 45 -63 104 -63 176c0 77 23 138 69 183s107 68 182 68c65 0 120 -18 163 -53l45 48h42l-64 -69c43 -46 64 -105 64 -177c0 -76 -23 -137 -69 -182s-106 -67 -181 -67c-66 0 -121 17 -165 52zM388 244c0 31 -1 57 -4 76l-178 -190
c14 -73 43 -109 87 -109c63 0 95 74 95 223zM197 244c0 -28 1 -53 3 -75l179 190c-14 73 -43 109 -86 109c-64 0 -96 -75 -96 -224zM230 509l-15 15l106 131l77 -77z" />
    <glyph glyph-name="Otilde.smcp" 
d="M42 244c0 77 23 138 69 183s107 68 182 68s135 -23 181 -68s69 -106 69 -183c0 -76 -23 -137 -69 -182s-106 -67 -181 -67s-136 22 -182 67s-69 106 -69 182zM197 244c0 -149 32 -223 96 -223c63 0 95 74 95 223s-32 224 -95 224c-64 0 -96 -75 -96 -224zM162 532l-15 15
c58 57 97 85 118 85c9 0 24 -6 43 -17s35 -16 47 -16c17 0 50 13 70 32l15 -14c-59 -57 -99 -86 -121 -86c-9 0 -24 5 -44 16c-19 11 -35 16 -48 16c-23 0 -44 -10 -65 -31z" />
    <glyph glyph-name="OE.smcp" horiz-adv-x="754" 
d="M491 235v-203h151l43 77h30l-5 -109h-359c-20 -3 -39 -5 -58 -5c-75 0 -136 22 -182 67s-69 106 -69 182c0 77 23 138 69 183s107 68 182 68c17 0 36 -2 57 -5h353l5 -110h-30l-43 78h-144v-191h106l20 60h28v-152h-28l-20 60h-106zM293 21c22 0 40 14 53 42v364
c-13 27 -31 41 -53 41c-64 0 -96 -75 -96 -224s32 -223 96 -223z" />
    <glyph glyph-name="P.smcp" horiz-adv-x="525" 
d="M261 458h-41v-414l74 -21v-23h-269v25l47 20v410l-47 15v20h249c125 0 209 -57 209 -145s-84 -144 -209 -144h-23l-14 13v18h24c47 0 70 38 70 113s-23 113 -70 113z" />
    <glyph glyph-name="Q.smcp" 
d="M569 -33l11 -10c-35 -35 -80 -52 -137 -52c-48 0 -89 12 -116 23c-16 5 -44 27 -53 34l-24 21l-23 19c-115 25 -185 115 -185 242c0 77 23 138 69 183s107 68 182 68s135 -23 181 -68s69 -106 69 -183c0 -111 -56 -194 -148 -231c10 -5 24 -14 41 -25
c36 -24 59 -36 90 -36c19 0 33 5 43 15zM197 244c0 -145 32 -218 96 -218c63 0 95 73 95 218c0 149 -32 224 -95 224c-64 0 -96 -75 -96 -224z" />
    <glyph glyph-name="R.smcp" horiz-adv-x="562" 
d="M483 353c0 -57 -41 -103 -114 -123c24 -7 45 -28 62 -61l65 -128l46 -18v-23h-181l-110 219h-31v-177l47 -19v-23h-242v25l47 20v410l-47 15v20h251c124 0 207 -53 207 -137zM263 458h-43v-207h43c45 0 68 35 68 104s-23 103 -68 103z" />
    <glyph glyph-name="Racute.smcp" horiz-adv-x="562" 
d="M483 353c0 -57 -41 -103 -114 -123c24 -7 45 -28 62 -61l65 -128l46 -18v-23h-181l-110 219h-31v-177l47 -19v-23h-242v25l47 20v410l-47 15v20h251c124 0 207 -53 207 -137zM263 458h-43v-207h43c45 0 68 35 68 104s-23 103 -68 103zM214 509l-15 15l105 131l78 -77z
" />
    <glyph glyph-name="Rcaron.smcp" horiz-adv-x="562" 
d="M483 353c0 -57 -41 -103 -114 -123c24 -7 45 -28 62 -61l65 -128l46 -18v-23h-181l-110 219h-31v-177l47 -19v-23h-242v25l47 20v410l-47 15v20h251c124 0 207 -53 207 -137zM263 458h-43v-207h43c45 0 68 35 68 104s-23 103 -68 103zM386 641l-105 -132h-18l-105 132
l15 14l99 -53l99 53z" />
    <glyph glyph-name="Rcommaaccent.smcp" horiz-adv-x="562" 
d="M483 353c0 -57 -41 -103 -114 -123c24 -7 45 -28 62 -61l65 -128l46 -18v-23h-181l-110 219h-31v-177l47 -19v-23h-242v25l47 20v410l-47 15v20h251c124 0 207 -53 207 -137zM263 458h-43v-207h43c45 0 68 35 68 104s-23 103 -68 103zM261 -175l-12 11c22 24 33 40 33 48
c0 1 -1 3 -2 6c-25 0 -42 15 -42 40c0 24 17 40 41 40c27 0 44 -16 44 -43s-21 -61 -62 -102z" />
    <glyph glyph-name="S.smcp" horiz-adv-x="472" 
d="M61 1l-10 11l-7 116h31c21 -75 83 -107 140 -107c52 0 90 28 90 84c0 19 -6 33 -19 42s-40 21 -83 36l-61 21c-13 6 -29 15 -48 27c-36 25 -52 61 -52 110c0 92 59 154 187 154c42 0 83 -8 124 -24l32 18l10 -11l7 -117h-31c-20 76 -74 107 -123 107s-80 -32 -80 -76
c0 -19 6 -33 18 -42c13 -9 37 -20 74 -34l57 -21c13 -5 28 -12 45 -21c48 -27 63 -58 68 -120c0 -106 -69 -159 -207 -159c-47 0 -91 8 -130 24z" />
    <glyph glyph-name="Sacute.smcp" horiz-adv-x="472" 
d="M61 1l-10 11l-7 116h31c21 -75 83 -107 140 -107c52 0 90 28 90 84c0 19 -6 33 -19 42s-40 21 -83 36l-61 21c-13 6 -29 15 -48 27c-36 25 -52 61 -52 110c0 92 59 154 187 154c42 0 83 -8 124 -24l32 18l10 -11l7 -117h-31c-20 76 -74 107 -123 107s-80 -32 -80 -76
c0 -19 6 -33 18 -42c13 -9 37 -20 74 -34l57 -21c13 -5 28 -12 45 -21c48 -27 63 -58 68 -120c0 -106 -69 -159 -207 -159c-47 0 -91 8 -130 24zM168 509l-15 15l106 131l77 -77z" />
    <glyph glyph-name="Scaron.smcp" horiz-adv-x="472" 
d="M61 1l-10 11l-7 116h31c21 -75 83 -107 140 -107c52 0 90 28 90 84c0 19 -6 33 -19 42s-40 21 -83 36l-61 21c-13 6 -29 15 -48 27c-36 25 -52 61 -52 110c0 92 59 154 187 154c42 0 83 -8 124 -24l32 18l10 -11l7 -117h-31c-20 76 -74 107 -123 107s-80 -32 -80 -76
c0 -19 6 -33 18 -42c13 -9 37 -20 74 -34l57 -21c13 -5 28 -12 45 -21c48 -27 63 -58 68 -120c0 -106 -69 -159 -207 -159c-47 0 -91 8 -130 24zM343 641l-106 -132h-18l-104 132l14 14l100 -53l98 53z" />
    <glyph glyph-name="Scedilla.smcp" horiz-adv-x="472" 
d="M165 -92l47 87c-43 1 -83 9 -119 24l-32 -18l-10 11l-7 116h31c21 -75 83 -107 140 -107c52 0 90 28 90 84c0 19 -6 33 -19 42s-40 21 -83 36l-61 21c-13 6 -29 15 -48 27c-36 25 -52 61 -52 110c0 92 59 154 187 154c42 0 83 -8 124 -24l32 18l10 -11l7 -117h-31
c-20 76 -74 107 -123 107s-80 -32 -80 -76c0 -19 6 -33 18 -42c13 -9 37 -20 74 -34l57 -21c13 -5 28 -12 45 -21c48 -27 63 -58 68 -120c0 -96 -61 -156 -198 -159l-10 -21c35 0 61 -14 61 -39c0 -22 -27 -58 -82 -108l-8 8c19 17 28 33 28 48c0 17 -19 25 -56 25z" />
    <glyph glyph-name="Scircumflex.smcp" horiz-adv-x="472" 
d="M61 1l-10 11l-7 116h31c21 -75 83 -107 140 -107c52 0 90 28 90 84c0 19 -6 33 -19 42s-40 21 -83 36l-61 21c-13 6 -29 15 -48 27c-36 25 -52 61 -52 110c0 92 59 154 187 154c42 0 83 -8 124 -24l32 18l10 -11l7 -117h-31c-20 76 -74 107 -123 107s-80 -32 -80 -76
c0 -19 6 -33 18 -42c13 -9 37 -20 74 -34l57 -21c13 -5 28 -12 45 -21c48 -27 63 -58 68 -120c0 -106 -69 -159 -207 -159c-47 0 -91 8 -130 24zM115 524l104 131h18l106 -131l-16 -15l-98 53l-100 -53z" />
    <glyph glyph-name="Scommaaccent.smcp" horiz-adv-x="472" 
d="M61 1l-10 11l-7 116h31c21 -75 83 -107 140 -107c52 0 90 28 90 84c0 19 -6 33 -19 42s-40 21 -83 36l-61 21c-13 6 -29 15 -48 27c-36 25 -52 61 -52 110c0 92 59 154 187 154c42 0 83 -8 124 -24l32 18l10 -11l7 -117h-31c-20 76 -74 107 -123 107s-80 -32 -80 -76
c0 -19 6 -33 18 -42c13 -9 37 -20 74 -34l57 -21c13 -5 28 -12 45 -21c48 -27 63 -58 68 -120c0 -106 -69 -159 -207 -159c-47 0 -91 8 -130 24zM202 -175l-13 11c23 23 34 39 34 48c0 1 -1 3 -2 6c-25 0 -42 15 -42 40c-6 52 90 54 85 -3c0 -27 -21 -61 -62 -102z" />
    <glyph glyph-name="T.smcp" horiz-adv-x="534" 
d="M474 380l-43 78h-90v-416l47 -19v-23h-241v25l46 20v413h-90l-44 -80h-29l5 112h465l4 -110h-30z" />
    <glyph glyph-name="Tbar.smcp" horiz-adv-x="534" 
d="M193 233h-72v32h72v193h-90l-44 -80h-29l5 112h465l4 -110h-30l-43 78h-90v-193h73v-32h-73v-191l47 -19v-23h-241v25l46 20v188z" />
    <glyph glyph-name="Tcaron.smcp" horiz-adv-x="534" 
d="M474 380l-43 78h-90v-416l47 -19v-23h-241v25l46 20v413h-90l-44 -80h-29l5 112h465l4 -110h-30zM381 641l-105 -132h-19l-104 132l15 14l98 -53l99 53z" />
    <glyph glyph-name="Tcommaaccent.smcp" horiz-adv-x="534" 
d="M474 380l-43 78h-90v-416l47 -19v-23h-241v25l46 20v413h-90l-44 -80h-29l5 112h465l4 -110h-30zM247 -175l-12 11c22 26 33 42 33 48c0 2 -1 4 -3 6c-37 -4 -54 46 -30 69c27 25 74 7 74 -32c0 -27 -21 -61 -62 -102z" />
    </font>
</defs>
</svg>
