<?xml version="1.0" encoding="UTF-8"?>
<svg width="38px" height="38px" viewBox="0 0 38 38" version="1.1" xmlns="http://www.w3.org/2000/svg" xmlns:xlink="http://www.w3.org/1999/xlink">
    <!-- Generator: Sketch 48.2 (47327) - http://www.bohemiancoding.com/sketch -->
    <title>login</title>
    <desc>Created with Sketch.</desc>
    <defs>
        <linearGradient x1="-3.76298459%" y1="69.8734128%" x2="109.808578%" y2="27.0689972%" id="linearGradient-1">
            <stop stop-color="#FF77C5" offset="0%"></stop>
            <stop stop-color="#73D1F6" offset="100%"></stop>
        </linearGradient>
        <circle id="path-2" cx="18.9543948" cy="19.0456052" r="18.9543948"></circle>
    </defs>
    <g id="menu-16_01" stroke="none" stroke-width="1" fill="none" fill-rule="evenodd" transform="translate(-1349.000000, -33.000000)">
        <g id="Group-13" transform="translate(1349.000000, 33.000000)">
            <g>
                <g id="Oval-3-Copy" opacity="0.678385417">
                    <use fill="#6ECFF5" xlink:href="#path-2"></use>
                    <use fill="url(#linearGradient-1)" xlink:href="#path-2"></use>
                </g>
                <path d="M34.210371,19.0450109 C34.210371,27.4714876 27.3805433,34.3015815 18.9543948,34.3015815 C10.5294349,34.3015815 3.69841849,27.4714876 3.69841849,19.0450109 C3.69841849,10.6197228 10.5294349,3.78962896 18.9543948,3.78962896 C27.3805433,3.78962896 34.210371,10.6197228 34.210371,19.0450109 Z" id="Stroke-280-Copy" stroke="#000000" stroke-width="1.0912"></path>
                <path d="M17.7553713,19.7675407 C16.5275382,19.4686741 15.8046196,18.3359838 15.7703217,16.9600489 L15.7719142,16.795046 C15.2729884,16.6022091 14.9191133,16.1178957 14.9191133,15.5509304 L14.9191133,15.4244278 C14.9191133,14.8479149 15.2850072,14.356861 15.7972421,14.1708192 L15.810419,12.8055574 L15.067789,11.8502414 L15.7327227,11.0835024 C16.7547221,9.90502897 18.3874387,9.46078819 19.8656394,9.95898997 C21.3258477,10.4511277 22.3091559,11.8201886 22.3091559,13.3610999 L22.3091559,14.1904119 C22.7946755,14.389661 23.136606,14.8671133 23.136606,15.4244278 L23.136606,15.5509304 C23.136606,16.1082449 22.7946755,16.5856973 22.3091559,16.7849463 L22.3091559,16.9600489 C22.4478194,18.2972897 21.6341393,19.4220132 20.4058935,19.7488766" id="Combined-Shape" stroke="#000000" stroke-width="1.06666667" stroke-linecap="round" stroke-linejoin="round"></path>
                <path d="M17.7699746,19.950892 C17.7699746,23.7806746 11.037764,22.0507684 11.037764,27.075393" id="Oval-5" stroke="#000000" stroke-width="1.06666667" stroke-linecap="round"></path>
                <path d="M20.3687941,19.950892 C20.3687941,23.7806746 27.1010047,22.0507684 27.1010047,27.075393" id="Oval-5-Copy" stroke="#000000" stroke-width="1.06666667" stroke-linecap="round"></path>
            </g>
        </g>
    </g>
</svg>