<svg width="31px" height="31px" viewBox="0 0 31 31" version="1.1" xmlns="http://www.w3.org/2000/svg" xmlns:xlink="http://www.w3.org/1999/xlink">
    <!-- Generator: Sketch 50.2 (55047) - http://www.bohemiancoding.com/sketch -->
    <desc>Created with Sketch.</desc>
    <defs></defs>
    <g id="Page-1" stroke="none" stroke-width="1" fill="none" fill-rule="evenodd" stroke-linecap="round" stroke-linejoin="round">
        <g id="Original" transform="translate(-758.000000, -437.000000)" stroke="#000000">
            <g id="Group-7" transform="translate(759.000000, 428.000000)">
                <g id="Group-41" transform="translate(0.000000, 10.000000)">
                    <path d="M27.1507513,13.9523143 L26.4541376,14.6980286 L27.1507513,15.4458143 C27.9077178,16.2536714 28.2524444,17.0263143 28.1256014,17.6187429 C28.0018272,18.1852786 27.4085291,18.7114214 26.4520917,19.0987786 L25.4475767,19.50685 L25.8577707,20.5187429 C26.250575,21.4892071 26.2976296,22.2773857 25.9907513,22.74035 C25.6930794,23.18985 24.9841905,23.4384214 23.9929735,23.4384214 L22.9076473,23.4384214 L22.8339965,24.5373143 C22.8452487,25.4425286 22.6560071,26.1385286 22.3041199,26.4999929 C22.0831675,26.7257786 21.780381,26.8366 21.3783704,26.8366 C20.9722681,26.8366 20.4914921,26.7216357 19.9534321,26.4979214 L18.9540317,26.0826 L18.5509982,27.0996714 C18.2390053,27.8847429 17.6886702,28.8210286 16.8335026,28.8210286 C16.2933968,28.8210286 15.6223563,28.4606 14.9410864,27.8060286 L14.2025326,27.0976 L13.4639788,27.8060286 C12.7847549,28.4606 12.1126914,28.8210286 11.5725855,28.8210286 C10.7194638,28.8210286 10.1681058,27.8847429 9.85611287,27.0996714 L9.45410229,26.0836357 L8.45367901,26.4979214 C7.91561905,26.7216357 7.43484303,26.8366 7.02771781,26.8366 C6.62570723,26.8366 6.32292063,26.7257786 6.10196825,26.4999929 C5.75008113,26.1385286 5.56186243,25.4425286 5.57106878,24.5362786 L5.58232099,23.4249571 C5.58232099,23.4249571 4.48267372,23.4384214 4.48165079,23.4384214 C3.42087478,23.4384214 2.71300882,23.1888143 2.41533686,22.74035 C2.10845855,22.2773857 2.1544903,21.4892071 2.54831746,20.5197786 L2.95953439,19.5078857 L1.9550194,19.0987786 C0.998582011,18.7114214 0.404261023,18.1852786 0.2815097,17.6166714 C0.153643739,17.0252786 0.499393298,16.2536714 1.25533686,15.4458143 L1.95399647,14.6980286 L1.25533686,13.9523143 C0.499393298,13.1434214 0.153643739,12.3718143 0.2815097,11.7804214 C0.404261023,11.2107786 0.998582011,10.6856714 1.9550194,10.2972786 L2.95953439,9.88920714 L2.54831746,8.87731429 C2.1544903,7.90788571 2.10845855,7.11867143 2.41533686,6.65674286 C2.71300882,6.20620714 3.42189771,5.95867143 4.41209171,5.95867143 L5.49639506,5.95867143 L5.57106878,4.86081429 C5.56186243,3.95456429 5.75008113,3.25856429 6.10196825,2.8971 C6.32292063,2.67131429 6.62570723,2.56049286 7.02771781,2.56049286 C7.43484303,2.56049286 7.91561905,2.67442143 8.45367901,2.89917143 L9.45410229,3.31449286 L9.85611287,2.29742143 C10.1670829,1.51235 10.7194638,0.5771 11.5725855,0.5771 C12.1126914,0.5771 12.7847549,0.936492857 13.4639788,1.59106429 L14.2025326,2.29845714 L14.9410864,1.59106429 C15.6223563,0.936492857 16.2944198,0.5771 16.8345256,0.5771 C17.6886702,0.5771 18.2400282,1.51235 18.5509982,2.29742143 L18.9540317,3.31552857 L19.9534321,2.89917143 C20.4914921,2.67442143 20.9722681,2.56049286 21.3783704,2.56049286 C21.780381,2.56049286 22.0831675,2.67131429 22.3041199,2.8971 C22.6560071,3.25856429 22.8452487,3.95456429 22.8339965,4.85977857 L22.8217213,5.97213571 C22.8217213,5.97213571 23.9223915,5.95867143 23.9234145,5.95867143 C24.9852134,5.95867143 25.6941023,6.20620714 25.9907513,6.65570714 C26.2976296,7.11867143 26.250575,7.90788571 25.8577707,8.87731429 L25.4475767,9.89024286 L26.4520917,10.2972786 C27.4085291,10.6856714 28.0018272,11.2107786 28.1256014,11.7793857 C28.2524444,12.3697429 27.9077178,13.1434214 27.1507513,13.9523143 L27.1507513,13.9523143 Z" id="Stroke-285" stroke-width="2.024"></path>
                    <path d="M11.3922434,8.80522857 L11.3922434,20.5916571" id="Stroke-286" stroke-width="2.03"></path>
                    <path d="M16.3382011,8.80678214 C17.7743915,8.80678214 18.9395062,9.985425 18.9395062,11.4406036 C18.9395062,12.8947464 17.7743915,14.074425 16.3382011,14.074425 L11.3923457,14.074425 L11.3923457,8.80678214 L16.3382011,8.80678214 L16.3382011,8.80678214 Z" id="Stroke-287" stroke-width="2.023"></path>
                    <path d="M16.1062011,17.8733214 L8.52016931,17.8733214" id="Stroke-288" stroke-width="2.005"></path>
                </g>
            </g>
        </g>
    </g>
</svg>