<svg width="29px" height="30px" viewBox="0 0 29 30" version="1.1" xmlns="http://www.w3.org/2000/svg" xmlns:xlink="http://www.w3.org/1999/xlink">
    <!-- Generator: Sketch 50.2 (55047) - http://www.bohemiancoding.com/sketch -->
    <desc>Created with Sketch.</desc>
    <defs></defs>
    <g id="Page-1" stroke="none" stroke-width="1" fill="none" fill-rule="evenodd" stroke-linecap="round" stroke-linejoin="round">
        <g id="Original" transform="translate(-197.000000, -437.000000)" stroke="#000000">
            <g id="Group-4" transform="translate(199.000000, 428.000000)">
                <g id="Group-3" transform="translate(0.000000, 10.000000)">
                    <polyline id="Stroke-341" stroke-width="2.019" points="25.3835425 6.44077961 25.3835425 6.56471764 25.3835425 28 16.4253422 24.029985 7.91347195 28 0 24.029985 0 4 7.91347195 8.58970515"></polyline>
                    <path d="M16.1087866,0 C13.1432354,0 10.7391911,2.49347169 10.7391911,5.56933755 C10.7391911,6.76917262 11.1069035,7.87623694 11.7280394,8.78435954 L16.1087866,15 L20.48854,8.78435954 C21.1106697,7.87623694 21.4783821,6.76917262 21.4783821,5.56933755 C21.4783821,2.49347169 19.0743378,0 16.1087866,0 L16.1087866,0 Z" id="Stroke-342" stroke-width="2.023"></path>
                    <path d="M7.81032078,28 L7.81032078,13" id="Stroke-343" stroke-width="2.019"></path>
                    <path d="M15.6206416,24 L15.6206416,18" id="Stroke-344" stroke-width="2.035"></path>
                </g>
            </g>
        </g>
    </g>
</svg>