<svg width="36px" height="32px" viewBox="0 0 36 32" version="1.1" xmlns="http://www.w3.org/2000/svg" xmlns:xlink="http://www.w3.org/1999/xlink">
    <!-- Generator: Sketch 50.2 (55047) - http://www.bohemiancoding.com/sketch -->
    <desc>Created with Sketch.</desc>
    <defs></defs>
    <g id="Page-1" stroke="none" stroke-width="1" fill="none" fill-rule="evenodd" stroke-linecap="round" stroke-linejoin="round">
        <g id="Original" transform="translate(-477.000000, -436.000000)" stroke="#000000">
            <g id="Group-6" transform="translate(479.000000, 428.000000)">
                <g id="Group-5" transform="translate(0.000000, 10.000000)">
                    <path d="M9.43451613,25.2140968 L3.13741935,25.2140968 C1.43516129,25.2140968 0,23.8501613 0,22.1821935 L0,3.03190323 C0,1.36393548 1.41096774,0 3.13741935,0 L15.3870968,0 C17.1125806,0 18.5235484,1.36393548 18.5235484,3.03190323 L18.5235484,10.1144516" id="Stroke-403" stroke-width="2.023"></path>
                    <path d="M15.4025806,6.90742581 L3.12096774,6.90742581" id="Stroke-404" stroke-width="2.016"></path>
                    <path d="M4.81887097,10.9820194 C5.1333871,10.9820194 5.38983871,11.2289871 5.38983871,11.5339548 C5.38983871,11.8379871 5.1333871,12.0849548 4.81887097,12.0849548 C4.5033871,12.0849548 4.24790323,11.8379871 4.24790323,11.5339548 C4.24790323,11.2289871 4.5033871,10.9820194 4.81887097,10.9820194 L4.81887097,10.9820194 Z" id="Stroke-405" stroke-width="2.028"></path>
                    <path d="M4.81887097,15.5965742 C5.1333871,15.5965742 5.38983871,15.8435419 5.38983871,16.1485097 C5.38983871,16.4525419 5.1333871,16.6995097 4.81887097,16.6995097 C4.5033871,16.6995097 4.24790323,16.4525419 4.24790323,16.1485097 C4.24790323,15.8435419 4.5033871,15.5965742 4.81887097,15.5965742 L4.81887097,15.5965742 Z" id="Stroke-406" stroke-width="2.028"></path>
                    <path d="M9.25258065,10.9820194 C9.56806452,10.9820194 9.82354839,11.2289871 9.82354839,11.5339548 C9.82354839,11.8379871 9.56806452,12.0849548 9.25258065,12.0849548 C8.93709677,12.0849548 8.6816129,11.8379871 8.6816129,11.5339548 C8.6816129,11.2289871 8.93709677,10.9820194 9.25258065,10.9820194 L9.25258065,10.9820194 Z" id="Stroke-407" stroke-width="2.028"></path>
                    <path d="M9.10887097,15.5966677 L24.4059677,7.05944194 C25.2372581,6.59544194 26.3104839,6.87328065 26.7904839,7.67686129 L32.7759677,17.6987 C33.2559677,18.5032161 32.9685484,19.5406677 32.1372581,20.0046677 L16.8401613,28.5418935 C16.0079032,29.0058935 14.9356452,28.7280548 14.4556452,27.9244742 L8.46919355,17.9026355 C7.98919355,17.0981194 8.2766129,16.0606677 9.10887097,15.5966677 L9.10887097,15.5966677 Z" id="Stroke-408" stroke-width="2.033"></path>
                    <path d="M27.8339032,14.7536097 L11.9000323,23.6463194" id="Stroke-409" stroke-width="2.024"></path>
                    <path d="M29.3905161,17.3598677 L13.4566452,26.2525774" id="Stroke-410" stroke-width="2.024"></path>
                    <path d="M4.81887097,15.5965742 C5.1333871,15.5965742 5.38983871,15.8435419 5.38983871,16.1485097 C5.38983871,16.4525419 5.1333871,16.6995097 4.81887097,16.6995097 C4.5033871,16.6995097 4.24790323,16.4525419 4.24790323,16.1485097 C4.24790323,15.8435419 4.5033871,15.5965742 4.81887097,15.5965742 L4.81887097,15.5965742 Z" id="Stroke-411" stroke-width="2.028"></path>
                    <path d="M4.81887097,20.2108484 C5.1333871,20.2108484 5.38983871,20.4578161 5.38983871,20.7627839 C5.38983871,21.0668161 5.1333871,21.3137839 4.81887097,21.3137839 C4.5033871,21.3137839 4.24790323,21.0668161 4.24790323,20.7627839 C4.24790323,20.4578161 4.5033871,20.2108484 4.81887097,20.2108484 L4.81887097,20.2108484 Z" id="Stroke-412" stroke-width="2.028"></path>
                </g>
            </g>
        </g>
    </g>
</svg>